<svg width="36" height="52" viewBox="0 0 36 52" fill="none" xmlns="http://www.w3.org/2000/svg">
<path fill-rule="evenodd" clip-rule="evenodd" d="M1.79884 0.148266C1.14138 0.325073 0.615017 0.766837 0.279276 1.42349L0 1.96986L0.00223453 24.3191C0.00436719 45.7281 0.0122878 46.6854 0.189603 47.0746C0.458825 47.6651 0.829806 48.0629 1.35718 48.3262C1.87643 48.5855 1.80829 48.4279 2.34145 50.6036L2.68359 52H17.569H32.4544L32.7966 50.6036C33.3297 48.4279 33.2616 48.5855 33.7808 48.3262C34.3082 48.0629 34.6792 47.6651 34.9484 47.0746C35.1257 46.6854 35.1337 45.7281 35.1358 24.3191L35.138 1.96986L34.8587 1.41912C34.5163 0.743987 33.9107 0.26546 33.2079 0.114753C32.4009 -0.058297 2.44819 -0.0263072 1.79884 0.148266ZM16.7566 3.30439V4.98005H24.2716H31.7867V3.2922V1.60436L32.4114 1.64955C32.9356 1.68743 33.0743 1.73933 33.2746 1.97199L33.5131 2.24944V24.3263V46.4031L33.2681 46.6881L33.0229 46.973H17.569H2.11509L1.86993 46.6881L1.62488 46.4031V24.3432C1.62488 4.24591 1.6394 2.26254 1.78808 2.05029C1.87785 1.92213 2.04918 1.77772 2.16891 1.72948C2.28864 1.68114 5.61975 1.63869 9.57156 1.63513L16.7566 1.62873V3.30439ZM20.1079 2.49195V3.35517H19.2447H18.3814V2.49195V1.62873H19.2447H20.1079V2.49195ZM23.4592 2.49195V3.35517H22.596H21.7328V2.49195V1.62873H22.596H23.4592V2.49195ZM26.8105 2.49195V3.35517H25.9473H25.0841V2.49195V1.62873H25.9473H26.8105V2.49195ZM30.1618 2.49195V3.35517H29.2986H28.4354V2.49195V1.62873H29.2986H30.1618V2.49195ZM3.35131 4.16761V4.98005H4.16375H4.97619V4.16761V3.35517H4.16375H3.35131V4.16761ZM6.70263 4.16761V4.98005H7.51507H8.32751V4.16761V3.35517H7.51507H6.70263V4.16761ZM10.0539 4.16761V4.98005H10.8664H11.6788V4.16761V3.35517H10.8664H10.0539V4.16761ZM3.35131 26.0019V45.2974H4.16375H4.97619V41.9461V38.5947H17.569H30.1618V41.9461V45.2974H30.9743H31.7867V26.0019V6.70648H17.569H3.35131V26.0019ZM30.1618 12.5459V16.7604H17.569H4.97619V12.5459V8.33136H17.569H30.1618V12.5459ZM6.70263 12.5459V15.034H12.542H18.3814V12.5459V10.0578H12.542H6.70263V12.5459ZM10.0539 12.5459V13.4091H9.19072H8.32751V12.5459V11.6827H9.19072H10.0539V12.5459ZM13.4053 12.5459V13.4091H12.542H11.6788V12.5459V11.6827H12.542H13.4053V12.5459ZM16.7566 12.5459V13.4091H15.8934H15.0301V12.5459V11.6827H15.8934H16.7566V12.5459ZM20.1079 12.5967V13.4091H20.9203H21.7328V12.5967V11.7842H20.9203H20.1079V12.5967ZM23.4592 12.5967V13.4091H24.2716H25.0841V12.5967V11.7842H24.2716H23.4592V12.5967ZM26.8105 12.5967V13.4091H27.623H28.4354V12.5967V11.7842H27.623H26.8105V12.5967ZM30.1618 22.5998V26.8144H17.569H4.97619V22.5998V18.3853H17.569H30.1618V22.5998ZM16.7566 22.6506V25.1895H22.596H28.4354V22.6506V20.1117H22.596H16.7566V22.6506ZM20.0866 22.6252L20.1161 23.4631H19.2487H18.3814V22.6676C18.3814 22.23 18.4136 21.8398 18.453 21.8004C18.4924 21.7611 18.8694 21.742 19.2909 21.7581L20.0571 21.7874L20.0866 22.6252ZM23.4379 22.6252L23.4674 23.4631H22.6H21.7328V22.6676C21.7328 22.23 21.765 21.8398 21.8044 21.8004C21.8438 21.7611 22.2207 21.742 22.6422 21.7581L23.4084 21.7874L23.4379 22.6252ZM26.7892 22.6252L26.8187 23.4631H25.9514H25.0841V22.6676C25.0841 22.23 25.1163 21.8398 25.1557 21.8004C25.1951 21.7611 25.572 21.742 25.9935 21.7581L26.7597 21.7874L26.7892 22.6252ZM6.70263 22.6506V23.4631H7.51507H8.32751V22.6506V21.8382H7.51507H6.70263V22.6506ZM10.0539 22.6506V23.4631H10.8664H11.6788V22.6506V21.8382H10.8664H10.0539V22.6506ZM13.4053 22.6506V23.4631H14.2177H15.0301V22.6506V21.8382H14.2177H13.4053V22.6506ZM30.1618 32.7553V36.9699H17.569H4.97619V32.7553V28.5408H17.569H30.1618V32.7553ZM6.70263 32.7553V35.2434H17.569H28.4354V32.7553V30.2672H17.569H6.70263V32.7553ZM26.8105 32.7553V33.6185H17.569H8.32751V32.7553V31.8921H17.569H26.8105V32.7553ZM6.70263 42.8093V45.2974H17.569H28.4354V42.8093V40.3212H17.569H6.70263V42.8093ZM26.8105 42.8093V43.6725H17.569H8.32751V42.8093V41.9461H17.569H26.8105V42.8093ZM31.583 48.7248C31.5827 48.7668 31.5399 48.961 31.4879 49.1565C31.436 49.352 31.3431 49.7062 31.2815 49.9435L31.1696 50.3751H17.569H3.96846L3.85655 49.9435C3.79491 49.7062 3.70198 49.352 3.65009 49.1565C3.59809 48.961 3.55534 48.7668 3.55503 48.7248C3.55473 48.6829 9.86099 48.6487 17.569 48.6487C25.277 48.6487 31.5833 48.6829 31.583 48.7248Z" fill="white"/>
</svg>
