<svg width="52" height="52" viewBox="0 0 52 52" fill="none" xmlns="http://www.w3.org/2000/svg">
<path fill-rule="evenodd" clip-rule="evenodd" d="M25.644 0.0544474C25.5321 0.10235 25.3489 0.243212 25.237 0.367495C25.0421 0.583923 25.0324 0.758245 25.0047 4.49854L24.9758 8.40361H22.0859H19.1961L19.1647 6.37154L19.1333 4.33958L18.867 4.07352C18.3902 3.59724 17.4822 3.77919 17.2468 4.39816C17.1934 4.53872 17.1496 5.49241 17.1496 6.51739V8.38093L15.344 8.42801C13.8687 8.46656 13.4173 8.51467 12.8771 8.69092C10.9356 9.32454 9.32217 10.9376 8.6884 12.8786C8.51211 13.4188 8.46399 13.87 8.42544 15.345L8.37834 17.1502H6.51437C5.48915 17.1502 4.53525 17.194 4.39466 17.2474C3.77554 17.4827 3.59355 18.3905 4.06994 18.8672L4.33606 19.1335L6.36849 19.1648L8.40102 19.1962V22.0854V24.9746L4.48672 25.0035L0.572425 25.0324L0.292672 25.312C-0.0975574 25.7024 -0.0975574 26.2947 0.292672 26.6851L0.572425 26.9647L4.48672 26.9936L8.40102 27.0225V29.9118V32.8009L6.36849 32.8323L4.33606 32.8636L4.06994 33.1299C3.59355 33.6066 3.77554 34.5144 4.39466 34.7498C4.53525 34.8031 5.48915 34.8469 6.51437 34.8469H8.37834L8.42544 36.6521C8.46399 38.1271 8.51211 38.5783 8.6884 39.1185C9.31942 41.051 10.9431 42.6745 12.8771 43.3065C13.4221 43.4846 13.8645 43.5307 15.3948 43.5692L17.2514 43.6158V45.4386C17.2514 47.531 17.3349 47.8846 17.8835 48.1138C18.3322 48.3012 18.7264 48.2091 19.0327 47.8453C19.2835 47.5473 19.2859 47.5254 19.2859 45.5689V43.5935H22.1852H25.0844L25.0846 47.3312C25.0848 50.6859 25.103 51.1052 25.2627 51.4247C25.6041 52.1077 26.3696 52.1978 26.8619 51.6129L27.119 51.3075V47.4505V43.5935H30.0183H32.9175V45.4801C32.9175 47.5923 32.9873 47.8788 33.5601 48.1181C33.9989 48.3014 34.3948 48.2065 34.6989 47.8453C34.9495 47.5474 34.9521 47.5246 34.9521 45.5805V43.6166L36.7069 43.569C38.1271 43.5304 38.5877 43.4803 39.1229 43.3059C41.0552 42.6761 42.6805 41.0513 43.3116 39.1185C43.4879 38.5783 43.536 38.1271 43.5746 36.6521L43.6217 34.8469H45.4856C46.5108 34.8469 47.4648 34.8031 47.6053 34.7498C48.2245 34.5144 48.4065 33.6066 47.9301 33.1299L47.6639 32.8636L45.6315 32.8323L43.599 32.8009V29.9118V27.0225L47.5133 26.9936L51.4276 26.9647L51.7073 26.6851C52.0976 26.2947 52.0976 25.7024 51.7073 25.312L51.4276 25.0324L47.5133 25.0035L43.599 24.9746V22.0854V19.1962L45.6315 19.1648L47.6639 19.1335L47.9301 18.8672C48.4065 18.3905 48.2245 17.4827 47.6053 17.2474C47.4648 17.194 46.5108 17.1502 45.4856 17.1502H43.6217L43.5746 15.345C43.536 13.87 43.4879 13.4188 43.3116 12.8786C42.6806 10.9459 41.0561 9.3218 39.1229 8.69092C38.5827 8.51467 38.1313 8.46656 36.656 8.42801L34.8504 8.38093V6.51739C34.8504 5.49241 34.8066 4.53872 34.7532 4.39816C34.5178 3.77919 33.6098 3.59724 33.133 4.07352L32.8667 4.33958L32.8353 6.37154L32.8039 8.40361H29.9141H27.0242L26.9953 4.4902L26.9664 0.576804L26.7121 0.322745C26.4295 0.0405139 25.9549 -0.0786843 25.644 0.0544474ZM39.0742 10.8379C39.9851 11.2862 40.7157 12.0167 41.1641 12.9273L41.5136 13.6371V25.9986V38.36L41.1641 39.0698C40.7157 39.9804 39.9851 40.7109 39.0742 41.1592L38.3643 41.5085H26H13.6357L12.9258 41.1592C12.0149 40.7109 11.2843 39.9804 10.8359 39.0698L10.4864 38.36V25.9986V13.6371L10.811 12.9782C11.3881 11.8063 12.2482 11.032 13.4277 10.6224C13.9128 10.454 14.7107 10.4441 26.1547 10.4656L38.3644 10.4886L39.0742 10.8379ZM14.5159 14.1394C13.9475 14.4542 13.8442 15.1463 14.2909 15.6461C14.6707 16.0712 15.2672 16.109 15.6673 15.7332C16.5282 14.9246 15.5478 13.5675 14.5159 14.1394ZM36.4666 14.1499C35.6057 14.6177 36.0046 15.976 37.0028 15.976C37.3385 15.976 37.4687 15.9152 37.7091 15.6461C38.4804 14.7831 37.4919 13.5928 36.4666 14.1499ZM19.4636 16.6486C18.3545 16.9152 17.4188 17.6899 16.9107 18.7621L16.5901 19.4386V25.9986V32.5585L16.905 33.2196C17.3049 34.0596 17.9388 34.6934 18.7686 35.0835C19.3293 35.3471 19.5718 35.397 20.4894 35.4378C21.3719 35.477 21.6145 35.4547 21.8849 35.309C22.3957 35.034 22.5636 34.5186 22.3179 33.9795C22.1266 33.5595 21.7415 33.4232 20.7407 33.4214C19.6679 33.4193 19.1688 33.1961 18.8065 32.5565L18.5772 32.1517V25.9986V19.8454L18.8065 19.4406C18.9351 19.2137 19.2136 18.9352 19.4406 18.8067L19.8454 18.5775H26H32.1546L32.5594 18.8067C32.7864 18.9352 33.0649 19.2137 33.1935 19.4406L33.4228 19.8454V25.9986V32.1517L33.1935 32.5565C32.8323 33.1942 32.3313 33.4193 31.2692 33.4214C30.2683 33.4232 29.9146 33.542 29.7055 33.9463C29.5212 34.3025 29.522 34.5792 29.7083 34.9393C29.9375 35.3825 30.3318 35.4902 31.5295 35.437C32.4268 35.397 32.6734 35.3458 33.2314 35.0835C34.0612 34.6934 34.6951 34.0596 35.095 33.2196L35.4099 32.5585V25.9986V19.4386L35.0893 18.7621C34.6825 17.9037 34.0968 17.318 33.2381 16.9113L32.5615 16.5909L26.2035 16.5738C22.7033 16.5644 19.6738 16.5981 19.4636 16.6486ZM25.644 33.5191C25.0251 33.7724 24.8291 34.6129 25.2775 35.0902C26.0823 35.9466 27.3848 35.0527 26.8957 33.9795C26.6925 33.5335 26.1219 33.3235 25.644 33.5191ZM14.539 36.1248C13.8854 36.4554 13.8244 37.4292 14.4339 37.8008C14.8928 38.0805 15.2572 38.0517 15.6452 37.705C16.511 36.9316 15.5783 35.5992 14.539 36.1248ZM36.6306 36.0617C36.2537 36.216 36.0248 36.571 36.0248 37.0012C36.0248 37.3342 36.0863 37.4652 36.3548 37.705C36.5362 37.8671 36.7962 37.9997 36.9326 37.9997C38.0217 37.9997 38.4057 36.581 37.4404 36.1231C37.0735 35.9491 36.9322 35.9384 36.6306 36.0617Z" fill="white"/>
</svg>
