<svg width="42" height="52" viewBox="0 0 42 52" fill="none" xmlns="http://www.w3.org/2000/svg">
<path fill-rule="evenodd" clip-rule="evenodd" d="M3.21854 0.0758116C1.65657 0.386798 0.377797 1.71215 0.0821683 3.32613C0.0132858 3.70236 -0.0123682 9.77747 0.00550888 21.467L0.0324759 39.0422L0.261141 39.6012C0.725543 40.7362 1.50133 41.5082 2.649 41.9773C3.12492 42.1718 3.40691 42.1903 6.41067 42.223L9.65784 42.2584L9.70309 44.3598C9.74289 46.2128 9.77521 46.5366 9.97589 47.0991C10.4645 48.469 11.6969 49.6744 13.0233 50.0797L13.7181 50.2921V50.8489C13.7181 51.3289 13.7589 51.4468 14.0133 51.7029L14.3085 52H20.9901H27.6717L27.9669 51.7029C28.2214 51.4468 28.2622 51.3289 28.2622 50.8489V50.2921L28.957 50.0797C30.2833 49.6744 31.5157 48.469 32.0043 47.0991C32.205 46.5366 32.2374 46.2128 32.2772 44.3598L32.3224 42.2584L35.5696 42.2224C38.6523 42.1883 38.8448 42.175 39.3722 41.9595C40.5473 41.4793 41.4752 40.4768 41.8061 39.3299C42.0179 38.5961 42.0179 3.61313 41.8061 2.87926C41.4757 1.7342 40.5524 0.735489 39.3722 0.246549L38.8167 0.0164599L21.2426 0.00131714C11.4383 -0.00711812 3.46963 0.0258099 3.21854 0.0758116ZM39.226 1.95006C39.5324 2.14072 39.8367 2.44683 40.0261 2.75517L40.3318 3.25265V21.1046V38.9566L40.0261 39.454C39.8367 39.7624 39.5324 40.0685 39.226 40.2591L38.7316 40.5667H20.9901H3.24864L2.75424 40.2591C2.44781 40.0685 2.14359 39.7624 1.95412 39.454L1.64849 38.9566L1.61879 21.3159C1.59859 9.361 1.62273 3.55754 1.69374 3.31038C1.86574 2.71066 2.33943 2.15139 2.92322 1.8587L3.45903 1.58999L21.0953 1.61631L38.7316 1.64253L39.226 1.95006ZM19.8286 4.09608C17.4892 4.36438 16.071 4.70829 14.4303 5.40517C10.5837 7.03886 7.50491 9.98063 5.73871 13.7101C3.48387 18.4713 3.50286 23.8961 5.79093 28.5744C8.2104 33.5214 12.6373 36.8873 18.0429 37.8898C19.4373 38.1485 22.0647 38.1969 23.3636 37.9879C28.2314 37.2047 32.2687 34.6706 35.0045 30.6815C37.0783 27.6577 38.1147 23.7457 37.8472 19.9508C37.2562 11.5627 30.854 4.94072 22.5556 4.13419C21.5809 4.03947 20.4586 4.02382 19.8286 4.09608ZM19.4693 6.43467C19.3146 6.91945 19.2326 7.48502 19.1991 8.29927C19.1294 9.98968 19.306 10.4705 20.6269 12.1856C21.4154 13.2094 21.4782 14.3832 20.8155 15.7139C20.5758 16.1952 20.4849 16.2858 20.1828 16.345C19.9888 16.383 19.821 16.4051 19.8102 16.3942C19.7993 16.3832 19.7216 16.0422 19.6375 15.6365C19.4303 14.6365 18.9251 13.6443 18.3091 13.0273C17.8197 12.5373 17.1881 12.185 16.1252 11.8094C15.4094 11.5563 14.7833 10.9404 14.3813 10.0941C14.0796 9.45856 13.7181 8.11908 13.7181 7.63644C13.7181 7.29039 16.4622 6.23284 18.1657 5.92226C19.0272 5.76524 19.5992 5.6882 19.6589 5.72103C19.6767 5.73089 19.5914 6.05204 19.4693 6.43467ZM23.1616 5.81118C24.684 6.04198 27.0461 6.74942 27.3868 7.07667C27.4331 7.12118 27.2336 7.38013 26.9436 7.6522C25.3256 9.17014 24.6967 10.898 25.0624 12.8218C25.3133 14.1416 25.038 15.0133 24.0943 15.8887C23.3862 16.5455 23.1595 16.6647 22.7616 16.5895C22.5689 16.5531 22.3875 16.4848 22.3586 16.4377C22.3296 16.3904 22.4005 16.0835 22.5161 15.7555C22.8168 14.9029 22.8838 13.4925 22.6605 12.7141C22.4565 12.003 22.2322 11.6096 21.5735 10.8073C21.3064 10.4819 21.02 10.0524 20.9372 9.85288C20.5752 8.98131 20.6541 7.72923 21.157 6.36414C21.414 5.66646 21.4225 5.6569 21.7846 5.65751C21.9865 5.65782 22.6061 5.72703 23.1616 5.81118ZM29.8876 8.52286C31.0726 9.36008 33.5142 11.8536 33.5142 12.2266C33.5142 12.2748 33.1686 12.3932 32.7461 12.4898C30.6751 12.9634 29.2875 14.128 28.6574 15.9215C28.3601 16.7675 28.0374 17.2623 27.5724 17.5855C27.0076 17.9779 26.4846 18.1649 25.6965 18.2558L24.9797 18.3387L24.7116 18.0224L24.4435 17.706L25.0861 17.1135C26.3049 15.9899 26.8436 14.7015 26.6897 13.2791C26.6443 12.8599 26.606 12.1282 26.6045 11.653C26.6016 10.6971 26.6856 10.4651 27.3662 9.54688C27.7368 9.04706 28.8849 7.99438 29.0596 7.99438C29.1035 7.99438 29.4761 8.2322 29.8876 8.52286ZM12.4286 9.27542C12.8993 11.3593 14.0567 12.7555 15.8391 13.3896C16.2002 13.5181 16.6656 13.7344 16.8732 13.8704C17.6012 14.3471 18.1245 15.448 18.1771 16.6134C18.1991 17.1014 18.1733 17.1752 17.9069 17.389L17.6124 17.6253L16.9897 16.9512C15.9138 15.7867 14.6531 15.228 13.3713 15.3476C11.2908 15.5417 11.2257 15.5422 10.7013 15.3669C10.4164 15.2718 9.91509 14.9951 9.58714 14.7522C8.84721 14.2042 7.92457 13.1148 8.01022 12.8903C8.1397 12.5508 9.21374 11.1441 9.85994 10.4677C10.5893 9.7043 11.9878 8.5066 12.1528 8.50406C12.2085 8.50324 12.3326 8.85031 12.4286 9.27542ZM34.8833 14.5405C35.561 16.0167 36.2357 18.4404 36.2396 19.4132C36.241 19.7458 36.2145 19.7945 36.0645 19.7348C35.4025 19.4712 34.2874 19.2753 33.4497 19.2753C32.1868 19.2753 31.4351 19.526 30.5194 20.2528C29.5022 21.0603 29.2808 21.1898 28.689 21.323C28.0114 21.4755 27.1418 21.3292 26.3468 20.9289C25.8486 20.678 25.7812 20.6059 25.7281 20.2677C25.6697 19.8962 25.6762 19.8869 26.0311 19.8297C27.3088 19.6238 28.6651 18.9287 29.2573 18.1762C29.5712 17.7774 29.9584 16.9992 30.2412 16.1985C30.6179 15.1316 31.7871 14.2913 33.3627 13.9549C34.5355 13.7043 34.4915 13.6874 34.8833 14.5405ZM7.62874 15.1225C8.25696 15.8005 9.3508 16.5711 10.0684 16.8413C10.8395 17.1316 11.7761 17.1897 12.7798 17.0096C14.1134 16.7703 14.9406 17.0359 15.8065 17.9811C16.4592 18.6936 16.5777 18.9217 16.503 19.3221C16.4668 19.516 16.3989 19.6986 16.3521 19.7276C16.3051 19.7568 16.0001 19.6854 15.6742 19.5691C14.8268 19.2665 13.4252 19.1991 12.6515 19.4239C11.9448 19.6291 11.5538 19.8548 10.7565 20.5176C10.4331 20.7864 10.0063 21.0745 9.80803 21.1579C8.93872 21.5234 7.69772 21.4427 6.32724 20.9316L5.61075 20.6643L5.67448 19.831C5.76124 18.6948 5.99596 17.5032 6.34088 16.4483C6.65721 15.4808 7.01647 14.6003 7.09485 14.6003C7.12242 14.6003 7.3626 14.8353 7.62874 15.1225ZM22.1699 18.0714C22.9545 18.3667 23.7111 19.128 24.0046 19.9175C24.8078 22.0777 23.2603 24.3567 20.9901 24.3567C19.2079 24.3567 17.7581 22.898 17.7581 21.1046C17.7581 18.8201 20.0228 17.263 22.1699 18.0714ZM14.779 20.9565C15.108 21.0428 15.56 21.2148 15.7834 21.3388C16.115 21.5228 16.2008 21.6337 16.2507 21.9426C16.3106 22.3132 16.3043 22.3222 15.9492 22.3795C14.6907 22.5824 13.3065 23.2916 12.7236 24.0321C12.4091 24.4318 12.0221 25.2095 11.7391 26.0107C11.484 26.7329 10.8949 27.3425 10.0502 27.7583C9.39292 28.0818 8.16 28.4219 7.6449 28.4219C7.23312 28.4219 6.20928 25.7708 5.89829 23.8994C5.63135 22.293 5.63296 22.3998 5.87769 22.4719C7.10091 22.8324 7.6854 22.9339 8.53593 22.9339C9.97963 22.9339 10.6462 22.6648 12.0516 21.5149C12.8844 20.8334 13.6842 20.6696 14.779 20.9565ZM34.3337 20.9004C34.6329 20.9558 35.2072 21.1205 35.61 21.2664C36.3304 21.5275 36.3422 21.5375 36.3422 21.8895C36.3422 22.5222 36.0365 24.3431 35.7776 25.2522C35.5036 26.2144 35.0322 27.4933 34.9276 27.5585C34.8916 27.5809 34.5246 27.2668 34.1123 26.8604C33.27 26.0302 32.34 25.4598 31.4472 25.2258C30.7006 25.0301 30.1438 25.027 29.1712 25.2132C27.9134 25.4538 27.0309 25.1638 26.1738 24.2281C25.521 23.5156 25.4025 23.2875 25.4773 22.8871C25.5134 22.6932 25.5787 22.5124 25.6222 22.4852C25.6658 22.4581 26.0521 22.548 26.4806 22.6849C27.7831 23.1011 29.3111 22.9846 30.2822 22.3951C30.4766 22.277 30.9038 21.9575 31.2316 21.685C32.225 20.8592 33.0219 20.6576 34.3337 20.9004ZM17.2677 24.1739L17.535 24.501L16.8637 25.1287C15.6431 26.2704 15.1362 27.4946 15.2895 28.9301C15.3343 29.3493 15.374 30.0582 15.3777 30.5053C15.3837 31.2052 15.3438 31.402 15.0914 31.9192C14.8029 32.5105 13.7528 33.6909 13.1904 34.0561C12.9238 34.2291 12.9039 34.2275 12.5423 34.0027C11.9232 33.6177 10.7552 32.6486 10.0463 31.9317C9.36605 31.2439 8.46603 30.1319 8.46603 29.9793C8.46603 29.933 8.81166 29.816 9.23414 29.7194C11.3052 29.2458 12.6927 28.0812 13.3229 26.2877C13.4505 25.9244 13.6634 25.4593 13.796 25.2542C14.2422 24.5642 15.1483 24.0816 16.2397 23.9531C16.6027 23.9103 16.9223 23.8689 16.9501 23.861C16.9779 23.8532 17.1208 23.9939 17.2677 24.1739ZM26.4619 26.4177C27.2939 26.8174 27.972 26.9389 28.8134 26.839C30.0723 26.6895 31.2004 26.7296 31.5952 26.9378C32.6049 27.4707 34.1023 28.972 33.97 29.3189C33.8203 29.7115 32.6848 31.1657 31.9301 31.9313C31.1276 32.7455 29.9796 33.7067 29.8099 33.7067C29.7639 33.7067 29.6476 33.3589 29.5516 32.9338C29.081 30.8499 27.9235 29.4537 26.1412 28.8196C25.7801 28.6911 25.3147 28.4748 25.107 28.3388C24.379 27.8621 23.8557 26.7612 23.8032 25.5958C23.7814 25.1109 23.8078 25.0333 24.0656 24.8264L24.3523 24.5964L25.1205 25.3693C25.609 25.8609 26.0973 26.2425 26.4619 26.4177ZM19.5938 25.7567C19.6409 25.8041 19.5801 26.1144 19.4587 26.4464C19.2814 26.9314 19.2369 27.2794 19.2321 28.2187C19.2247 29.6638 19.3995 30.1671 20.2869 31.2573C20.6236 31.6709 20.9653 32.1689 21.0464 32.3641C21.4049 33.2277 21.3243 34.4846 20.8233 35.8451C20.5687 36.5359 20.5545 36.5523 20.2086 36.5523C19.5811 36.5523 17.7707 36.2445 16.8682 35.9842C15.8697 35.6963 14.64 35.2327 14.5692 35.1175C14.543 35.0749 14.7562 34.8201 15.0428 34.5512C16.6544 33.0394 17.2829 31.3084 16.9179 29.3874C16.6335 27.891 16.993 27.0027 18.3054 25.9587C18.7367 25.6157 18.862 25.565 19.1596 25.6136C19.3513 25.6449 19.5467 25.7093 19.5938 25.7567ZM22.3427 26.5727C22.4268 26.9784 22.6454 27.6166 22.8285 27.9909C23.4066 29.1724 24.219 29.8201 25.8658 30.4122C26.5912 30.6731 27.1965 31.2679 27.5989 32.1152C27.9007 32.7506 28.2622 34.0901 28.2622 34.5728C28.2622 34.9204 25.5024 35.9822 23.8145 36.2839C22.3258 36.55 22.279 36.5508 22.35 36.3072C22.7061 35.0861 22.8081 34.4912 22.8081 33.6363C22.8081 32.1714 22.5898 31.6291 21.3533 30.0236C20.5648 28.9998 20.5022 27.8268 21.1648 26.4946C21.4089 26.0039 21.4898 25.9249 21.7981 25.8765C21.9926 25.846 22.1602 25.8242 22.1707 25.828C22.1812 25.8318 22.2587 26.167 22.3427 26.5727ZM12.118 44.2082L12.1526 46.1728L12.4581 46.6727C12.6367 46.9649 12.9597 47.2993 13.2354 47.4775C13.675 47.7616 13.7075 47.8122 13.7126 48.2211C13.7177 48.6303 13.7027 48.6552 13.4908 48.5894C12.6669 48.3336 11.8228 47.5198 11.5105 46.68C11.3172 46.1601 11.2941 45.892 11.2941 44.1707V42.2436H11.6888H12.0835L12.118 44.2082ZM16.1421 44.2762V46.3087H15.178C14.289 46.3087 14.1946 46.2893 13.966 46.0592C13.7216 45.8134 13.7181 45.7844 13.7181 44.0267V42.2436H14.9301H16.1421V44.2762ZM18.5661 44.2762V46.3087H18.1621H17.7581V44.2762V42.2436H18.1621H18.5661V44.2762ZM21.7981 44.2762V46.3087H20.9901H20.1821V44.2762V42.2436H20.9901H21.7981V44.2762ZM24.2221 44.2762V46.3087H23.8181H23.4141V44.2762V42.2436H23.8181H24.2221V44.2762ZM28.2622 44.0267C28.2622 45.7844 28.2586 45.8134 28.0142 46.0592C27.7857 46.2893 27.6912 46.3087 26.8022 46.3087H25.8382V44.2762V42.2436H27.0502H28.2622V44.0267ZM30.6862 44.1734C30.6862 46.2849 30.596 46.7394 30.0283 47.4884C29.7498 47.8557 28.8865 48.4754 28.4894 48.5928C28.2784 48.6551 28.2623 48.6284 28.263 48.2211C28.2637 47.817 28.2952 47.7643 28.6619 47.5536C28.8809 47.4278 29.1798 47.1669 29.3261 46.9738C29.7787 46.3768 29.8782 45.8327 29.8782 43.9551V42.2436H30.2822H30.6862V44.1734ZM26.6462 49.1544V50.3739H20.9901H15.3341V49.1544V47.9348H20.9901H26.6462V49.1544Z" fill="white"/>
</svg>
