<svg width="52" height="39" viewBox="0 0 52 39" fill="none" xmlns="http://www.w3.org/2000/svg">
<path fill-rule="evenodd" clip-rule="evenodd" d="M0 0.8125V1.625H1.625H3.25V3.25V4.875H2.4375H1.625V5.6875V6.5H2.4375H3.25V7.3125V8.125H2.30669C1.09627 8.125 0.571594 8.35473 0.228516 9.0352C0.00863282 9.47121 0 9.59034 0 12.1875C0 14.7847 0.00863282 14.9038 0.228516 15.3398C0.571594 16.0203 1.09627 16.25 2.30669 16.25H3.25V17.0625V17.875H2.4375H1.625V18.6875V19.5H2.4375H3.25V20.3125V21.125H2.4375H1.625V21.9375V22.75H2.4375H3.25V23.5625V24.375H2.30669C1.09627 24.375 0.571594 24.6047 0.228516 25.2852C0.00863282 25.7212 0 25.8403 0 28.4375C0 31.0347 0.00863282 31.1538 0.228516 31.5898C0.571594 32.2703 1.09627 32.5 2.30669 32.5H3.25V33.3125V34.125H2.4375H1.625V34.9375V35.75H2.42968H3.23426L3.26757 37.1186C3.31094 38.9069 3.3348 38.9367 4.75069 38.978C5.40698 38.9971 5.82349 38.963 5.99219 38.8764C6.13184 38.8047 6.66819 38.1167 7.18402 37.3474L8.12185 35.9487L8.14887 33.0447L8.17578 30.1408L9.49843 31.2029C10.2258 31.7871 10.9198 32.3179 11.0406 32.3825C11.1613 32.4471 11.6516 32.5 12.13 32.5H13V33.3125V34.125H12.1875H11.375V34.9453V35.7657L12.7436 35.7324C14.5973 35.6874 14.5624 35.7223 14.6074 33.8686L14.6407 32.5H16.2578H17.875V33.4433C17.875 34.6537 18.1047 35.1784 18.7852 35.5215C19.1699 35.7155 19.4006 35.75 20.3125 35.75C21.2244 35.75 21.4551 35.7155 21.8398 35.5215C22.5203 35.1784 22.75 34.6537 22.75 33.4433V32.5H23.5625H24.375V33.4433C24.375 34.6537 24.6047 35.1784 25.2852 35.5215L25.7384 35.75H32.5H39.2616L39.7148 35.5215C40.3953 35.1784 40.625 34.6537 40.625 33.4433V32.5H42.2401H43.8554L43.8905 33.4476C43.9222 34.2989 43.9545 34.4328 44.208 34.765C44.3632 34.9684 44.6566 35.2618 44.8599 35.417C45.2267 35.697 45.2435 35.6994 46.9898 35.7311L48.75 35.7631V34.944V34.125H47.2931C45.5424 34.125 45.5 34.1014 45.5 33.1267V32.5H48.0683C50.5298 32.5 50.6555 32.4905 51.0898 32.2715C51.4209 32.1045 51.6045 31.9209 51.7715 31.5898L52 31.1366L51.9978 19.5039C51.9956 8.25236 51.9891 7.85698 51.8005 7.44158C51.5991 6.99796 51.1648 6.65732 50.6584 6.54611L50.375 6.48385V5.54856C50.375 4.34698 50.1436 3.82088 49.4648 3.47852L49.0116 3.25H30.875H12.7384L12.2852 3.47852C11.6061 3.82098 11.375 4.34687 11.375 5.54988C11.375 6.37386 11.3522 6.4935 11.186 6.54631C11.082 6.57932 10.3622 7.08216 9.58638 7.6638L8.17578 8.72127L8.14877 5.88626L8.12185 3.05134L7.18392 1.65263C6.65976 0.870797 6.13407 0.198555 5.99219 0.128476C5.80907 0.0379843 4.93878 0.002539 2.86914 0.00152338L0 0V0.8125ZM5.88798 2.5352L6.5 3.4453V19.5V35.5547L5.88798 36.4648C5.46315 37.0966 5.21473 37.375 5.07548 37.375C4.87662 37.375 4.875 37.2295 4.875 19.5C4.875 1.77054 4.87662 1.625 5.07548 1.625C5.21473 1.625 5.46315 1.90338 5.88798 2.5352ZM48.75 5.6875V6.5H30.875H13V5.6875V4.875H30.875H48.75V5.6875ZM50.375 10.9687V13.8125H44.3989H38.4226L36.9581 12.7118C36.1526 12.1065 35.3943 11.558 35.273 11.493C35.1202 11.4113 34.1612 11.375 32.1512 11.375H29.25V12.1875V13H31.9761H34.7024L36.1669 14.1007C36.9724 14.706 37.7307 15.2545 37.852 15.3195C38.0126 15.4054 39.7447 15.4375 44.2238 15.4375H50.375V16.25V17.0625H46.3125H42.25V17.875V18.6875H46.3125H50.375V19.5V20.3125H46.3125H42.25V21.125V21.9375H46.3125H50.375V22.75V23.5625H43.8816C39.5739 23.5625 37.2933 23.5986 37.1065 23.6696C36.9515 23.7286 36.3177 24.277 35.698 24.8884L34.5714 26H31.9106H29.25V26.8125V27.625H32.0871C33.8309 27.625 35.0329 27.5838 35.206 27.5179C35.361 27.4589 35.9948 26.9105 36.6145 26.2991L37.7411 25.1875H44.0581H50.375V28.0312V30.875H43.875H37.375V31.6875V32.5H38.1875H39V33.3125V34.125H32.5H26V33.3125V32.5H30.875H35.75V31.6875V30.875L23.6895 30.8744L11.6289 30.8739L9.87797 29.4779L8.12703 28.082L8.13008 19.3984L8.13323 10.7148L9.8735 9.41992L11.6138 8.125H30.9944H50.375V10.9687ZM3.25 12.1875V14.625H2.4375H1.625V12.1875V9.75H2.4375H3.25V12.1875ZM18.2812 9.86355C14.582 10.2872 11.3728 12.9765 10.2259 16.6141C8.62479 21.6925 11.4976 27.161 16.6141 28.7741C20.0152 29.8464 23.8205 28.9052 26.3628 26.3628C29.6804 23.0452 30.1477 17.9109 27.4913 13.9648C25.9881 11.7318 23.3595 10.1681 20.5896 9.85928C19.5034 9.73812 19.3745 9.73842 18.2812 9.86355ZM47.125 10.5625V11.375H47.9375H48.75V10.5625V9.75H47.9375H47.125V10.5625ZM18.6641 13.4712L18.6367 15.5676L18.2283 15.6881C18.0038 15.7544 17.705 15.884 17.5644 15.976L17.3088 16.1435L15.84 14.672L14.3711 13.2005L14.6758 12.951C15.4198 12.342 17.0854 11.6464 18.2812 11.4454C18.4209 11.4218 18.5704 11.3964 18.6134 11.3888C18.6564 11.3812 18.6793 12.3183 18.6641 13.4712ZM21.7286 11.6942C22.518 11.9018 23.8019 12.5235 24.3242 12.951L24.6289 13.2005L23.16 14.672L21.6912 16.1435L21.4356 15.976C21.295 15.884 20.9962 15.7544 20.7717 15.6881L20.3633 15.5676L20.3359 13.4734L20.3084 11.3793L20.6405 11.4374C20.8232 11.4692 21.3129 11.5848 21.7286 11.6942ZM14.7031 15.8711C16.1376 17.3081 16.1483 17.3222 15.9824 17.559C15.8904 17.6905 15.7594 17.9866 15.6913 18.2173L15.5676 18.6367L13.4734 18.6641L11.3793 18.6916L11.4374 18.3595C11.5778 17.5564 11.9093 16.4962 12.2018 15.9149C12.529 15.2645 13.0903 14.4219 13.1962 14.4219C13.2294 14.4219 13.9075 15.074 14.7031 15.8711ZM26.1727 14.8535C26.8252 15.766 27.3331 17.0472 27.5626 18.3595L27.6207 18.6916L25.5266 18.6641L23.4324 18.6367L23.3087 18.2173C23.2406 17.9866 23.1096 17.6905 23.0176 17.559C22.8517 17.3222 22.8624 17.3081 24.2969 15.8711C25.0925 15.074 25.7706 14.4219 25.8038 14.4219C25.8369 14.4219 26.0029 14.6161 26.1727 14.8535ZM29.25 15.4375V16.25H31.1636H33.0774L34.5419 17.3507C35.3474 17.956 36.1057 18.5045 36.227 18.5695C36.3741 18.6482 37.1436 18.6875 38.5363 18.6875H40.625V17.875V17.0625H38.7114H36.7976L35.3331 15.9618C34.5276 15.3565 33.7693 14.808 33.648 14.743C33.5009 14.6643 32.7314 14.625 31.3387 14.625H29.25V15.4375ZM20.4671 17.2525C22.0475 17.9705 22.4329 20.0046 21.2187 21.2187C19.6871 22.7504 17.067 21.6657 17.067 19.5C17.067 18.1484 18.1484 17.067 19.5 17.067C19.8242 17.067 20.23 17.1449 20.4671 17.2525ZM30.875 19.5V20.3125H32.5H34.125V19.5V18.6875H32.5H30.875V19.5ZM15.6881 20.7717C15.7544 20.9962 15.884 21.295 15.976 21.4356L16.1435 21.6912L14.672 23.16L13.2005 24.6289L12.951 24.3242C12.3215 23.5552 11.6696 21.969 11.4374 20.6405L11.3793 20.3084L13.4734 20.3359L15.5676 20.3633L15.6881 20.7717ZM27.5622 20.6426C27.3306 21.9683 26.6781 23.5557 26.049 24.3242L25.7995 24.6289L24.3358 23.1677L22.872 21.7066L23.1157 21.2484C23.2497 20.9963 23.3594 20.7131 23.3594 20.619C23.3594 20.5249 23.3898 20.4174 23.4271 20.3802C23.4643 20.343 24.4229 20.3125 25.5574 20.3125H27.6199L27.5622 20.6426ZM36.0341 20.5525C35.8395 20.6845 35.0947 21.233 34.379 21.7712L33.0776 22.75H31.1638H29.25V23.5625V24.375H31.3387C32.7314 24.375 33.5009 24.3357 33.648 24.257C33.7693 24.192 34.5276 23.6435 35.3331 23.0382L36.7976 21.9375H38.7114H40.625V21.125V20.3125H38.5064C36.4466 20.3125 36.3779 20.3192 36.0341 20.5525ZM18.3066 23.3549L18.6875 23.4767V25.5484V27.6199L18.3574 27.5622C17.0317 27.3306 15.4443 26.6781 14.6758 26.049L14.3711 25.7995L15.8384 24.3296L17.3056 22.8597L17.6157 23.0465C17.7862 23.1491 18.0972 23.288 18.3066 23.3549ZM24.3242 26.0485C23.5567 26.6779 21.9697 27.3302 20.6405 27.5626L20.3084 27.6207L20.3359 25.5266L20.3633 23.4324L20.7827 23.3087C21.0134 23.2406 21.3098 23.1094 21.4415 23.0172C21.679 22.8509 21.6918 22.8606 23.1548 24.3242L24.6289 25.7987L24.3242 26.0485ZM3.25 28.4375V30.875H2.4375H1.625V28.4375V26H2.4375H3.25V28.4375ZM47.125 28.4375V29.25H47.9375H48.75V28.4375V27.625H47.9375H47.125V28.4375ZM21.125 33.3125V34.125H20.3125H19.5V33.3125V32.5H20.3125H21.125V33.3125Z" fill="white"/>
</svg>
