<svg width="40" height="52" viewBox="0 0 40 52" fill="none" xmlns="http://www.w3.org/2000/svg">
<path fill-rule="evenodd" clip-rule="evenodd" d="M0 26V52H19.8047H39.6094V26V0H19.8047H0V26ZM36.5625 26V48.9531H19.8047H3.04688V26V3.04688H19.8047H36.5625V26ZM6.09375 7.82031V9.34375H7.61719H9.14062V7.82031V6.29688H7.61719H6.09375V7.82031ZM30.4688 7.82031V9.34375H31.9922H33.5156V7.82031V6.29688H31.9922H30.4688V7.82031ZM18.6875 9.40428C16.7071 9.6393 15.1178 10.1019 13.5713 10.8935C9.80474 12.8215 7.1437 16.4009 6.34248 20.6172C6.10309 21.877 6.09527 24.176 6.32623 25.4473C6.63711 27.1592 7.49684 29.3049 8.41506 30.6601L8.7167 31.1053L8.11718 31.5057C7.04671 32.2205 6.38798 33.286 6.1812 34.637C6.08187 35.286 6.09009 35.5205 6.23533 36.1733C6.6367 37.9774 7.92888 39.2695 9.73294 39.6709C11.8232 40.136 13.8443 39.0774 14.8408 36.9955C15.0751 36.5059 15.28 36.0888 15.2961 36.0684C15.3122 36.0481 15.7962 36.1495 16.3717 36.2941C19.7029 37.1303 23.0066 36.7614 26.0381 35.2143C29.7994 33.2948 32.4656 29.709 33.2669 25.4922C33.5152 24.1855 33.5152 21.9239 33.2669 20.6172C32.2009 15.0079 27.7735 10.5702 22.2769 9.60192C21.3595 9.44034 19.3268 9.32831 18.6875 9.40428ZM21.6449 12.5397C26.7438 13.4327 30.4688 17.8715 30.4688 23.0547C30.4688 25.8324 29.4668 28.346 27.5494 30.3786C25.4895 32.5621 22.7698 33.7212 19.7152 33.7174C18.6792 33.7161 16.8199 33.4268 16.6547 33.2411C16.6151 33.1965 17.1554 31.8939 17.8555 30.3461L19.1282 27.5321L19.558 27.591C20.6183 27.7363 22.2726 27.0673 23.1242 26.1488C25.5797 23.5001 24.107 19.2207 20.5191 18.5795C18.1154 18.1499 15.7753 19.8457 15.3295 22.3403C15.0444 23.936 15.7689 25.7405 17.0703 26.6755C17.3523 26.878 17.5457 27.0801 17.5004 27.1246C17.3176 27.3041 11.5365 29.8555 11.4832 29.7803C11.4516 29.7357 11.2378 29.4267 11.0081 29.0938C8.02882 24.7757 8.65455 18.9195 12.4808 15.3099C14.9516 12.9791 18.3273 11.9587 21.6449 12.5397ZM20.7009 21.8035C21.3307 22.2651 21.5075 23.3346 21.0558 23.9509C20.5942 24.5807 19.5248 24.7575 18.9085 24.3058C18.2787 23.8442 18.1019 22.7748 18.5535 22.1585C19.0151 21.5287 20.0846 21.3519 20.7009 21.8035ZM13.7109 32.2315C13.7109 32.3681 11.9335 36.1437 11.7986 36.2936C11.1886 36.9716 9.96521 36.8921 9.41291 36.1384C9.14621 35.7745 9.07227 34.9579 9.27123 34.5732C9.51691 34.0983 9.70013 33.9842 11.6797 33.0751C13.4875 32.2449 13.7109 32.1521 13.7109 32.2315ZM6.09375 44.3828V45.9062H7.61719H9.14062V44.3828V42.8594H7.61719H6.09375V44.3828ZM12.1875 44.3828V45.9062H19.8047H27.4219V44.3828V42.8594H19.8047H12.1875V44.3828ZM30.4688 44.3828V45.9062H31.9922H33.5156V44.3828V42.8594H31.9922H30.4688V44.3828Z" fill="white"/>
</svg>
