<svg width="52" height="48" viewBox="0 0 52 48" fill="none" xmlns="http://www.w3.org/2000/svg">
<path fill-rule="evenodd" clip-rule="evenodd" d="M2.63343 0.125417C1.68265 0.423726 0.741314 1.26838 0.317322 2.20348C0.116122 2.64724 0.0820697 2.95521 0.0437204 4.67095L0 6.63138H0.697486H1.39486L1.43837 4.88579C1.48564 2.9854 1.57275 2.62994 2.12479 2.08285C2.2943 1.91495 2.57908 1.69742 2.7575 1.59945C3.05678 1.43531 4.86586 1.42145 26.0164 1.42145C47.167 1.42145 48.9761 1.43531 49.2754 1.59945C49.7341 1.85114 50.1872 2.32487 50.3892 2.76422C50.5451 3.10303 50.565 4.59682 50.5909 17.8838L50.6197 32.6273H26.0183H1.41699V21.1332L1.39486 6.63138H0.697486H0L0.0457614 23.4159L0.074228 37.1927L0.375115 37.8372C0.765913 38.6746 1.39196 39.304 2.21008 39.682L2.86718 39.9857L11.1118 40.0151L19.3563 40.0445V41.5225V43.0004L18.1996 43.1234C16.1786 43.3382 15.1538 43.887 14.5492 45.0782C14.267 45.6342 14.2001 45.8935 14.2001 46.4309C14.2001 47.5594 12.9486 47.4514 26.0351 47.4514C39.267 47.4514 37.9021 47.5862 37.8091 46.2883C37.6744 44.4055 36.4074 43.397 33.8333 43.1234L32.6766 43.0004V41.52V40.0394H40.7219C48.4942 40.0394 48.7909 40.032 49.4707 39.8221C50.4066 39.533 51.2119 38.81 51.6466 37.8685L51.9587 37.1927L51.9873 20.2202C52.0156 3.44892 52.0133 3.23913 51.7986 2.53047C51.5239 1.62373 50.7772 0.763606 49.8844 0.325113L49.2731 0.0249784L26.1776 0.00478323C7.38972 -0.0116522 2.99834 0.0109064 2.63343 0.125417ZM50.6159 35.2002C50.6159 36.7899 50.4787 37.2864 49.872 37.8931C49.4874 38.2777 49.2431 38.4244 48.8374 38.5142C48.0869 38.6804 3.94601 38.6804 3.19546 38.5142C2.78984 38.4244 2.54545 38.2777 2.16088 37.8931C1.55417 37.2864 1.41699 36.7899 1.41699 35.2002V34.1312H26.0164H50.6159V35.2002ZM23.1161 36.3333V37.0316H26.0164H28.9168V36.3333V35.6351H26.0164H23.1161V36.3333ZM31.2801 41.5433V43.0472H26.0164H20.7528V41.5433V40.0394H26.0164H31.2801V41.5433ZM34.0567 44.5932C34.4317 44.6257 34.992 44.7684 35.3017 44.9102C35.8211 45.148 36.3289 45.6557 36.3289 45.9372C36.3289 46.0218 33.4198 46.055 26.0164 46.055C18.6131 46.055 15.704 46.0218 15.704 45.9372C15.704 45.6526 16.2146 45.1467 16.7487 44.9021C17.1666 44.7108 17.6062 44.6168 18.3161 44.5667C19.4838 44.4846 33.0686 44.5073 34.0567 44.5932Z" fill="white"/>
</svg>
