<svg width="52" height="52" viewBox="0 0 52 52" fill="none" xmlns="http://www.w3.org/2000/svg">
<path fill-rule="evenodd" clip-rule="evenodd" d="M20.8271 0.179063C20.456 0.381828 20.2414 0.827688 20.2414 1.39555V1.86127H16.6005H12.9597L12.7386 2.09812C12.3459 2.51921 12.4907 3.09107 13.0388 3.2835C13.2495 3.3575 14.5515 3.3966 16.8012 3.3966H20.2414V3.96969C20.2414 4.28484 20.3135 4.69579 20.4016 4.883C20.6742 5.46141 21.004 5.54606 22.9853 5.54606C25.379 5.54606 25.6128 5.42098 25.7073 4.08995L25.7566 3.3966H27.0132H28.27V4.06549C28.27 4.52332 28.3246 4.81841 28.4431 5.00071C28.8009 5.55046 28.7408 5.54606 35.9496 5.54606C43.3486 5.54606 43.1341 5.56499 43.4555 4.883C43.5436 4.69579 43.6157 4.28484 43.6157 3.96969V3.3966H46.5479C49.4271 3.3966 49.4863 3.4008 49.8254 3.62895C50.0153 3.75668 50.2507 4.02158 50.3483 4.21749C50.5159 4.55331 50.5261 5.85026 50.5261 26.9383C50.5261 48.0263 50.5159 49.3233 50.3483 49.6591C50.2507 49.855 50.0153 50.1199 49.8254 50.2476L49.48 50.48L27.1116 50.4796C4.85983 50.4793 4.74143 50.4782 4.40698 50.2728C3.97892 50.01 3.68125 49.3583 3.67831 48.678L3.67607 48.1554L4.33401 48.0936C5.09683 48.0218 5.42407 47.8398 5.64907 47.3623C5.88352 46.8646 5.89135 39.3727 5.65781 38.8772C5.44195 38.419 5.14408 38.26 4.38746 38.1992L3.72689 38.1462L3.70117 21.4266C3.67607 5.08699 3.67993 4.69682 3.87211 4.25925C4.2275 3.45013 4.41185 3.39742 6.88761 3.39701C9.18845 3.3966 9.57555 3.33314 9.7597 2.92607C9.92129 2.56885 9.90595 2.43978 9.66468 2.13098L9.45411 1.86127H7.07704C4.3271 1.86127 3.92099 1.94909 3.14314 2.71194C2.61945 3.22567 2.37636 3.71093 2.2482 4.49876C2.1916 4.84718 2.15257 11.8102 2.15227 21.6414L2.15166 38.1974H1.5048C0.787408 38.1974 0.442281 38.3833 0.167886 38.9178C-0.0582351 39.3582 -0.0548814 46.8664 0.171545 47.3472C0.378764 47.787 0.826636 48.0333 1.53772 48.0982L2.12767 48.152L2.19719 48.955C2.32412 50.4201 3.06173 51.4523 4.2709 51.8568C4.70119 52.0007 7.05712 52.0144 27.3079 51.9907L49.8658 51.9641L50.2949 51.7332C50.9679 51.371 51.409 50.9243 51.7165 50.2939L52 49.7123V26.9383V4.16426L51.7165 3.58268C51.409 2.95227 50.9679 2.5056 50.2949 2.14336C49.8805 1.92033 49.7592 1.91142 46.7408 1.88143L43.6157 1.85032V1.39013C43.6157 0.815507 43.3964 0.375789 43.0093 0.17415C42.574 -0.0525672 29.327 -0.0605509 28.8927 0.165654C28.4552 0.393497 28.3249 0.617655 28.27 1.23731L28.2191 1.81009L26.9742 1.83885L25.7293 1.86762V1.44489C25.7293 0.861055 25.4755 0.373742 25.0709 0.180291C24.5951 -0.04704 21.2427 -0.0480635 20.8271 0.179063ZM24.2048 2.78247V4.01073H22.9853H21.7658V2.78247V1.5542H22.9853H24.2048V2.78247ZM42.0913 2.78247V4.01073H35.892H29.6927V2.78247V1.5542H35.892H42.0913V2.78247ZM8.2797 5.43961C7.91435 5.66387 7.69971 6.02754 7.59768 6.5952L7.52867 6.97903H6.82927C6.19471 6.97903 6.11036 7.00401 5.9193 7.24874C5.80344 7.39705 5.70862 7.59808 5.70862 7.69552C5.70862 7.79296 5.80344 7.99398 5.9193 8.1423C6.11056 8.38734 6.1944 8.412 6.83395 8.412H7.53792V9.3332V10.2544H6.92145C6.20396 10.2544 5.94115 10.3683 5.8008 10.7401C5.56319 11.3695 6.06127 11.7897 7.04493 11.7897H7.53792V12.6482V13.5066L6.82683 13.5472C5.99013 13.5948 5.7696 13.7537 5.7696 14.3092C5.7696 14.8613 6.07123 15.0651 6.88862 15.0651H7.53792V15.9351V16.8051H7.04493C6.38292 16.8051 5.96412 16.9665 5.82428 17.2757C5.66269 17.6329 5.67803 17.7619 5.9193 18.0708C6.11056 18.3158 6.1944 18.3405 6.83395 18.3405H7.53792V19.2617V20.1829H6.83395C6.1944 20.1829 6.11056 20.2075 5.9193 20.4526C5.67742 20.7622 5.66259 20.8902 5.82641 21.2525C5.95964 21.5469 6.42662 21.7167 7.106 21.7176L7.53792 21.7182V22.5882V23.4582H6.92145C6.58242 23.4582 6.21442 23.507 6.10355 23.5668C5.80964 23.7253 5.67468 24.1521 5.81249 24.4873C5.96005 24.8461 6.30121 24.9935 6.98374 24.9935H7.53792V25.8636V26.7336H6.98374C6.30121 26.7336 5.96005 26.8811 5.81249 27.2398C5.67468 27.575 5.80964 28.0019 6.10355 28.1603C6.21442 28.2201 6.58242 28.2689 6.92145 28.2689H7.53792V29.1901V30.1113H6.83395C6.1944 30.1113 6.11056 30.136 5.9193 30.381C5.65354 30.7212 5.65354 30.9343 5.9193 31.2746C6.10995 31.5187 6.19542 31.5443 6.82073 31.5443H7.5117L7.57786 32.1338C7.65154 32.7893 7.87837 33.2099 8.31446 33.4995C8.58306 33.6779 8.83906 33.6924 11.7047 33.6927C14.6003 33.6929 14.8257 33.6798 15.1296 33.4931C15.5442 33.2386 15.7719 32.7929 15.8433 32.0957L15.8998 31.5443H16.5896C17.2138 31.5443 17.2995 31.5186 17.49 31.2746C17.7558 30.9343 17.7558 30.7212 17.49 30.381C17.2987 30.136 17.2149 30.1113 16.5754 30.1113H15.8714V29.1901V28.2689H16.5365C17.1074 28.2689 17.2372 28.2333 17.4512 28.0176C18.0736 27.3909 17.5536 26.7336 16.4354 26.7336H15.8714V25.8751V25.0167L16.595 24.9754C17.2013 24.9409 17.3497 24.8957 17.5096 24.6967C17.7707 24.3719 17.7493 24.0096 17.4512 23.7095C17.2372 23.4938 17.1074 23.4582 16.5365 23.4582H15.8714V22.5882V21.7182H16.3644C17.0264 21.7182 17.4452 21.5568 17.585 21.2477C17.7466 20.8904 17.7313 20.7614 17.49 20.4526C17.2987 20.2075 17.2149 20.1829 16.5754 20.1829H15.8714V19.2617V18.3405H16.5754C17.2149 18.3405 17.2987 18.3158 17.49 18.0708C18.021 17.3909 17.5039 16.8051 16.3729 16.8051H15.8714V15.9351V15.0651H16.5365C17.1074 15.0651 17.2372 15.0295 17.4512 14.8138C17.7493 14.5137 17.7707 14.1514 17.5096 13.8266C17.3497 13.6276 17.2013 13.5824 16.595 13.5479L15.8714 13.5066V12.6482V11.7897H16.3729C17.5039 11.7897 18.021 11.2039 17.49 10.5241C17.2987 10.2791 17.2149 10.2544 16.5754 10.2544H15.8714V9.3377V8.42101L16.5977 8.39092C17.2488 8.3639 17.3449 8.33268 17.5256 8.08825C17.6629 7.90268 17.7067 7.73349 17.663 7.55805C17.5467 7.09172 17.3373 6.97903 16.5868 6.97903H15.894L15.8232 6.59878C15.7185 6.03706 15.4955 5.66428 15.1296 5.43961C14.8257 5.25291 14.6 5.23971 11.7047 5.23971C8.80928 5.23971 8.58357 5.25291 8.2797 5.43961ZM14.322 19.4408L14.2962 32.2096H11.7047H9.11315L9.08703 19.5687C9.0726 12.6162 9.08266 6.87033 9.10918 6.79991C9.14618 6.70216 9.77017 6.67197 11.7527 6.67197H14.3478L14.322 19.4408ZM24.6505 8.67987C23.6042 9.05367 22.871 10.1389 22.871 11.314C22.871 12.9016 23.9084 14.0202 25.4746 14.1215C26.1092 14.1625 26.2934 14.1331 26.7664 13.915C28.9991 12.8855 29.022 9.79841 26.8046 8.75858C26.2014 8.47567 25.3131 8.44322 24.6505 8.67987ZM34.0098 8.75571C31.8591 9.76432 31.767 12.7189 33.8521 13.8112C35.2235 14.5298 36.8113 14.0706 37.5944 12.7289C37.8433 12.3026 37.8738 12.1497 37.8738 11.3291C37.8738 10.5085 37.8433 10.3556 37.5944 9.92932C36.8581 8.66789 35.291 8.15479 34.0098 8.75571ZM43.8184 8.60392C42.4373 9.05991 41.6065 10.475 41.8958 11.8782C42.0754 12.7497 42.6075 13.4696 43.3617 13.8611C43.9455 14.1643 45.0059 14.2233 45.6203 13.987C46.266 13.7387 47.0163 13.0146 47.2441 12.4199C47.4688 11.8334 47.4716 10.7603 47.2497 10.2401C47.0309 9.72706 46.4053 9.05398 45.9093 8.79778C45.4603 8.56595 44.268 8.4554 43.8184 8.60392ZM26.3472 10.2243C26.9004 10.5535 27.115 11.4236 26.7825 11.9903C26.5479 12.3904 26.1287 12.6086 25.5943 12.6086C24.4226 12.6086 23.9127 11.0856 24.8254 10.3121C25.199 9.99554 25.895 9.95532 26.3472 10.2243ZM35.8601 10.2493C36.2225 10.4718 36.3692 10.6952 36.4011 11.0732C36.4559 11.7226 36.3941 11.9249 36.0372 12.2638C35.7353 12.5506 35.597 12.6086 35.2145 12.6086C34.4102 12.6086 33.8595 12.0886 33.8595 11.3291C33.8595 10.3055 34.973 9.70454 35.8601 10.2493ZM45.4305 10.309C46.064 10.8458 46.0874 11.7646 45.4811 12.3008C45.0091 12.7181 44.2914 12.7373 43.8286 12.3451C42.8857 11.546 43.4094 10.0497 44.632 10.0497C45.0108 10.0497 45.1952 10.1096 45.4305 10.309ZM26.1729 16.3058C25.6544 16.5703 25.5487 17.3863 25.977 17.8176C26.5614 18.4063 27.5586 17.9938 27.5586 17.1634C27.5586 16.4917 26.7678 16.0023 26.1729 16.3058ZM43.2204 16.3339C43.0868 16.4084 42.9169 16.5795 42.8429 16.714C42.3246 17.6557 43.5702 18.591 44.3271 17.8287C44.7662 17.3864 44.6571 16.6223 44.1146 16.3397C43.7656 16.1579 43.5382 16.1565 43.2204 16.3339ZM33.9611 16.3546C31.9388 16.7301 30.4771 17.3881 29.1686 18.512C25.1318 21.9793 24.7865 28.1077 28.4076 32.0209C29.641 33.3539 31.4891 34.3952 33.2708 34.7611C34.8324 35.0818 36.8632 34.9253 38.392 34.3664C39.9497 33.7969 41.6709 32.4714 42.6535 31.0844C43.2495 30.2433 43.8699 28.9138 44.1346 27.9107C44.4303 26.7905 44.4563 24.7674 44.1899 23.6229C43.3851 20.1644 40.8152 17.478 37.4673 16.5955C36.6789 16.3876 34.565 16.2424 33.9611 16.3546ZM37.4673 18.1726C43.0093 19.9798 44.7207 26.9763 40.6277 31.0925C39.6847 32.0408 38.6752 32.6842 37.5818 33.034C35.1118 33.8239 32.6839 33.432 30.5566 31.8999C28.2197 30.2168 27.0092 27.2373 27.5011 24.3794C28.0518 21.1812 30.3975 18.7033 33.5574 17.982C34.5853 17.7474 36.4407 17.8378 37.4673 18.1726ZM34.9266 18.4086C33.5373 18.6207 33.0536 19.1304 32.8315 20.6158C32.7452 21.193 32.7521 21.6067 32.862 22.4603C32.981 23.3841 32.9816 23.5606 32.866 23.5606C32.654 23.5606 31.3468 22.9263 30.5802 22.4513C29.8152 21.9774 29.2757 21.899 28.7854 22.1907C28.3771 22.4336 28.2654 22.6745 28.1078 23.6523C27.6854 26.2728 28.166 27.5222 29.7436 27.9047C30.1604 28.0058 31.8554 27.9855 32.5383 27.8713C32.8457 27.8199 33.1122 27.792 33.1304 27.8093C33.2039 27.8793 32.5382 29.3178 32.0829 30.0732C31.5286 30.9927 31.4231 31.464 31.6654 31.9361C31.9075 32.4074 32.2131 32.5634 33.2163 32.7274C36.6849 33.2946 37.8534 32.1843 37.4219 28.7315C37.3537 28.1861 37.3195 27.7183 37.3457 27.6918C37.4353 27.6016 38.6851 28.1707 39.4998 28.6728C39.947 28.9485 40.4362 29.205 40.5869 29.2429C40.9416 29.3322 41.4932 29.1462 41.7776 28.8414C42.2018 28.3866 42.4698 25.8243 42.199 24.8117C42.0489 24.2503 41.6401 23.7791 41.0908 23.5344C40.4956 23.2693 39.2674 23.1935 38.1212 23.3513C37.614 23.4211 37.1814 23.4604 37.1598 23.4386C37.0828 23.361 37.7941 21.8438 38.2619 21.0879C38.6061 20.5317 38.7376 20.2141 38.7376 19.9388C38.7376 19.4473 38.5016 18.9951 38.1515 18.8158C37.6625 18.5653 35.6033 18.3053 34.9266 18.4086ZM36.9286 20.06C36.9707 20.1024 36.7205 20.7212 36.3724 21.4351L35.7396 22.7329L35.0639 22.7373L34.3882 22.7417L34.3171 22.0285C34.2457 21.3118 34.3136 20.4364 34.4592 20.1992C34.5022 20.1291 34.6707 20.0286 34.8336 19.9759C35.1589 19.8705 36.8061 19.9366 36.9286 20.06ZM30.4549 24.1473C30.8462 24.3737 31.4179 24.6605 31.7253 24.7845L32.2842 25.01L32.2898 25.7079L32.2954 26.4056L31.4768 26.4739C30.5536 26.551 29.8138 26.4247 29.6194 26.1568C29.4239 25.8877 29.4814 23.5935 29.6808 23.7016C29.7153 23.7204 30.0637 23.9209 30.4549 24.1473ZM35.7873 24.408C36.1871 24.6118 36.5018 25.1677 36.5018 25.6704C36.5018 26.4469 35.6862 27.1397 34.9386 26.9985C34.3044 26.8786 33.7578 26.2562 33.7578 25.6538C33.7578 25.2373 34.0631 24.6833 34.4103 24.4701C34.7687 24.2499 35.4196 24.2206 35.7873 24.408ZM40.4623 24.9199C40.8049 25.0945 40.9178 25.7145 40.7867 26.7024C40.7309 27.1231 40.6663 27.4864 40.6431 27.5097C40.62 27.5331 40.2442 27.3473 39.8081 27.097C39.3721 26.8467 38.7961 26.5625 38.5283 26.4656L38.0415 26.2893L38.0084 25.5938C37.9697 24.7795 37.8983 24.8233 39.2965 24.8043C39.8511 24.7967 40.3101 24.8423 40.4623 24.9199ZM35.9314 28.8758C36.025 29.4454 36.0032 30.431 35.8878 30.8495C35.7977 31.1758 35.7313 31.2391 35.4163 31.2986C35.0784 31.3625 33.371 31.2912 33.2903 31.2098C33.2708 31.1902 33.5534 30.5781 33.9182 29.8496L34.5814 28.5248L35.2264 28.5175L35.8713 28.5102L35.9314 28.8758ZM26.1008 33.5026C25.8488 33.6501 25.6244 34.2179 25.6978 34.522C25.9711 35.6537 27.5586 35.4423 27.5586 34.2743C27.5586 33.5905 26.7142 33.1435 26.1008 33.5026ZM43.059 33.617C42.9045 33.7521 42.7717 34.0001 42.7375 34.2171C42.6886 34.5265 42.727 34.6409 42.9729 34.9182C43.21 35.1854 43.3443 35.2495 43.6665 35.2495C43.9888 35.2495 44.123 35.1854 44.3601 34.9182C44.6061 34.6409 44.6445 34.5265 44.5956 34.2171C44.5205 33.7412 44.1238 33.3867 43.6665 33.3867C43.4551 33.3867 43.2206 33.4756 43.059 33.617ZM9.91032 36.4594C8.53621 36.7402 7.62684 37.8604 7.62684 39.2721C7.62684 41.9025 10.7404 43.1129 12.5721 41.1944C13.2837 40.4492 13.5015 39.0294 13.0484 38.0894C12.4776 36.9054 11.1364 36.2087 9.91032 36.4594ZM16.8606 36.4652C16.4703 36.559 15.8468 36.8605 15.5589 37.0947C15.1864 37.3977 14.7579 38.1438 14.6469 38.6823C14.0717 41.4726 17.541 43.3094 19.4994 41.2514C20.5311 40.1672 20.5067 38.284 19.4475 37.2446C18.7895 36.599 17.6869 36.2667 16.8606 36.4652ZM22.4421 37.7704C22.2107 38.028 22.2287 38.5612 22.4772 38.8115C22.6782 39.014 22.8159 39.0162 35.1649 39.0162C47.547 39.0162 47.6508 39.0145 47.8345 38.8102C47.9363 38.6969 48.0196 38.4672 48.0196 38.2997C48.0196 38.1323 47.9363 37.9026 47.8345 37.7893C47.6508 37.5849 47.547 37.5832 35.1298 37.5832C23.1301 37.5832 22.6033 37.591 22.4421 37.7704ZM10.9203 38.0306C11.5062 38.282 11.7483 38.6454 11.7483 39.2735C11.7483 39.7463 11.7046 39.8752 11.4556 40.1368C11.059 40.5537 10.6068 40.6947 10.104 40.5584C8.8292 40.2127 8.78327 38.3752 10.0399 37.9961C10.4588 37.8698 10.5543 37.8736 10.9203 38.0306ZM17.7939 37.9902C19.0949 38.3661 19.0828 40.2042 17.7769 40.5584C17.2756 40.6944 16.822 40.5539 16.4291 40.1409C16.1949 39.8946 16.139 39.7418 16.1329 39.3321C16.1241 38.738 16.3627 38.3429 16.8949 38.0696C17.3008 37.8611 17.3361 37.8581 17.7939 37.9902ZM4.28584 43.1616V46.5905H2.91386H1.54189V43.1616V39.7327H2.91386H4.28584V43.1616ZM22.4772 42.1892C22.2033 42.4651 22.2087 43.0192 22.4879 43.2737C22.6953 43.4628 23.07 43.4696 34.9118 43.499C43.2282 43.5196 47.2396 43.495 47.4908 43.4218C48.1214 43.2381 48.2494 42.3933 47.6924 42.0931C47.5536 42.0183 43.6355 41.9845 35.0857 41.9845C22.8159 41.9845 22.6782 41.9868 22.4772 42.1892ZM9.53978 43.4567C8.17441 43.9693 7.40692 45.3016 7.66221 46.7162C7.83376 47.6666 8.30511 48.2915 9.18388 48.7338C11.0996 49.6979 13.292 48.3248 13.2744 46.1719C13.2616 44.6045 12.1511 43.4383 10.5867 43.3492C10.1772 43.3259 9.77932 43.3667 9.53978 43.4567ZM16.5526 43.4627C15.1562 43.9644 14.3616 45.3356 14.6517 46.743C15.038 48.6174 17.0049 49.5854 18.697 48.7338C19.5758 48.2915 20.0472 47.6666 20.2187 46.7162C20.6047 44.5774 18.5429 42.7477 16.5526 43.4627ZM11.2069 45.0841C11.4289 45.2343 11.6056 45.4719 11.7015 45.7494C11.8328 46.1291 11.8328 46.2331 11.7015 46.6127C11.2297 47.9768 9.19415 47.7277 9.13764 46.299C9.0913 45.1302 10.2604 44.4438 11.2069 45.0841ZM18.1382 45.0411C18.5784 45.3335 18.7404 45.6385 18.7404 46.1752C18.7404 47.0008 18.2341 47.5117 17.4159 47.5117C16.8596 47.5117 16.3663 47.1529 16.1794 46.6127C16.0481 46.2331 16.0481 46.1291 16.1794 45.7494C16.456 44.9495 17.4559 44.588 18.1382 45.0411ZM22.7821 46.4584C22.2468 46.6566 22.0926 47.3336 22.4964 47.7124C22.7025 47.9059 22.848 47.9211 24.4847 47.9211C25.5353 47.9211 26.3324 47.8771 26.4522 47.8125C26.9396 47.5498 26.8938 46.738 26.3782 46.5014C26.1221 46.3838 23.0815 46.3475 22.7821 46.4584ZM29.8252 46.5083C29.3602 46.7345 29.3721 47.6729 29.8422 47.8546C30.149 47.9732 47.4701 47.9324 47.6924 47.8125C48.1798 47.5498 48.134 46.738 47.6183 46.5014C47.2743 46.3435 30.1501 46.3502 29.8252 46.5083Z" fill="white"/>
</svg>
