<svg width="52" height="30" viewBox="0 0 52 30" fill="none" xmlns="http://www.w3.org/2000/svg">
<path fill-rule="evenodd" clip-rule="evenodd" d="M1.47535 0.29392C1.11438 0.450738 0.634789 0.881378 0.409515 1.25067C0.0105627 1.90537 0 2.24643 0 14.6182C0 26.9945 0.0103592 27.3308 0.410124 27.9863C1.21859 29.3126 -0.185257 29.2437 26.0438 29.2433C48.3181 29.2431 49.9139 29.22 50.5785 28.8879C52.0431 28.1564 51.9999 28.5905 51.9999 14.6182C51.9999 0.645948 52.0431 1.08004 50.5785 0.348562C49.9135 0.016237 48.3254 -0.00610729 25.9995 0.00100235C5.96559 0.00729945 2.02604 0.0544264 1.47535 0.29392ZM50.1723 1.82087C50.5696 2.21819 50.5785 2.49791 50.5785 14.6182C50.5785 26.7385 50.5696 27.0182 50.1723 27.4155C49.7707 27.8171 49.4952 27.8218 25.9995 27.8218C2.50381 27.8218 2.22836 27.8171 1.82677 27.4155C1.42944 27.0182 1.4205 26.7385 1.4205 14.6182C1.4205 2.49791 1.42944 2.21819 1.82677 1.82087C2.22836 1.41927 2.50381 1.4146 25.9995 1.4146C49.4952 1.4146 49.7707 1.41927 50.1723 1.82087ZM3.56538 3.56455C3.37829 3.75164 3.27632 4.03745 3.33848 4.19975C3.40084 4.36205 3.45183 4.53309 3.45183 4.57981C3.45183 4.62653 3.6832 4.66472 3.96596 4.66472C4.54631 4.66472 4.838 4.16298 4.53615 3.6844C4.24242 3.21882 3.94747 3.18246 3.56538 3.56455ZM13.0807 3.44003C8.7741 4.09331 5.2784 7.01659 3.84326 11.165C3.4825 12.2078 3.38642 12.9336 3.38642 14.6182C3.38642 16.3028 3.4825 17.0286 3.84326 18.0715C5.49636 22.8497 9.74101 25.8809 14.7257 25.8425C17.8901 25.8181 20.6248 24.6284 22.7681 22.3437C24.8502 20.1239 25.7964 17.7105 25.7964 14.6182C25.7964 11.5779 24.8311 9.07351 22.8246 6.9071C20.4504 4.34377 16.4669 2.92652 13.0807 3.44003ZM47.5397 3.53774C47.1722 3.98057 47.3701 4.55401 47.9169 4.63161C48.6685 4.73846 48.9734 4.10428 48.4312 3.56191C48.0353 3.16621 47.8521 3.16113 47.5397 3.53774ZM16.046 4.87699C17.3026 5.07606 19.753 6.1029 20.6096 6.78948C20.9941 7.09784 20.9235 7.19555 18.6799 9.45174C16.3968 11.7473 16.3367 11.791 15.6398 11.647C14.7488 11.4627 13.6875 11.5148 13.219 11.7652C12.9336 11.918 12.6834 11.7766 11.9919 11.0721C11.4601 10.5304 11.1822 10.0922 11.2749 9.9421C11.6549 9.32722 13.2883 8.86164 14.991 8.88297C16.3505 8.90003 16.7022 8.84214 16.8007 8.58497C17.0138 8.02981 16.5472 7.61542 15.5467 7.47181C13.9203 7.238 12.007 7.68956 10.5143 8.65952L9.95938 9.02008L9.14319 8.22319C8.69427 7.78483 8.32701 7.31702 8.32701 7.18376C8.32701 6.86282 10.0418 5.77403 11.1796 5.37264C11.9872 5.08764 13.5863 4.75085 14.421 4.68991C14.5886 4.67772 15.3198 4.76182 16.046 4.87699ZM31.2442 5.18149C28.0546 6.1874 27.6855 10.8605 30.6752 12.3856C31.4128 12.762 31.878 12.79 37.3733 12.79C43.9264 12.79 44.1415 12.7549 45.2384 11.5054C45.8315 10.8298 46.3105 9.67965 46.3105 8.9305C46.3105 8.18805 45.8342 7.03405 45.2559 6.3755C44.0348 4.98465 43.981 4.97429 37.7812 4.92554C33.3265 4.8906 32.0025 4.9424 31.2442 5.18149ZM32.7029 8.94248V11.3681H32.0732C31.6279 11.3681 31.2412 11.1658 30.7528 10.6774C30.1507 10.0754 30.0622 9.85597 30.0622 8.96645C30.0622 8.16571 30.1751 7.81185 30.5869 7.3225C31.0719 6.74581 32.1947 6.23757 32.5505 6.43319C32.6342 6.4793 32.7029 7.60831 32.7029 8.94248ZM40.7837 8.87972L40.8408 11.3681H37.4828H34.1248V8.82386V6.27962L37.4257 6.33548L40.7266 6.39134L40.7837 8.87972ZM44.0034 7.12729C44.7013 7.78301 44.9733 8.77612 44.6899 9.63476C44.409 10.4859 43.4177 11.3681 42.7423 11.3681H42.2501V8.84315V6.31822L42.892 6.50225C43.2451 6.60341 43.7452 6.88475 44.0034 7.12729ZM36.2744 8.38529C36.0733 8.53236 35.9424 8.82934 35.9837 9.04547C36.0471 9.37699 36.2616 9.44788 37.3585 9.49968C38.5793 9.55716 38.9854 9.40725 38.9969 8.89414C39.0124 8.20288 37.0306 7.83237 36.2744 8.38529ZM8.10031 9.21123L8.97398 10.1014L8.45518 10.8871C7.0359 13.037 7.07896 16.4397 8.55167 18.508L8.988 19.1206L8.10742 20.0181C7.62295 20.5115 7.16387 20.9153 7.08709 20.9153C6.82525 20.9153 5.68913 18.9559 5.25219 17.7503C4.92149 16.8378 4.81627 16.0826 4.81627 14.6182C4.81627 13.1538 4.92149 12.3986 5.25219 11.4861C5.68913 10.2805 6.82525 8.3211 7.08709 8.3211C7.16387 8.3211 7.6199 8.72168 8.10031 9.21123ZM22.6881 8.98271C22.9339 9.34509 23.3909 10.1899 23.7037 10.8603C24.2319 11.9911 24.2729 12.2623 24.2729 14.6182C24.2729 16.9741 24.2319 17.2453 23.7037 18.3762C23.0129 19.8562 22.3159 20.9121 22.0289 20.9139C21.9119 20.9147 21.463 20.5535 21.0311 20.1113L20.246 19.3073L20.9391 18.0292C21.6025 16.8055 21.6322 16.6601 21.6322 14.6182C21.6322 12.5763 21.6025 12.4309 20.9391 11.2072L20.246 9.9291L21.0311 9.1251C21.463 8.68288 21.9119 8.32171 22.0289 8.32253C22.1459 8.32334 22.4425 8.62032 22.6881 8.98271ZM11.5857 13.774C11.4181 14.3968 11.4181 14.8396 11.5857 15.4624C11.8119 16.3028 11.8087 16.3111 10.8989 17.2209L9.98477 18.135L9.56713 17.4482C8.59494 15.8498 8.59494 13.3866 9.56713 11.7882L9.98477 11.1014L10.8989 12.0155C11.8087 12.9253 11.8119 12.9336 11.5857 13.774ZM19.7839 12.0874C20.5726 13.6074 20.4256 16.4446 19.4944 17.6664L19.1085 18.173L18.1651 17.2348C17.3449 16.419 17.2512 16.2418 17.4466 15.877C17.7349 15.3381 17.7361 13.9003 17.4485 13.3629C17.2565 13.0043 17.3469 12.8233 18.1021 12.0537C18.5842 11.5625 19.0668 11.1901 19.1747 11.2261C19.2825 11.2621 19.5568 11.6496 19.7839 12.0874ZM15.7791 13.4348C16.8157 14.4086 16.0956 16.2433 14.6769 16.2433C13.7407 16.2433 13.2855 15.9619 13.0283 15.2244C12.7823 14.5185 13.0108 13.66 13.5548 13.2471C14.0915 12.8396 15.2494 12.9373 15.7791 13.4348ZM14.2532 17.6997C14.6247 17.7198 15.2487 17.6695 15.6398 17.5876C16.2947 17.4507 16.4196 17.5094 17.2258 18.3335L18.1009 19.2281L17.6321 19.533C16.7515 20.1058 15.539 20.3756 13.9842 20.3447C12.3742 20.3128 12.0362 20.4906 12.3169 21.2218C12.4317 21.5211 12.6147 21.5865 13.9593 21.8099C14.9605 21.9765 16.8356 21.559 18.0705 20.8948L19.1808 20.2974L20.0953 21.2119C20.9854 22.102 20.999 22.1347 20.61 22.4465C19.7351 23.1477 17.2955 24.162 15.9953 24.3651C14.5067 24.5979 12.7293 24.4106 11.1552 23.8552C10.0579 23.4681 8.32701 22.3726 8.32701 22.0652C8.32701 21.9391 9.34856 20.8113 10.597 19.5592C12.4561 17.6949 12.9314 17.3172 13.2223 17.4728C13.4177 17.5774 13.8817 17.6796 14.2532 17.6997ZM36.0276 18.4314C35.3241 19.0014 35.1405 19.5797 35.1405 21.2261C35.1405 23.9544 35.7789 24.3657 40.0157 24.3671C42.9603 24.3682 43.7521 24.1075 44.3318 22.9466C45.0338 21.5414 44.6694 19.1178 43.6483 18.4028C42.929 17.8988 36.6559 17.9226 36.0276 18.4314ZM39.1605 21.1692L39.1016 22.8451L38.246 22.9072C36.8115 23.0112 36.5624 22.7506 36.5624 21.1451C36.5624 20.3857 36.6233 19.7032 36.6979 19.6289C36.7722 19.5543 37.3703 19.4934 38.0264 19.4934H39.2196L39.1605 21.1692ZM43.0555 19.8862C43.1711 20.1024 43.2658 20.6965 43.2658 21.2066C43.2658 22.4514 42.7744 22.9466 41.5392 22.9466H40.6251V21.22V19.4934H41.7352C42.6247 19.4934 42.8869 19.5714 43.0555 19.8862ZM3.38256 24.8654C3.113 25.5681 3.85159 26.2173 4.40147 25.761C4.56032 25.6292 4.6629 25.3306 4.62959 25.0974C4.55402 24.5684 3.567 24.3848 3.38256 24.8654ZM47.4639 24.7072C47.2344 24.9367 47.3138 25.5256 47.6073 25.7692C48.1438 26.2142 48.8838 25.5622 48.6208 24.8764C48.5031 24.5699 47.7162 24.4547 47.4639 24.7072Z" fill="white"/>
</svg>
