<svg width="52" height="22" viewBox="0 0 52 22" fill="none" xmlns="http://www.w3.org/2000/svg">
<path fill-rule="evenodd" clip-rule="evenodd" d="M0.379438 0.135778C0.0715 0.369677 0 0.824068 0 2.54789C0 4.73504 0.0937422 4.99473 0.93082 5.12859C1.65527 5.24447 1.9891 6.12522 1.48718 6.59668C1.35555 6.72038 1.08398 6.84814 0.883797 6.88064C0.422805 6.9555 0.127664 7.2284 0.0508828 7.651C0.017875 7.83279 0.00426563 10.3453 0.0208203 13.2346L0.0507812 18.4877L0.275336 18.7122C0.443016 18.8798 0.655281 18.9479 1.11323 18.9811L1.72656 19.0254V19.8613C1.72656 20.7892 1.85687 21.2908 2.13677 21.4406C2.25357 21.5031 5.33812 21.5401 10.4366 21.5401H18.5505L18.7714 21.3051C18.9682 21.0954 18.9922 20.9578 18.9922 20.0355V19.001H19.897H20.8018L20.8365 20.0766C20.8682 21.063 20.891 21.1682 21.1109 21.3461C21.3443 21.535 21.7247 21.5401 35.5141 21.5401C44.5584 21.5401 49.7446 21.5041 49.8632 21.4406C50.1431 21.2908 50.2734 20.7892 50.2734 19.8613V19.0254L50.8868 18.9811C51.3447 18.9479 51.557 18.8798 51.7247 18.7122L51.9492 18.4877L51.9792 13.2346C51.9957 10.3453 51.9821 7.83279 51.9491 7.651C51.8723 7.2284 51.5772 6.9555 51.1162 6.88064C50.916 6.84814 50.6444 6.72038 50.5128 6.59668C50.0109 6.12522 50.3447 5.24447 51.0692 5.12859C51.9057 4.99483 52 4.73433 52 2.55642C52 0.788723 51.9152 0.282435 51.5898 0.108255C51.2883 -0.0531275 0.592312 -0.0259091 0.379438 0.135778ZM50.2734 2.58354V3.53315L49.7721 3.84484C48.1674 4.84239 48.1895 7.23652 49.8121 8.18745L50.2734 8.45781V12.8661V17.2745H26H1.72656V12.8661V8.45781L2.18786 8.18745C3.81672 7.23286 3.83358 4.89459 2.21914 3.8485L1.72656 3.52929V2.58161V1.63383H26H50.2734V2.58354ZM5.47666 3.72398L5.23047 3.98591L5.19888 8.37047C5.17695 11.4072 5.20234 12.8745 5.28145 13.1437C5.47381 13.7983 5.6745 13.8353 8.83573 13.8006L11.5621 13.7705L11.824 13.5244L12.0859 13.2781V8.61929V3.96052L11.8366 3.71129L11.5874 3.46195H8.65516H5.72295L5.47666 3.72398ZM14.1634 3.71129L13.9141 3.96052V8.61929V13.2781L14.176 13.5244L14.4379 13.7705L17.1643 13.8006C20.3255 13.8353 20.5262 13.7983 20.7185 13.1437C20.7977 12.8745 20.8231 11.4072 20.8011 8.37047L20.7695 3.98591L20.5233 3.72398L20.2771 3.46195H17.3448H14.4126L14.1634 3.71129ZM22.8541 3.66254C22.7438 3.77283 22.6278 3.96702 22.5963 4.09418C22.565 4.22123 22.5524 6.34633 22.5684 8.81663L22.5977 13.308L22.829 13.5393C23.0591 13.7692 23.0765 13.7705 26 13.7705C28.9235 13.7705 28.9409 13.7692 29.171 13.5393L29.4023 13.308L29.4316 8.81663C29.4476 6.34633 29.435 4.22123 29.4037 4.09418C29.3722 3.96702 29.2562 3.77283 29.1459 3.66254C28.9554 3.47201 28.7972 3.46195 26 3.46195C23.2028 3.46195 23.0446 3.47201 22.8541 3.66254ZM31.4767 3.72398L31.2305 3.98591L31.1989 8.37047C31.1769 11.4072 31.2023 12.8745 31.2815 13.1437C31.4738 13.7983 31.6745 13.8353 34.8357 13.8006L37.5621 13.7705L37.824 13.5244L38.0859 13.2781V8.61929V3.96052L37.8366 3.71129L37.5874 3.46195H34.6552H31.7229L31.4767 3.72398ZM40.1634 3.71129L39.9141 3.96052V8.61929V13.2781L40.176 13.5244L40.4379 13.7705L43.1643 13.8006C46.3255 13.8353 46.5262 13.7983 46.7185 13.1437C46.7977 12.8745 46.8231 11.4072 46.8011 8.37047L46.7695 3.98591L46.5233 3.72398L46.2771 3.46195H43.3448H40.4126L40.1634 3.71129ZM10.4369 8.61625L10.4636 12.0948H8.68491H6.90625V8.58842V5.08218L8.6582 5.1099L10.4102 5.13773L10.4369 8.61625ZM19.0938 8.59086V12.0948H17.3164H15.5391V8.6586C15.5391 6.76862 15.5695 5.19187 15.6068 5.15469C15.644 5.11742 16.4438 5.08695 17.3841 5.08695H19.0938V8.59086ZM27.7266 8.59086V12.0948H26H24.2734V8.59086V5.08695H26H27.7266V8.59086ZM36.4369 8.61625L36.4636 12.0948H34.6849H32.9062V8.58842V5.08218L34.6582 5.1099L36.4102 5.13773L36.4369 8.61625ZM45.0938 8.59086V12.0948H43.3164H41.5391V8.6586C41.5391 6.76862 41.5695 5.19187 41.6068 5.15469C41.644 5.11742 42.4438 5.08695 43.3841 5.08695H45.0938V8.59086ZM17.3672 19.458V19.9151H10.4102H3.45312V19.458V19.001H10.4102H17.3672V19.458ZM48.5469 19.458V19.9151H35.5469H22.5469V19.458V19.001H35.5469H48.5469V19.458Z" fill="white"/>
</svg>
