<svg width="52" height="52" viewBox="0 0 52 52" fill="none" xmlns="http://www.w3.org/2000/svg">
<path fill-rule="evenodd" clip-rule="evenodd" d="M39.1189 0.150225C38.9513 0.236346 38.3283 0.789834 37.7344 1.38009L36.6545 2.45314L36.2938 2.33412C35.4607 2.0592 36.5934 0.989191 17.6755 19.9208C3.53366 34.0731 0.169867 37.4894 0.0721691 37.7991C0.00138349 38.0233 -0.0201467 38.3601 0.0201716 38.6116C0.0835436 39.0071 0.292549 39.2452 2.65721 41.6166L5.2255 44.1921L5.66911 44.1334C5.91305 44.1011 6.31572 44.0447 6.56393 44.0081C7.44129 43.8787 8.07947 44.5169 7.95009 45.3942C7.91343 45.6424 7.85716 46.0443 7.82497 46.2872L7.76637 46.7291L10.2909 49.2542C12.5592 51.5229 12.8633 51.7918 13.2867 51.9025C14.2454 52.1533 13.2931 53.0375 29.2424 37.0863C42.6351 23.6919 43.8413 22.4584 43.8413 22.1563C43.8413 21.7284 43.5338 21.4208 43.1059 21.4208C42.8038 21.4208 41.5763 22.6211 28.2526 35.9436C20.2643 43.9311 13.6823 50.4663 13.6257 50.4663C13.5692 50.4663 13.0307 49.9725 12.429 49.369L11.3351 48.2716L11.5848 47.8202C12.2288 46.6562 12.3878 44.9443 11.9762 43.6069C11.593 42.3616 10.6226 41.133 9.51336 40.4888C7.90632 39.5555 5.70191 39.5081 4.13792 40.3733L3.6865 40.623L2.58917 39.5292C1.98561 38.9274 1.49184 38.3887 1.49184 38.3318C1.49184 38.2749 9.24952 30.4718 18.7312 20.9914C32.3685 7.35594 36.0024 3.77471 36.123 3.8521C36.3868 4.0214 37.0691 3.96351 37.4344 3.74089L37.781 3.52955L40.1561 5.90468L42.5313 8.27991L42.2114 8.88387C41.9274 9.42019 41.8974 9.55496 41.9442 10.0875C42.0095 10.8317 42.3811 11.4027 43.0194 11.7397C43.773 12.1375 44.7749 12.0307 45.395 11.4866C45.5657 11.3368 45.6699 11.4188 47.0029 12.7519L48.4284 14.1774L48.2172 14.5239C47.9955 14.8875 47.9387 15.5212 48.1007 15.8238C48.1795 15.9712 47.939 16.258 46.7227 17.4675C44.8627 19.3171 44.7178 19.5645 45.2078 20.0544C45.7022 20.5489 45.8552 20.4592 47.7727 18.5531C49.6957 16.6414 49.8614 16.3836 49.6258 15.6694L49.5084 15.3139L50.6704 14.1268C51.9497 12.8199 52.1096 12.5061 51.8284 11.8544C51.612 11.3526 47.7993 7.60902 47.5048 7.60902C47.3396 7.60902 46.8258 8.0445 45.7675 9.0816C44.7832 10.0462 44.1902 10.5542 44.0484 10.5542C43.7178 10.5542 43.3058 10.0931 43.3891 9.81617C43.4267 9.69146 44.0922 8.94602 44.8681 8.15976C46.0347 6.97733 46.2787 6.67855 46.2787 6.43257C46.2787 6.17807 45.8501 5.70735 43.3082 3.17004C41.6744 1.53913 40.2089 0.157029 40.0517 0.098532C39.6654 -0.0451719 39.4784 -0.0348131 39.1189 0.150225ZM40.1643 2.0528L40.5919 2.48849L40.1347 2.93717L39.6775 3.38585L39.2203 2.93717L38.7631 2.48849L39.1906 2.0528C39.4258 1.81313 39.6449 1.61712 39.6775 1.61712C39.7101 1.61712 39.9291 1.81313 40.1643 2.0528ZM42.1161 4.91652L41.666 5.37516L41.2303 4.9476C40.9906 4.71239 40.7946 4.48551 40.7946 4.44327C40.7946 4.40102 40.9889 4.18409 41.2262 3.96107L41.6579 3.55555L42.112 4.00667L42.5663 4.45779L42.1161 4.91652ZM44.0445 6.84734L43.593 7.30729L43.136 6.85028L42.679 6.39327L43.1304 5.93332L43.5819 5.47336L44.0389 5.93037L44.4959 6.38738L44.0445 6.84734ZM32.7821 8.66806C31.0415 10.4015 30.9029 10.5666 30.9029 10.9038C30.9029 11.3686 31.1436 11.6104 31.6061 11.6104C31.9357 11.6104 32.1001 11.4773 33.5129 10.0667C34.3633 9.21769 35.1044 8.52304 35.16 8.52304C35.2923 8.52304 41.5055 14.7392 41.5055 14.8716C41.5055 14.9275 40.0658 16.4122 38.3062 18.1712L35.107 21.3693L31.8848 18.147L28.6625 14.9248L29.1322 14.4406C29.3904 14.1743 29.6332 13.8513 29.6717 13.7229C29.7593 13.4308 29.5051 13.0188 29.1552 12.8858C28.8004 12.7509 28.4835 12.9375 27.7247 13.7285C27.0753 14.4052 26.9139 14.7357 27.0342 15.1424C27.0726 15.272 28.8017 17.0806 30.8767 19.1613C34.9046 23.2001 34.9533 23.2389 35.5775 22.9101C35.7379 22.8256 37.5258 21.0937 39.5505 19.0615L43.232 15.3664V14.9168V14.4671L39.3967 10.6319L35.5615 6.79656H35.1114C34.6634 6.79656 34.6532 6.80468 32.7821 8.66806ZM47.9785 9.86867L48.4003 10.3003L47.996 10.7319C47.7735 10.9694 47.5609 11.1635 47.5234 11.1635C47.4136 11.1635 46.685 10.4212 46.685 10.3093C46.685 10.2008 47.3959 9.43705 47.4969 9.43705C47.5298 9.43705 47.7465 9.63123 47.9785 9.86867ZM34.9043 10.3195C34.8205 10.3492 33.8037 11.3163 32.6446 12.4686C30.7071 14.3951 30.5373 14.5924 30.5373 14.9176C30.5373 15.2424 30.7095 15.4435 32.6473 17.3813C34.5702 19.3041 34.7881 19.4912 35.1045 19.4912C35.4206 19.4912 35.6406 19.3033 37.5552 17.3964C38.75 16.2067 39.6779 15.2013 39.7032 15.0692C39.7275 14.9414 39.6911 14.7072 39.622 14.5489C39.4829 14.2297 35.6187 10.3511 35.4398 10.3511C35.3778 10.3511 35.2662 10.3319 35.1919 10.3083C35.1174 10.2849 34.9881 10.2898 34.9043 10.3195ZM49.9348 12.7377L49.4834 13.1976L49.0264 12.7406L48.5694 12.2836L49.0208 11.8237L49.4722 11.3637L49.9292 11.8207L50.3862 12.2777L49.9348 12.7377ZM36.58 13.4994L37.999 14.9212L36.58 16.343L35.1608 17.7649L33.7123 16.3189L32.2638 14.873L33.6589 13.4753C34.4261 12.7065 35.0779 12.0775 35.1074 12.0775C35.1368 12.0775 35.7995 12.7174 36.58 13.4994ZM25.104 16.4342C24.6203 16.7388 22.6373 18.801 22.5164 19.125C22.3242 19.6395 22.5385 19.9838 23.8708 21.3009C25.0829 22.4993 25.1359 22.538 25.5616 22.538C25.9893 22.538 26.0374 22.502 27.3543 21.1981C29.2563 19.3147 29.2567 19.3505 27.312 17.4347C26.2425 16.3812 26.0602 16.2414 25.7547 16.2418C25.5643 16.242 25.2715 16.3285 25.104 16.4342ZM42.6227 17.7648C42.3633 18.0241 42.354 18.588 42.6053 18.8154C43.047 19.2151 43.8413 18.8776 43.8413 18.2902C43.8413 17.6837 43.0464 17.341 42.6227 17.7648ZM26.4469 18.5997C26.7974 18.9472 27.0843 19.2796 27.0843 19.3385C27.0843 19.3974 26.7412 19.7864 26.3219 20.203L25.5594 20.9604L24.8256 20.2266L24.0918 19.4929L24.8493 18.7304C25.2659 18.311 25.6523 17.9679 25.708 17.9679C25.7638 17.9679 26.0963 18.2522 26.4469 18.5997ZM40.6982 19.6698C40.4197 19.8953 40.3909 20.4323 40.6426 20.7102C40.8852 20.9784 41.4404 20.9782 41.7086 20.7099C41.9831 20.4354 41.9644 20.0425 41.6624 19.7406C41.3692 19.4473 41.006 19.4206 40.6982 19.6698ZM17.616 23.8348L14.5928 26.8579V27.3119V27.7658L19.3926 32.5656L24.1924 37.3654H24.6463H25.1002L28.1234 34.3421L31.1466 31.3189V30.865V30.4111L26.3468 25.6113L21.547 20.8115H21.0932H20.6392L17.616 23.8348ZM28.2727 22.1151C27.2696 23.1288 26.9828 23.4788 26.9828 23.6892C26.9828 24.0627 27.3151 24.366 27.7241 24.366C28.0188 24.366 28.2147 24.2088 29.349 23.0624C30.3521 22.0487 30.6389 21.6987 30.6389 21.4883C30.6389 21.1149 30.3066 20.8115 29.8976 20.8115C29.6029 20.8115 29.407 20.9687 28.2727 22.1151ZM38.834 21.5337C38.7332 21.5924 38.6054 21.7593 38.5501 21.9048C38.314 22.5259 38.9766 23.1018 39.5728 22.7935C40.0534 22.545 40.1226 22.0598 39.7328 21.6702C39.4696 21.4068 39.1384 21.3566 38.834 21.5337ZM25.332 26.6252C27.5805 28.8731 29.4202 30.7579 29.4202 30.8137C29.4202 30.9464 24.7301 35.6389 24.5975 35.6389C24.4647 35.6389 16.3192 27.496 16.3192 27.3632C16.3192 27.2304 21.0093 22.538 21.1419 22.538C21.198 22.538 23.0835 24.3772 25.332 26.6252ZM30.2023 24.0447C29.3805 24.8752 28.9124 25.4251 28.9124 25.5597C28.9124 25.9089 29.023 26.092 29.3296 26.2505C29.7855 26.4862 30.1422 26.2642 31.4259 24.9458C32.3799 23.9661 32.5685 23.7208 32.5685 23.4598C32.5685 23.0467 32.2533 22.7411 31.8272 22.7411C31.5325 22.7411 31.3366 22.8983 30.2023 24.0447ZM36.9045 23.4633C36.6237 23.6266 36.4992 24.0484 36.6349 24.376C36.8733 24.9515 37.7388 24.9748 37.953 24.4116C38.2156 23.7209 37.5289 23.1 36.9045 23.4633ZM20.8386 24.3638C20.5382 24.4917 18.1785 26.9189 18.1014 27.1792C18.0638 27.3062 18.1002 27.5253 18.1858 27.6869C18.3979 28.088 20.581 30.2258 20.8994 30.3444C21.4313 30.5426 21.9881 29.9858 21.7897 29.4539C21.7356 29.3087 21.2716 28.767 20.7586 28.2501L19.826 27.3102L20.4596 26.6765L21.0932 26.043L23.5041 28.454L25.9151 30.865L25.2884 31.4917L24.6617 32.1184L24.2954 31.7967C23.6532 31.2329 22.9205 31.4343 22.9205 32.1747C22.9205 32.4311 23.0367 32.6256 23.4522 33.065C24.0671 33.7151 24.4618 33.9506 24.779 33.8568C25.0574 33.7744 27.4741 31.4059 27.5979 31.0942C27.6537 30.9537 27.6487 30.758 27.5848 30.5864C27.4659 30.2664 21.894 24.6309 21.4784 24.4101C21.1692 24.246 21.1232 24.2426 20.8386 24.3638ZM32.2046 25.9018C31.5197 26.5788 30.9329 27.2384 30.9005 27.3672C30.7523 27.9576 31.3089 28.4525 31.863 28.223C32.013 28.1608 32.6673 27.5718 33.3169 26.9141C34.3221 25.8963 34.498 25.6704 34.498 25.3975C34.498 24.9824 34.1862 24.6707 33.7708 24.6707C33.4967 24.6707 33.2681 24.8503 32.2046 25.9018ZM12.8155 28.7428C12.477 28.9353 6.97392 34.4495 6.80787 34.7626C6.47273 35.3948 6.45303 35.371 11.5205 40.4322C14.6227 43.5305 16.3627 45.1969 16.5404 45.2397C16.69 45.2757 16.9185 45.2733 17.0482 45.2342C17.334 45.1481 22.9732 39.5678 23.1907 39.1557C23.5246 38.5232 23.544 38.5466 18.4743 33.4778C14.3583 29.3624 13.6761 28.7207 13.3709 28.6774C13.1772 28.6499 12.9272 28.6794 12.8155 28.7428ZM17.487 34.5216L21.6498 38.6853L19.2136 41.123L16.7775 43.5607L12.5878 39.372L8.39806 35.1831L10.8091 32.7705C12.1352 31.4436 13.2436 30.3579 13.2722 30.3579C13.3009 30.3579 15.1974 32.2315 17.487 34.5216ZM11.5666 33.54C10.3752 34.7433 10.2258 34.9325 10.2258 35.2393C10.2258 35.5564 10.4747 35.8334 13.2997 38.6584C16.1395 41.4982 16.4004 41.7324 16.7231 41.7324C17.0361 41.7324 17.2135 41.5915 18.4224 40.3826C19.6313 39.1736 19.7722 38.9963 19.7722 38.6833C19.7722 38.3605 19.538 38.0996 16.6983 35.2599C13.8285 32.3903 13.6004 32.1859 13.2658 32.1859C12.9405 32.1859 12.7832 32.3114 11.5666 33.54ZM17.4119 39.3704L16.78 40.008L14.3671 37.5967L11.9542 35.1854L12.5861 34.5479L13.218 33.9103L15.6309 36.3216L18.0438 38.7328L17.4119 39.3704ZM3.92922 37.5685C3.48968 38.008 3.81426 38.7872 4.43701 38.7872C4.82791 38.7872 5.14791 38.4672 5.14791 38.0763C5.14791 37.6854 4.82791 37.3654 4.43701 37.3654C4.26771 37.3654 4.04205 37.4557 3.92922 37.5685ZM8.4199 41.6025C9.77254 42.2355 10.6265 43.4946 10.7127 44.983C10.7437 45.5191 10.7069 45.9322 10.5942 46.3111C10.3248 47.2172 10.2964 47.231 9.77528 46.7087C9.3198 46.2521 9.31949 46.2513 9.4241 45.7947C9.85683 43.9064 8.05175 42.1013 6.16349 42.534C5.7076 42.6386 5.70536 42.6376 5.25435 42.1892C5.00573 41.9419 4.83339 41.7083 4.87158 41.6702C4.90966 41.6321 5.18163 41.5151 5.47594 41.4102C6.31451 41.1112 7.54152 41.1915 8.4199 41.6025Z" fill="white"/>
</svg>
