<svg width="272" height="54" viewBox="0 0 272 54" fill="none" xmlns="http://www.w3.org/2000/svg">
<path d="M67.548 30.1L76.692 40H71.148L63.804 31.468V40H59.7V13.36H63.804V28.84L71.004 20.164H76.692L67.548 30.1ZM88.2376 40.324C86.3656 40.324 84.6736 39.904 83.1616 39.064C81.6496 38.2 80.4616 37 79.5976 35.464C78.7336 33.904 78.3016 32.104 78.3016 30.064C78.3016 28.048 78.7456 26.26 79.6336 24.7C80.5216 23.14 81.7336 21.94 83.2696 21.1C84.8056 20.26 86.5216 19.84 88.4176 19.84C90.3136 19.84 92.0296 20.26 93.5656 21.1C95.1016 21.94 96.3136 23.14 97.2016 24.7C98.0896 26.26 98.5336 28.048 98.5336 30.064C98.5336 32.08 98.0776 33.868 97.1656 35.428C96.2536 36.988 95.0056 38.2 93.4216 39.064C91.8616 39.904 90.1336 40.324 88.2376 40.324ZM88.2376 36.76C89.2936 36.76 90.2776 36.508 91.1896 36.004C92.1256 35.5 92.8816 34.744 93.4576 33.736C94.0336 32.728 94.3216 31.504 94.3216 30.064C94.3216 28.624 94.0456 27.412 93.4936 26.428C92.9416 25.42 92.2096 24.664 91.2976 24.16C90.3856 23.656 89.4016 23.404 88.3456 23.404C87.2896 23.404 86.3056 23.656 85.3936 24.16C84.5056 24.664 83.7976 25.42 83.2696 26.428C82.7416 27.412 82.4776 28.624 82.4776 30.064C82.4776 32.2 83.0176 33.856 84.0976 35.032C85.2016 36.184 86.5816 36.76 88.2376 36.76ZM112.599 19.84C114.159 19.84 115.551 20.164 116.775 20.812C118.023 21.46 118.995 22.42 119.691 23.692C120.387 24.964 120.735 26.5 120.735 28.3V40H116.667V28.912C116.667 27.136 116.223 25.78 115.335 24.844C114.447 23.884 113.235 23.404 111.699 23.404C110.163 23.404 108.939 23.884 108.027 24.844C107.139 25.78 106.695 27.136 106.695 28.912V40H102.591V20.164H106.695V22.432C107.367 21.616 108.219 20.98 109.251 20.524C110.307 20.068 111.423 19.84 112.599 19.84ZM144.15 29.596C144.15 30.34 144.102 31.012 144.006 31.612H128.85C128.97 33.196 129.558 34.468 130.614 35.428C131.67 36.388 132.966 36.868 134.502 36.868C136.71 36.868 138.27 35.944 139.182 34.096H143.61C143.01 35.92 141.918 37.42 140.334 38.596C138.774 39.748 136.83 40.324 134.502 40.324C132.606 40.324 130.902 39.904 129.39 39.064C127.902 38.2 126.726 37 125.862 35.464C125.022 33.904 124.602 32.104 124.602 30.064C124.602 28.024 125.01 26.236 125.826 24.7C126.666 23.14 127.83 21.94 129.318 21.1C130.83 20.26 132.558 19.84 134.502 19.84C136.374 19.84 138.042 20.248 139.506 21.064C140.97 21.88 142.11 23.032 142.926 24.52C143.742 25.984 144.15 27.676 144.15 29.596ZM139.866 28.3C139.842 26.788 139.302 25.576 138.246 24.664C137.19 23.752 135.882 23.296 134.322 23.296C132.906 23.296 131.694 23.752 130.686 24.664C129.678 25.552 129.078 26.764 128.886 28.3H139.866ZM146.82 30.064C146.82 28.024 147.228 26.236 148.044 24.7C148.884 23.14 150.036 21.94 151.5 21.1C152.964 20.26 154.644 19.84 156.54 19.84C158.94 19.84 160.92 20.416 162.48 21.568C164.064 22.696 165.132 24.316 165.684 26.428H161.256C160.896 25.444 160.32 24.676 159.528 24.124C158.736 23.572 157.74 23.296 156.54 23.296C154.86 23.296 153.516 23.896 152.508 25.096C151.524 26.272 151.032 27.928 151.032 30.064C151.032 32.2 151.524 33.868 152.508 35.068C153.516 36.268 154.86 36.868 156.54 36.868C158.916 36.868 160.488 35.824 161.256 33.736H165.684C165.108 35.752 164.028 37.36 162.444 38.56C160.86 39.736 158.892 40.324 156.54 40.324C154.644 40.324 152.964 39.904 151.5 39.064C150.036 38.2 148.884 37 148.044 35.464C147.228 33.904 146.82 32.104 146.82 30.064ZM174.562 23.512V34.492C174.562 35.236 174.73 35.776 175.066 36.112C175.426 36.424 176.026 36.58 176.866 36.58H179.386V40H176.146C174.298 40 172.882 39.568 171.898 38.704C170.914 37.84 170.422 36.436 170.422 34.492V23.512H168.082V20.164H170.422V15.232H174.562V20.164H179.386V23.512H174.562ZM181.801 29.992C181.801 28 182.209 26.236 183.025 24.7C183.865 23.164 184.993 21.976 186.409 21.136C187.849 20.272 189.433 19.84 191.161 19.84C192.721 19.84 194.077 20.152 195.229 20.776C196.405 21.376 197.341 22.132 198.037 23.044V20.164H202.177V40H198.037V37.048C197.341 37.984 196.393 38.764 195.193 39.388C193.993 40.012 192.625 40.324 191.089 40.324C189.385 40.324 187.825 39.892 186.409 39.028C184.993 38.14 183.865 36.916 183.025 35.356C182.209 33.772 181.801 31.984 181.801 29.992ZM198.037 30.064C198.037 28.696 197.749 27.508 197.173 26.5C196.621 25.492 195.889 24.724 194.977 24.196C194.065 23.668 193.081 23.404 192.025 23.404C190.969 23.404 189.985 23.668 189.073 24.196C188.161 24.7 187.417 25.456 186.841 26.464C186.289 27.448 186.013 28.624 186.013 29.992C186.013 31.36 186.289 32.56 186.841 33.592C187.417 34.624 188.161 35.416 189.073 35.968C190.009 36.496 190.993 36.76 192.025 36.76C193.081 36.76 194.065 36.496 194.977 35.968C195.889 35.44 196.621 34.672 197.173 33.664C197.749 32.632 198.037 31.432 198.037 30.064ZM206.199 29.992C206.199 28 206.607 26.236 207.423 24.7C208.263 23.164 209.391 21.976 210.807 21.136C212.247 20.272 213.843 19.84 215.595 19.84C216.891 19.84 218.163 20.128 219.411 20.704C220.683 21.256 221.691 22 222.435 22.936V13.36H226.575V40H222.435V37.012C221.763 37.972 220.827 38.764 219.627 39.388C218.451 40.012 217.095 40.324 215.559 40.324C213.831 40.324 212.247 39.892 210.807 39.028C209.391 38.14 208.263 36.916 207.423 35.356C206.607 33.772 206.199 31.984 206.199 29.992ZM222.435 30.064C222.435 28.696 222.147 27.508 221.571 26.5C221.019 25.492 220.287 24.724 219.375 24.196C218.463 23.668 217.479 23.404 216.423 23.404C215.367 23.404 214.383 23.668 213.471 24.196C212.559 24.7 211.815 25.456 211.239 26.464C210.687 27.448 210.411 28.624 210.411 29.992C210.411 31.36 210.687 32.56 211.239 33.592C211.815 34.624 212.559 35.416 213.471 35.968C214.407 36.496 215.391 36.76 216.423 36.76C217.479 36.76 218.463 36.496 219.375 35.968C220.287 35.44 221.019 34.672 221.571 33.664C222.147 32.632 222.435 31.432 222.435 30.064ZM240.57 40.324C238.698 40.324 237.006 39.904 235.494 39.064C233.982 38.2 232.794 37 231.93 35.464C231.066 33.904 230.634 32.104 230.634 30.064C230.634 28.048 231.078 26.26 231.966 24.7C232.854 23.14 234.066 21.94 235.602 21.1C237.138 20.26 238.854 19.84 240.75 19.84C242.646 19.84 244.362 20.26 245.898 21.1C247.434 21.94 248.646 23.14 249.534 24.7C250.422 26.26 250.866 28.048 250.866 30.064C250.866 32.08 250.41 33.868 249.498 35.428C248.586 36.988 247.338 38.2 245.754 39.064C244.194 39.904 242.466 40.324 240.57 40.324ZM240.57 36.76C241.626 36.76 242.61 36.508 243.522 36.004C244.458 35.5 245.214 34.744 245.79 33.736C246.366 32.728 246.654 31.504 246.654 30.064C246.654 28.624 246.378 27.412 245.826 26.428C245.274 25.42 244.542 24.664 243.63 24.16C242.718 23.656 241.734 23.404 240.678 23.404C239.622 23.404 238.638 23.656 237.726 24.16C236.838 24.664 236.13 25.42 235.602 26.428C235.074 27.412 234.81 28.624 234.81 30.064C234.81 32.2 235.35 33.856 236.43 35.032C237.534 36.184 238.914 36.76 240.57 36.76ZM262.123 40.324C260.563 40.324 259.159 40.048 257.911 39.496C256.687 38.92 255.715 38.152 254.995 37.192C254.275 36.208 253.891 35.116 253.843 33.916H258.091C258.163 34.756 258.559 35.464 259.279 36.04C260.023 36.592 260.947 36.868 262.051 36.868C263.203 36.868 264.091 36.652 264.715 36.22C265.363 35.764 265.687 35.188 265.687 34.492C265.687 33.748 265.327 33.196 264.607 32.836C263.911 32.476 262.795 32.08 261.259 31.648C259.771 31.24 258.559 30.844 257.623 30.46C256.687 30.076 255.871 29.488 255.175 28.696C254.503 27.904 254.167 26.86 254.167 25.564C254.167 24.508 254.479 23.548 255.103 22.684C255.727 21.796 256.615 21.1 257.767 20.596C258.943 20.092 260.287 19.84 261.799 19.84C264.055 19.84 265.867 20.416 267.235 21.568C268.627 22.696 269.371 24.244 269.467 26.212H265.363C265.291 25.324 264.931 24.616 264.283 24.088C263.635 23.56 262.759 23.296 261.655 23.296C260.575 23.296 259.747 23.5 259.171 23.908C258.595 24.316 258.307 24.856 258.307 25.528C258.307 26.056 258.499 26.5 258.883 26.86C259.267 27.22 259.735 27.508 260.287 27.724C260.839 27.916 261.655 28.168 262.735 28.48C264.175 28.864 265.351 29.26 266.263 29.668C267.199 30.052 268.003 30.628 268.675 31.396C269.347 32.164 269.695 33.184 269.719 34.456C269.719 35.584 269.407 36.592 268.783 37.48C268.159 38.368 267.271 39.064 266.119 39.568C264.991 40.072 263.659 40.324 262.123 40.324Z" fill="#F8F0FB"/>
<path d="M30.4767 29.5544C30.4767 40.8736 12.2924 50 1.41393 50C-9.46453 50 46 20.3785 46 9.05933C46 -2.25986 8.70592 13.6857 19.5844 13.6857C30.4628 13.6857 30.4767 18.2353 30.4767 29.5544Z" fill="#D90429"/>
</svg>
