<svg width="2142" height="516" viewBox="0 0 2142 516" fill="none" xmlns="http://www.w3.org/2000/svg">
<path d="M192.132 9.49965C180.847 5.1225 169.1 2.20954 156.738 0.721509C151.173 0.0519837 134.211 -0.244224 129.016 0.237413C124.284 0.676636 116.063 1.84813 112.453 2.59828L109.489 3.21417L109.4 42.8757L109.311 82.5371L108.18 82.9013C107.557 83.1015 96.1418 86.3349 82.8125 90.0867C69.4831 93.8384 55.1914 97.8668 51.0529 99.0383C46.9145 100.21 43.3444 101.169 43.1198 101.169C42.8105 101.169 42.7111 93.6074 42.7111 70.0706V38.9724L40.7664 40.8885C37.7156 43.894 32.0114 50.4031 28.8434 54.4945C15.1402 72.1907 5.53825 94.0411 1.94064 115.716C-5.04327 157.791 6.9948 199.518 35.2781 231.271C37.227 233.459 39.6966 236.111 40.7664 237.165L42.7111 239.081L42.7139 179.502L42.7167 119.923L53.9597 116.67C60.1434 114.88 75.0886 110.535 87.1713 107.013L109.14 100.61L109.314 108.566L109.489 116.522L115.068 110.321C117.279 107.864 128.653 95.2229 143.161 79.0992L161.097 59.1651C183.345 34.4396 201.592 14.0819 201.646 13.9259C201.766 13.5806 197.316 11.5103 192.132 9.49965Z" fill="#FF0000"/>
<path d="M87.6944 11.4812C87.6944 12.4725 88.9121 12.2843 90.2169 11.0911C91.4492 9.96446 91.399 9.93466 89.1764 10.4717C88.0926 10.7339 87.6944 11.0049 87.6944 11.4812Z" fill="#FF0000"/>
<path d="M233.085 35.268C233.288 35.268 233.454 35.1102 233.454 34.9174C233.454 34.7246 233.385 34.5669 233.3 34.5669C233.215 34.5669 233.049 34.7246 232.931 34.9174C232.812 35.1102 232.882 35.268 233.085 35.268Z" fill="#FF0000"/>
<path d="M234.608 41.1734C236.179 39.9869 237.589 38.9076 237.74 38.7747C237.892 38.6419 237.806 38.3572 237.548 38.1424C236.962 37.6537 234.196 39.7597 231.34 42.8697C229.322 45.0655 226.48 50.0532 226.48 51.3965C226.48 52.0632 226.612 52.1375 227.439 51.9349C228.825 51.5956 229.957 50.3225 230.198 48.8323C230.367 47.7821 230.299 47.5367 229.838 47.5367C229.116 47.5367 229.118 47.0267 229.845 45.7897C230.39 44.8625 230.477 44.8348 231.494 45.2646C232.389 45.6424 232.728 45.6354 233.524 45.2218C234.45 44.7402 235.419 43.4362 235.094 43.1091C235.005 43.0204 234.211 43.3002 233.329 43.731C231.779 44.4881 231.046 44.4773 231.522 43.7043C231.648 43.4986 233.037 42.3597 234.608 41.1734Z" fill="#FF0000"/>
<path d="M50.7314 41.5776C51.5449 41.5776 51.7775 41.422 51.7775 40.8765C51.7775 40.0377 50.994 39.9616 50.2331 40.7262C49.4782 41.4854 49.5322 41.5776 50.7314 41.5776Z" fill="#FF0000"/>
<path d="M182.911 43.6914C183.479 43.997 183.589 43.9406 183.589 43.3426C183.589 42.8108 183.361 42.6292 182.697 42.6292C181.727 42.6292 181.823 43.106 182.911 43.6914Z" fill="#FF0000"/>
<path d="M280.403 124.723C277.207 95.5098 265.79 69.6591 246.119 47.0986C244.48 45.2186 243.118 43.6829 243.091 43.685C243.065 43.6875 238.406 49.1692 232.738 55.8662C227.071 62.5636 207.961 85.1262 190.273 106.005C170.077 129.844 158.207 144.124 158.367 144.389C159.216 145.797 227.67 246.902 228.029 247.279C228.389 247.656 229.094 247.216 231.92 244.847C236.426 241.07 245.794 231.6 249.287 227.293C267.071 205.359 277.396 180.817 280.403 153.33C281.199 146.058 281.199 131.996 280.403 124.723Z" fill="#FF0000"/>
<path d="M220.064 46.4851C220.332 46.4851 220.552 46.3274 220.552 46.1346C220.552 45.4966 218.644 45.7564 218.211 46.4536C217.983 46.822 217.317 47.2286 216.733 47.358C216.148 47.487 215.67 47.8081 215.67 48.0717C215.67 48.411 216.24 48.2494 217.623 47.5182C218.697 46.9499 219.796 46.4851 220.064 46.4851Z" fill="#FF0000"/>
<path d="M213.165 55.2486C213.57 55.2486 219.506 48.9477 219.506 48.519C219.506 47.9073 218.55 48.2844 218.213 49.029C218.016 49.4643 216.72 51.0418 215.333 52.5343C213.946 54.0273 212.971 55.2486 213.165 55.2486Z" fill="#FF0000"/>
<path d="M217.948 56.6507C218.404 56.6507 221.511 54.8998 221.908 54.4188C222.151 54.1251 222.297 53.5807 222.235 53.2084C222.126 52.5589 222.073 52.5638 220.901 53.3388C220.229 53.7826 219.249 54.2485 218.721 54.3743C217.946 54.5594 217.762 54.7992 217.762 55.6268C217.762 56.1901 217.846 56.6507 217.948 56.6507Z" fill="#FF0000"/>
<path d="M217.588 63.3109C218.067 63.3109 218.46 63.1532 218.46 62.9604C218.46 62.7676 218.067 62.6098 217.588 62.6098C217.108 62.6098 216.716 62.7676 216.716 62.9604C216.716 63.1532 217.108 63.3109 217.588 63.3109Z" fill="#FF0000"/>
<path d="M210.777 68.543C210.419 67.673 210.481 67.415 211.319 66.3115C212.001 65.4124 212.123 65.0636 211.754 65.0636C210.958 65.0636 208.367 67.0907 207.93 68.0547C207.427 69.1638 205.667 69.2932 205.495 68.2335C205.391 67.5952 205.256 67.6264 203.568 68.6762L201.754 69.8056L202.525 71.2029C202.996 72.0557 203.805 72.8504 204.602 73.2423C206.183 74.0212 206.242 74.6851 204.874 76.2941C202.622 78.9424 204.237 79.1492 207.271 76.6008C208.438 75.6203 209.393 74.7422 209.393 74.6501C209.393 74.5575 209.228 74.1709 209.025 73.7905C208.544 72.8865 208.806 72.143 210.112 70.7055C211.079 69.6405 211.144 69.4316 210.777 68.543Z" fill="#FF0000"/>
<path d="M199.507 77.2836C200.432 76.4091 200.5 75.9944 199.922 74.7198C199.414 73.5995 198.583 73.5557 198.583 74.649C198.583 75.5604 197.776 76.4217 196.578 76.7887C195.377 77.1568 195.64 77.5686 197.24 77.8259C198.445 78.0194 198.823 77.929 199.507 77.2836Z" fill="#FF0000"/>
<path d="M193.876 76.6313C194.515 76.6313 194.747 76.4445 194.747 75.9302C194.747 75.1489 194.512 75.0819 193.614 75.6077C192.734 76.123 192.864 76.6313 193.876 76.6313Z" fill="#FF0000"/>
<path d="M200.607 79.0244C201.587 79.1639 202.419 78.5284 202.419 77.6401C202.419 76.7161 201.848 76.8206 200.747 77.9458L199.804 78.9098L200.607 79.0244Z" fill="#FF0000"/>
<path d="M197.025 83.5649C198.399 83.1958 198.583 83.03 198.583 82.1673C198.583 80.9376 198.136 80.9278 194.922 82.0867C193.579 82.5708 192.219 83.0552 191.899 83.1628C191.579 83.2701 191.038 83.2014 190.698 83.0097C189.693 82.4446 189.048 84.035 189.571 85.788C190.019 87.2932 190.402 87.5088 190.737 86.4463C190.918 85.8732 191.265 85.7453 192.639 85.7453C194.048 85.7453 194.411 85.6033 194.893 84.8647C195.252 84.3133 196.049 83.8275 197.025 83.5649Z" fill="#FF0000"/>
<path d="M198.556 86.4463C199.382 86.4463 201.373 84.8135 201.373 84.1366C201.373 83.471 200.76 83.5358 199.193 84.3669C197.759 85.1283 197.355 86.4463 198.556 86.4463Z" fill="#FF0000"/>
<path d="M176.266 86.4463C176.458 86.4463 176.615 86.1308 176.615 85.7453C176.615 85.3597 176.458 85.0442 176.266 85.0442C176.074 85.0442 175.917 85.3597 175.917 85.7453C175.917 86.1308 176.074 86.4463 176.266 86.4463Z" fill="#FF0000"/>
<path d="M181.144 88.7858C181.556 88.239 181.553 88.0991 181.126 87.8271C180.242 87.2652 179.554 87.4723 178.773 88.5355C178.04 89.5317 177.709 91.7044 178.29 91.7044C178.567 91.7044 180.211 90.0229 181.144 88.7858Z" fill="#FF0000"/>
<path d="M189.696 88.8275C188.596 88.7357 187.511 88.4195 187.141 88.083C186.787 87.7612 186.432 87.5141 186.351 87.5337C184.688 87.9389 183.938 88.3922 183.938 88.9916C183.938 89.5279 184.114 89.6429 184.722 89.5037C187.974 88.762 187.774 88.7525 187.761 89.645C187.754 90.1028 187.524 90.8718 187.25 91.3538C186.627 92.4496 186.609 92.756 187.168 92.756C187.41 92.756 187.763 92.4012 187.952 91.9673C188.174 91.4579 188.882 90.9924 189.951 90.6528C192.335 89.8949 192.216 89.0375 189.696 88.8275Z" fill="#FF0000"/>
<path d="M175.052 90.7716C175.911 90.4771 176.615 90.1722 176.615 90.094C176.615 89.8371 175.065 89.9997 174.084 90.3597C172.467 90.9535 173.383 91.3433 175.052 90.7716Z" fill="#FF0000"/>
<path d="M184.07 94.6517C184.534 94.4726 184.529 94.3085 184.028 93.252C183.715 92.5937 183.371 92.057 183.263 92.0598C183.154 92.0623 182.047 92.9358 180.8 94.0004C179.554 95.0653 177.946 96.1976 177.226 96.5169C175.566 97.253 175.409 98.3646 176.963 98.3646C177.661 98.3646 178.01 98.5398 178.01 98.8904C178.01 99.1796 177.766 99.4162 177.469 99.4162C176.586 99.4162 174.893 100.433 173.268 101.939C172.077 103.043 171.561 103.305 170.905 103.139C169.746 102.847 169.49 101.975 170.416 101.477C170.829 101.255 171.923 100.363 172.846 99.4944C174.259 98.1662 174.456 97.83 174.088 97.3817C173.739 96.9554 173.738 96.8187 174.087 96.7009C174.753 96.4755 174.606 95.9848 173.794 95.7257C173.275 95.5603 172.918 95.705 172.554 96.2277C172.272 96.6319 171.823 96.9624 171.555 96.9624C171.158 96.9624 171.173 97.1472 171.639 97.9636L172.211 98.9647L169.705 101.386C168.327 102.717 167.2 103.988 167.2 104.21C167.2 104.431 167.867 104.723 168.682 104.858C169.497 104.993 170.685 105.319 171.321 105.582C172.382 106.021 172.569 105.996 173.551 105.28C174.314 104.724 174.666 104.625 174.776 104.937C174.956 105.451 175.917 105.533 175.917 105.035C175.917 104.848 176.527 104.342 177.273 103.911C178.595 103.146 178.615 103.106 178.075 102.278C177.553 101.477 177.568 101.391 178.327 100.773C178.77 100.412 179.655 100.117 180.294 100.117C181.906 100.117 182.033 99.6556 180.807 98.2517C179.605 96.8755 179.535 96.5309 180.301 95.7604C181.249 94.8073 181.845 95.0843 181.845 96.4776C181.845 97.6267 181.919 97.7238 182.63 97.5156C183.061 97.389 183.924 97.1924 184.548 97.0781C185.348 96.9316 185.681 96.6785 185.681 96.2154C185.681 95.5964 185.337 95.4117 184.4 95.528C183.758 95.6076 183.484 94.8778 184.07 94.6517Z" fill="#FF0000"/>
<path d="M170.281 95.2097C170.452 95.2097 171.594 94.7439 172.819 94.1743L175.046 93.1388L173.05 93.1226C171.177 93.1076 171.02 93.1717 170.512 94.1581C170.215 94.7365 170.111 95.2097 170.281 95.2097Z" fill="#FF0000"/>
<path d="M185.739 101.519C186.617 101.519 190.563 97.6281 190.563 96.7623C190.563 96.4156 190.154 96.2614 189.233 96.2614C188.081 96.2614 187.827 96.4138 187.336 97.4006C187.024 98.0274 186.359 99.2104 185.857 100.03L184.944 101.519H185.739Z" fill="#FF0000"/>
<path d="M160.421 98.3646C160.697 98.3646 160.923 98.0491 160.923 97.6635C160.923 97.2779 160.721 96.9624 160.474 96.9624C160.227 96.9624 160.002 97.2779 159.973 97.6635C159.943 98.0642 160.135 98.3646 160.421 98.3646Z" fill="#FF0000"/>
<path d="M164.933 99.7667C165.572 99.7667 165.805 99.5799 165.805 99.0657C165.805 98.5514 165.572 98.3646 164.933 98.3646C164.294 98.3646 164.061 98.5514 164.061 99.0657C164.061 99.5799 164.294 99.7667 164.933 99.7667Z" fill="#FF0000"/>
<path d="M154.036 103.783C154.897 103.522 156.952 101.7 157.477 100.731C158.125 99.535 156.43 100.065 154.813 101.564C153.093 103.158 152.736 104.176 154.036 103.783Z" fill="#FF0000"/>
<path d="M183.24 105.726C183.432 105.726 183.589 105.41 183.589 105.025C183.589 104.639 183.432 104.324 183.24 104.324C183.048 104.324 182.891 104.639 182.891 105.025C182.891 105.41 183.048 105.726 183.24 105.726Z" fill="#FF0000"/>
<path d="M157.785 108.12C157.785 107.66 157.54 106.933 157.242 106.505C156.943 106.076 156.394 105.726 156.021 105.726C155.252 105.726 155.151 106.094 155.756 106.701C156.073 107.02 155.912 107.435 155.058 108.503C154.448 109.267 153.949 109.979 153.949 110.087C153.949 110.436 158.507 110.294 159.194 109.924C159.561 109.727 160.038 109.233 160.255 108.825C160.617 108.145 160.577 108.103 159.772 108.306C159.29 108.427 158.645 108.624 158.34 108.742C157.927 108.901 157.785 108.74 157.785 108.12Z" fill="#FF0000"/>
<path d="M149.405 116.39C150.213 115.315 150.808 114.37 150.729 114.291C150.65 114.211 150.126 114.058 149.564 113.951C148.728 113.792 148.192 114.037 146.589 115.315C144.926 116.642 144.185 117.53 144.185 118.199C144.185 118.279 145.029 118.345 146.061 118.345C147.93 118.345 147.942 118.338 149.405 116.39Z" fill="#FF0000"/>
<path d="M166.502 115.19C166.694 115.19 166.851 114.875 166.851 114.489C166.851 114.104 166.694 113.788 166.502 113.788C166.31 113.788 166.153 114.104 166.153 114.489C166.153 114.875 166.31 115.19 166.502 115.19Z" fill="#FF0000"/>
<path d="M174.496 115.941C174.778 115.411 174.68 115.216 173.969 114.89C172.529 114.23 172.082 114.385 172.082 115.541C172.082 116.473 172.199 116.592 173.115 116.592C173.766 116.592 174.278 116.351 174.496 115.941Z" fill="#FF0000"/>
<path d="M163.131 119.647C164.084 117.628 163.919 117.154 162.056 116.544C161.145 116.246 160.125 115.881 159.79 115.734C159.356 115.544 159.179 115.623 159.179 116.008C159.179 116.307 159.336 116.649 159.528 116.768C160.128 117.14 159.912 117.648 159.005 117.995C158.089 118.345 157.857 118.896 158.532 119.121C158.826 119.22 158.83 119.444 158.545 119.98C158.103 120.81 158.699 122.902 159.378 122.902C160.188 122.902 162.569 120.837 163.131 119.647Z" fill="#FF0000"/>
<path d="M65.133 119.046C65.6355 119.046 66.4232 118.361 66.4232 117.925C66.4232 117.77 66.0309 117.644 65.5515 117.644C64.9123 117.644 64.6797 117.831 64.6797 118.345C64.6797 118.731 64.8837 119.046 65.133 119.046Z" fill="#FF0000"/>
<path d="M69.2115 119.747C69.8545 119.747 70.6077 118.814 70.6077 118.018C70.6077 117.163 69.1226 118.055 68.7495 119.134C68.5953 119.58 68.7212 119.747 69.2115 119.747Z" fill="#FF0000"/>
<path d="M169.386 118.939C169.725 119.028 170.196 119.022 170.432 118.926C170.668 118.83 170.39 118.757 169.815 118.764C169.24 118.771 169.046 118.85 169.386 118.939Z" fill="#FF0000"/>
<path d="M65.3356 126.408C65.7387 126.408 73.9644 120.944 74.2423 120.492C74.7796 119.618 73.4165 120.204 70.6077 122.055C68.9775 123.129 67.4383 124.208 67.1872 124.452C66.8382 124.792 66.3856 124.81 65.2693 124.528C63.425 124.062 63.5087 124.142 63.9662 123.283C64.1908 122.861 64.2152 122.552 64.0238 122.552C63.7448 122.552 62.9016 123.532 61.088 125.966C60.861 126.27 61.0106 126.492 61.5887 126.707C62.2265 126.945 62.5163 126.866 62.8689 126.36C63.3581 125.658 64.5015 125.484 64.854 126.057C64.9726 126.25 65.1891 126.408 65.3356 126.408Z" fill="#FF0000"/>
<path d="M146.626 121.5C146.818 121.5 146.975 121.185 146.975 120.799C146.975 120.413 146.818 120.098 146.626 120.098C146.434 120.098 146.277 120.413 146.277 120.799C146.277 121.185 146.434 121.5 146.626 121.5Z" fill="#FF0000"/>
<path d="M149.59 127.862C150.413 127.507 150.977 126.709 152.234 124.118L153.831 120.826L152.926 120.509C152.102 120.221 151.904 120.351 150.734 121.947L149.447 123.702L150.303 124.379C151.416 125.26 151.387 125.424 149.984 126.184C148.555 126.956 145.005 130.504 145.331 130.832C145.46 130.961 146.236 130.447 147.055 129.69C147.874 128.933 149.015 128.11 149.59 127.862Z" fill="#FF0000"/>
<path d="M133.961 123.739C135.164 123.415 135.218 122.621 134.078 122.029C132.593 121.257 132.329 121.363 132.329 122.727C132.329 123.989 132.543 124.122 133.961 123.739Z" fill="#FF0000"/>
<path d="M166.938 123.518C167.369 123.232 167.773 122.66 167.834 122.248C167.923 121.649 167.767 121.5 167.05 121.5C166.252 121.5 166.153 121.64 166.153 122.77C166.153 124.007 166.173 124.026 166.938 123.518Z" fill="#FF0000"/>
<path d="M141.449 125.664C141.837 124.363 141.814 124.171 141.222 123.736C140.86 123.47 140.446 123.253 140.3 123.253C139.802 123.253 138.257 125.597 138.257 126.353C138.257 127 138.456 127.109 139.638 127.109C140.953 127.109 141.039 127.04 141.449 125.664Z" fill="#FF0000"/>
<path d="M155.518 124.655C155.808 124.655 156.041 124.343 156.041 123.954C156.041 123.564 155.808 123.253 155.518 123.253C155.227 123.253 154.995 123.564 154.995 123.954C154.995 124.343 155.227 124.655 155.518 124.655Z" fill="#FF0000"/>
<path d="M51.2681 126.596C51.932 126.087 52.4749 125.363 52.4749 124.987C52.4749 124.116 52.2242 124.146 50.76 125.185C49.2874 126.231 49.0001 126.672 48.9931 127.897C48.9872 129.001 49.535 129.189 49.8499 128.191C49.966 127.823 50.6045 127.105 51.2681 126.596Z" fill="#FF0000"/>
<path d="M122.216 128.861C122.577 128.861 122.97 128.704 123.088 128.511C123.214 128.306 122.852 128.16 122.216 128.16C121.58 128.16 121.218 128.306 121.345 128.511C121.463 128.704 121.855 128.861 122.216 128.861Z" fill="#FF0000"/>
<path d="M55.7877 130.263C56.4268 130.263 56.6594 130.077 56.6594 129.562C56.6594 129.048 56.4268 128.861 55.7877 128.861C55.1485 128.861 54.9159 129.048 54.9159 129.562C54.9159 130.077 55.1485 130.263 55.7877 130.263Z" fill="#FF0000"/>
<path d="M135.98 130.205C135.357 130.49 134.876 130.508 134.424 130.265C133.43 129.73 133.213 129.823 132.784 130.964L132.39 132.016H133.754C134.666 132.016 135.119 132.173 135.119 132.488C135.119 132.748 133.157 134.359 130.76 136.068C126.711 138.955 125.864 139.728 126.75 139.728C126.941 139.728 127.098 139.578 127.098 139.395C127.098 139.212 127.643 139.291 128.308 139.571C129.856 140.221 129.71 140.263 130.491 138.939C130.86 138.312 132.62 136.169 134.4 134.176C136.727 131.572 137.531 130.445 137.259 130.172C136.987 129.899 136.627 129.908 135.98 130.205Z" fill="#FF0000"/>
<path d="M126.725 132.016C126.917 132.016 127.242 131.701 127.447 131.315C127.687 130.864 127.696 130.614 127.471 130.614C127.28 130.614 126.955 130.929 126.75 131.315C126.51 131.766 126.501 132.016 126.725 132.016Z" fill="#FF0000"/>
<path d="M148.544 132.016C148.834 132.016 149.067 131.704 149.067 131.315C149.067 130.926 148.834 130.614 148.544 130.614C148.253 130.614 148.021 130.926 148.021 131.315C148.021 131.704 148.253 132.016 148.544 132.016Z" fill="#FF0000"/>
<path d="M146.319 134.595C146.567 134.294 146.608 133.966 146.419 133.783C146.245 133.614 145.397 133.374 144.534 133.25L142.964 133.024L139.252 137.165C137.21 139.442 135.623 141.384 135.726 141.481C135.828 141.577 135.982 141.459 136.067 141.218C136.241 140.727 137.211 140.611 137.211 141.081C137.211 141.247 137.816 141.221 138.556 141.022C139.893 140.663 139.898 140.656 139.368 139.728C139.075 139.214 138.929 138.547 139.044 138.245C139.16 137.942 140.304 136.942 141.587 136.022C143.705 134.502 144.012 134.383 144.911 134.724C145.691 135.02 145.991 134.992 146.319 134.595Z" fill="#FF0000"/>
<path d="M122.013 136.573C123.179 136.573 123.96 136.229 123.96 135.716C123.96 135.478 123.575 135.107 123.105 134.892C122.333 134.538 122.155 134.625 121.251 135.8C119.632 137.903 118.837 139.151 118.577 139.991C118.368 140.669 118.46 140.78 119.239 140.78C120.313 140.78 123.963 138.994 124.678 138.118C125.139 137.555 125.108 137.524 124.309 137.753C123.829 137.89 122.927 138.096 122.304 138.21C121.26 138.401 121.17 138.345 121.17 137.495C121.17 136.754 121.335 136.573 122.013 136.573Z" fill="#FF0000"/>
<path d="M150.462 135.725C150.462 136.124 151.041 135.792 151.427 135.171C151.785 134.595 151.775 134.47 151.374 134.47C150.966 134.47 150.462 135.164 150.462 135.725Z" fill="#FF0000"/>
<path d="M99.5727 142.182C100.289 142.182 102.34 140.335 102.34 139.691C102.34 138.798 99.8709 140.224 99.1839 141.514C98.8861 142.074 98.9489 142.182 99.5727 142.182Z" fill="#FF0000"/>
<path d="M126.75 142.182C126.941 142.182 127.098 141.866 127.098 141.481C127.098 141.095 126.941 140.78 126.75 140.78C126.558 140.78 126.401 141.095 126.401 141.481C126.401 141.866 126.558 142.182 126.75 142.182Z" fill="#FF0000"/>
<path d="M53.6954 144.635C54.4315 144.635 54.5672 144.472 54.5672 143.584C54.5672 142.481 53.9862 142.205 53.2421 142.953C52.4913 143.708 52.741 144.635 53.6954 144.635Z" fill="#FF0000"/>
<path d="M120.661 146.5C121.211 145.947 121.208 145.881 120.619 145.448C120.274 145.194 119.791 144.986 119.547 144.986C119.093 144.986 118.381 146.042 118.381 146.716C118.381 147.305 120.013 147.151 120.661 146.5Z" fill="#FF0000"/>
<path d="M50.3008 153.399C50.6714 153.399 51.4288 152.646 51.4288 152.277C51.4288 151.733 50.7513 152.005 50.3827 152.698C50.1773 153.083 50.1403 153.399 50.3008 153.399Z" fill="#FF0000"/>
<path d="M88.6484 153.189C89.0679 153.611 89.4379 153.381 89.4379 152.698C89.4379 152.312 89.2977 151.997 89.1265 151.997C88.7346 151.997 88.3688 152.908 88.6484 153.189Z" fill="#FF0000"/>
<path d="M95.1794 156.554C95.4601 156.554 95.858 156.238 96.0633 155.853C96.3911 155.237 96.3284 155.152 95.5525 155.152C94.9011 155.152 94.6685 155.336 94.6685 155.853C94.6685 156.238 94.8983 156.554 95.1794 156.554Z" fill="#FF0000"/>
<path d="M160.836 162.35C162.17 161.726 162.666 161.299 162.666 160.776C162.666 159.91 161.115 159.752 160.796 160.586C160.686 160.875 159.854 161.585 158.947 162.163C157.545 163.058 157.426 163.214 158.152 163.21C158.621 163.209 159.829 162.822 160.836 162.35Z" fill="#FF0000"/>
<path d="M104.624 162.628C104.89 162.275 105.113 161.79 105.119 161.549C105.131 161.072 105.027 161.063 103.761 161.418C102.635 161.735 102.473 162.372 103.394 162.867C104.009 163.198 104.226 163.156 104.624 162.628Z" fill="#FF0000"/>
<path d="M149.416 166.789C149.416 167.333 150.093 167.061 150.462 166.369C150.667 165.983 150.704 165.668 150.544 165.668C150.173 165.668 149.416 166.421 149.416 166.789Z" fill="#FF0000"/>
<path d="M155.301 168.253C156.729 167.965 157.005 167.491 155.881 167.255C155.393 167.153 154.603 166.988 154.123 166.888C153.523 166.763 153.251 166.858 153.251 167.196C153.251 168.032 154.134 168.487 155.301 168.253Z" fill="#FF0000"/>
<path d="M144.952 169.216C145.373 169.059 145.779 168.749 145.852 168.526C145.931 168.29 145.612 168.121 145.086 168.121C144.422 168.121 144.185 168.303 144.185 168.811C144.185 169.375 144.325 169.449 144.952 169.216Z" fill="#FF0000"/>
<path d="M85.9508 170.225C86.1426 170.225 86.2995 169.909 86.2995 169.524C86.2995 169.138 86.1426 168.822 85.9508 168.822C85.759 168.822 85.6021 169.138 85.6021 169.524C85.6021 169.909 85.759 170.225 85.9508 170.225Z" fill="#FF0000"/>
<path d="M147.525 180.741C149.045 180.741 151.303 178.815 150.432 178.261C149.723 177.81 149.212 177.864 148.737 178.44C148.508 178.716 147.861 179.044 147.299 179.169C146.602 179.323 146.277 179.608 146.277 180.067C146.277 180.606 146.527 180.741 147.525 180.741Z" fill="#FF0000"/>
<path d="M160.245 182.473C160.42 182.195 160.518 181.825 160.463 181.651C160.409 181.476 160.047 181.216 159.66 181.072C159.153 180.883 158.839 180.998 158.538 181.481C158.178 182.061 158.244 182.209 159.024 182.566C159.757 182.901 159.987 182.884 160.245 182.473Z" fill="#FF0000"/>
<path d="M125.552 184.597C126.006 184.597 127.098 183.845 127.098 183.533C127.098 183.347 126.706 183.194 126.227 183.194C125.587 183.194 125.355 183.381 125.355 183.896C125.355 184.281 125.444 184.597 125.552 184.597Z" fill="#FF0000"/>
<path d="M141.287 184.892C141.96 184.331 141.848 183.998 140.905 183.76C140.443 183.643 139.854 183.466 139.596 183.367C139.338 183.268 138.944 183.481 138.72 183.841C138.36 184.42 138.46 184.542 139.572 184.885C140.479 185.164 140.958 185.167 141.287 184.892Z" fill="#FF0000"/>
<path d="M179.299 272.804C179.429 272.673 165.895 252.889 128.73 198.881C124.119 192.182 120.258 186.709 120.149 186.719C119.864 186.747 61.8405 253.902 61.8199 254.227C61.7642 255.113 77.6324 263.797 85.4278 267.146C93.7891 270.738 106.43 274.469 115.594 276.05C124.84 277.646 129.299 277.994 140.524 278C152.106 278.006 156.722 277.628 166.207 275.901C170.75 275.073 178.978 273.127 179.299 272.804Z" fill="#FF0000"/>
<path d="M150.027 189.237C149.913 189.582 149.689 189.582 148.936 189.237C148.414 188.998 147.617 188.803 147.163 188.803C146.391 188.803 146.363 188.871 146.733 189.855C147.031 190.651 147.347 190.906 148.032 190.906C148.582 190.906 149.329 190.494 149.939 189.855C150.49 189.276 150.767 188.803 150.556 188.803C150.344 188.803 150.106 188.998 150.027 189.237Z" fill="#FF0000"/>
<path d="M130.237 191.658C130.237 192.17 131.871 191.987 132.336 191.424C132.579 191.13 132.715 190.841 132.64 190.781C132.381 190.576 130.237 191.359 130.237 191.658Z" fill="#FF0000"/>
<path d="M139.652 195.639C139.844 195.519 140 195.352 140 195.267C140 195.182 139.844 195.113 139.652 195.113C139.46 195.113 139.303 195.28 139.303 195.484C139.303 195.688 139.46 195.758 139.652 195.639Z" fill="#FF0000"/>
<path d="M145.079 195.711C144.89 196.211 144.93 196.251 145.274 195.907C145.513 195.669 145.62 195.386 145.512 195.279C145.405 195.171 145.21 195.365 145.079 195.711Z" fill="#FF0000"/>
<path d="M137.892 198.049C138.337 199.226 138.877 199.22 139.326 198.032C139.799 196.78 139.104 195.966 138.162 196.668C137.664 197.04 137.611 197.307 137.892 198.049Z" fill="#FF0000"/>
<path d="M141.047 197.939C141.047 198.473 143.015 198.313 143.488 197.742C143.726 197.453 143.785 197.241 143.617 197.272C143.45 197.303 142.803 197.392 142.18 197.469C141.556 197.547 141.047 197.759 141.047 197.939Z" fill="#FF0000"/>
<path d="M143.111 203.28C144.085 202.182 144.882 201.156 144.882 201.002C144.882 200.374 144.263 200.805 143.02 202.3C142.298 203.168 141.127 204.186 140.418 204.563L139.129 205.247L140.234 205.263C141.148 205.275 141.647 204.932 143.111 203.28Z" fill="#FF0000"/>
<path d="M154.472 203.175C154.762 203.175 154.995 202.863 154.995 202.474C154.995 202.085 154.762 201.773 154.472 201.773C154.181 201.773 153.949 202.085 153.949 202.474C153.949 202.863 154.181 203.175 154.472 203.175Z" fill="#FF0000"/>
<path d="M201.227 226.661C201.307 226.661 201.373 226.424 201.373 226.135C201.373 225.383 200.92 225.486 200.376 226.361C199.962 227.027 199.976 227.087 200.495 226.887C200.817 226.763 201.147 226.661 201.227 226.661Z" fill="#FF0000"/>
<path d="M204.686 226.31C205.165 226.31 205.557 226.153 205.557 225.96C205.557 225.767 205.165 225.609 204.686 225.609C204.206 225.609 203.814 225.767 203.814 225.96C203.814 226.153 204.206 226.31 204.686 226.31Z" fill="#FF0000"/>
<path d="M200.449 230.799C201.536 230.642 201.55 229.652 200.484 228.247C199.499 226.949 198.663 226.566 199.125 227.625C199.273 227.962 199.464 228.839 199.55 229.572C199.682 230.695 199.824 230.889 200.449 230.799Z" fill="#FF0000"/>
<path d="M205.188 235.775C205.901 235.775 208.344 232.183 208.346 231.13C208.346 230.793 208.19 230.517 207.998 230.517C207.807 230.517 207.65 230.815 207.65 231.179C207.65 232.119 206.595 233.252 205.47 233.52C204.611 233.724 204.511 233.652 204.511 232.833C204.511 232.331 204.354 231.919 204.163 231.919C203.971 231.919 203.814 232.008 203.814 232.116C203.814 232.681 204.976 235.775 205.188 235.775Z" fill="#FF0000"/>
<path d="M192.917 234.66C193.584 234.755 193.701 234.612 193.701 233.696C193.701 232.775 193.573 232.62 192.807 232.62C192.036 232.62 191.927 232.754 192.022 233.584C192.101 234.274 192.355 234.58 192.917 234.66Z" fill="#FF0000"/>
<path d="M196.578 234.66C197.14 234.58 197.394 234.274 197.473 233.584C197.568 232.754 197.459 232.62 196.688 232.62C195.922 232.62 195.794 232.775 195.794 233.696C195.794 234.612 195.911 234.755 196.578 234.66Z" fill="#FF0000"/>
<path d="M211.69 235.074C212.392 235.074 212.532 234.9 212.532 234.022C212.532 233.401 212.349 232.971 212.085 232.971C211.839 232.971 211.461 233.444 211.243 234.022C210.873 235.01 210.9 235.074 211.69 235.074Z" fill="#FF0000"/>
<path d="M208.696 237.801C208.696 238.223 210.042 238.941 210.238 238.623C210.337 238.463 210.03 238.154 209.557 237.937C209.083 237.72 208.696 237.659 208.696 237.801Z" fill="#FF0000"/>
<path d="M207.65 240.402C207.65 240.971 208.683 240.66 209.044 239.981C209.331 239.443 209.309 239.28 208.952 239.28C208.439 239.28 207.65 239.961 207.65 240.402Z" fill="#FF0000"/>
<path d="M198.749 241.38C198.264 241.195 197.777 240.804 197.665 240.512C197.32 239.608 195.985 239.925 194.753 241.203C193.461 242.542 193.545 243.13 194.937 242.492C197.043 241.528 197.457 242.406 195.794 244.309C194.521 245.767 194.389 246.508 195.51 245.905C196.506 245.37 199.629 242.43 199.629 242.028C199.629 241.857 199.233 241.565 198.749 241.38Z" fill="#FF0000"/>
<path d="M173.889 254.105C173.701 255.084 174.772 254.804 176.183 253.505C176.899 252.846 177.381 252.203 177.256 252.077C177.13 251.951 176.881 252.11 176.702 252.432C176.523 252.754 175.842 253.127 175.19 253.261C174.477 253.408 173.958 253.744 173.889 254.105Z" fill="#FF0000"/>
<path d="M176.8 259.611C177.428 259.611 177.661 259.422 177.661 258.91C177.661 258.525 177.622 258.228 177.574 258.25C177.526 258.272 177.225 258.36 176.906 258.445C175.908 258.711 175.826 259.611 176.8 259.611Z" fill="#FF0000"/>
<path d="M378.314 90.0608L378.864 53.5768C379.293 25.0019 378.855 17.141 376.849 17.3263C375.439 17.4573 365.446 20.8017 354.642 24.7583L335 31.9544V68.6259V105.299L356.657 97.6802L378.314 90.0608Z" fill="white"/>
<path d="M453.711 78.7066C475.954 46.0785 494.152 18.8675 494.152 18.237C494.152 17.6064 484.347 17.0907 472.362 17.0907H450.571L415.45 65.8315C385.445 107.473 380.235 113.783 379.691 109.145C379.341 106.159 378.434 103.712 377.677 103.706C376.919 103.7 367.012 107.098 355.662 111.26L335.024 118.827L335.012 184.2C335.006 220.999 335.76 248.737 336.739 247.66C337.696 246.608 349.62 229.428 363.236 209.483C376.855 189.539 388.681 172.441 389.519 171.49C390.357 170.539 404.38 187.536 420.684 209.264L450.329 248.768H472.239C484.293 248.768 494.152 248.282 494.152 247.69C494.152 247.095 484.812 234.178 473.398 218.982C461.983 203.786 443.783 179.355 432.955 164.691L413.269 138.028L453.711 78.7066Z" fill="white"/>
<path d="M688.765 86.7751C676.361 57.0862 643.16 28.312 611.92 20.1751C597.127 16.3212 567.275 16.3835 552.72 20.2958C513.381 30.8704 478.916 64.8464 469.032 102.795C465.086 117.945 465.077 145.796 469.014 161.214C479.149 200.917 513.129 235.649 551.652 245.683C566.802 249.63 594.653 249.638 610.071 245.701C651.207 235.199 687.443 198.457 695.648 158.931C698.338 145.978 697.617 110.91 694.603 108.035C693.311 106.804 685.173 109.06 671.913 114.325L651.235 122.534L652.456 129.037C654.281 138.767 649.668 157.9 642.929 168.533C624.796 197.16 595.699 209.534 565.007 201.671C544.253 196.354 524.467 179.792 515.668 160.372C509.094 145.865 509.559 120.475 516.675 105.293C523.821 90.0488 538.344 74.8487 552.323 67.983C562.192 63.1359 565.994 62.4269 581.786 62.4793C595.908 62.5257 602.001 63.4887 609.338 66.8329C621.895 72.5563 636.353 86.1829 643.725 99.2454C650.566 111.367 648.441 111.301 674.912 100.218L691.484 93.2821L688.765 86.7751Z" fill="white"/>
<path d="M863.828 158.567L807.419 87.8468C776.395 48.9492 750.105 17.1914 748.996 17.272C747.888 17.3526 737.695 20.7453 726.345 24.8087L705.705 32.2001L705.695 75.2256C705.685 108.76 706.239 118.064 708.201 117.399C709.587 116.931 719.511 113.887 730.257 110.636C748.485 105.122 749.835 104.348 750.403 99.1023C750.933 94.2008 761.118 106.236 829.58 192.664L908.148 291.848L908.666 155.154C908.95 79.9739 908.95 18.239 908.666 17.965C908.382 17.693 898.416 20.7835 886.52 24.8328L864.889 32.1981L864.359 95.3835L863.828 158.567Z" fill="white"/>
<path d="M1078.38 41.7694C1082.07 30.9672 1085.48 20.995 1085.98 19.609C1086.68 17.6226 1070.05 17.0907 1007.08 17.0907H927.287V68.5976C927.287 116.746 927.517 120.032 930.812 118.96C932.75 118.332 942.497 114.782 952.469 111.077L970.6 104.338L971.173 82.875L971.745 61.4115H1021.71H1071.68L1078.38 41.7694Z" fill="white"/>
<path d="M1249.12 61.4115C1249.39 61.4115 1249.62 51.4394 1249.62 39.2511V17.0907L1210.84 17.258C1166.7 17.4494 1155.93 19.3087 1132.84 30.7152C1102.78 45.5708 1081.78 73.6278 1076.27 106.314C1072.85 126.587 1074.85 159.685 1080.47 175.884C1089.39 201.59 1109.41 223.539 1135.75 236.507C1155.68 246.318 1171.05 248.953 1204.65 248.318L1234.14 247.76L1241.84 226.104L1249.54 204.447H1219.64C1203.19 204.447 1184.92 203.534 1179.03 202.416C1154.33 197.732 1132.8 182.381 1124.61 163.605C1117.69 147.747 1117.92 119.139 1125.1 103.476C1135.75 80.2721 1153.62 67.3606 1180.47 63.4805C1203.31 60.1766 1203.28 60.1687 1203.28 69.6855C1203.28 76.7527 1203.8 77.7557 1206.81 76.5671C1212.29 74.4035 1248.55 61.4136 1249.12 61.4115Z" fill="white"/>
<path d="M1577.93 290.57C1577.89 289.186 1558.53 227.312 1534.9 153.075L1491.95 18.098L1455.4 17.5482L1418.84 17V68.364V119.73L1440.5 112.155L1462.16 104.58L1463.17 94.223C1464.13 84.271 1465.55 87.9678 1499.42 188.477L1534.67 293.088H1556.33C1572.36 293.088 1577.98 292.434 1577.93 290.57Z" fill="white"/>
<path d="M1720.35 95.6594C1710.44 57.6765 1683.28 29.4058 1647.5 19.8325C1640.57 17.9791 1623.76 17.131 1593.61 17.1148L1549.79 17.0907V68.6782C1549.79 109.079 1550.34 120.074 1552.31 119.379C1553.7 118.892 1563.67 115.42 1574.47 111.665L1594.11 104.84V82.8285V60.8194L1613.67 61.9858C1630.53 62.9931 1635.05 64.0787 1646.41 69.8525C1668.02 80.84 1678.76 101.437 1678.69 131.785C1678.65 152.571 1674.66 167.969 1666.3 179.611C1652.96 198.19 1638.11 204.447 1607.36 204.447H1592.96L1586.33 224.089C1582.69 234.891 1579.25 244.865 1578.69 246.249C1576.93 250.569 1632.34 249.646 1648.8 245.081C1685.08 235.02 1713.19 204.805 1721.28 167.177C1725.02 149.777 1724.53 111.661 1720.35 95.6594Z" fill="white"/>
<path d="M1951.75 86.3924C1939.42 56.8828 1906.34 28.322 1875.06 20.1751C1860.27 16.3212 1830.42 16.3835 1815.86 20.2958C1776.52 30.8704 1742.06 64.8464 1732.17 102.795C1728.23 117.945 1728.22 145.796 1732.16 161.214C1742.29 200.917 1776.27 235.649 1814.79 245.683C1829.94 249.63 1857.8 249.638 1873.21 245.701C1914.35 235.199 1950.59 198.457 1958.79 158.931C1961.48 145.978 1960.76 110.91 1957.75 108.035C1956.45 106.804 1948.32 109.06 1935.06 114.325L1914.38 122.534L1915.6 129.037C1917.42 138.767 1912.81 157.9 1906.07 168.533C1887.94 197.16 1858.84 209.534 1828.15 201.671C1807.4 196.354 1787.61 179.792 1778.81 160.372C1772.24 145.865 1772.7 120.475 1779.82 105.293C1786.96 90.0488 1801.49 74.8487 1815.47 67.983C1825.34 63.1359 1829.14 62.4269 1844.93 62.4793C1859.05 62.5257 1865.14 63.4887 1872.48 66.8329C1885.04 72.5563 1899.5 86.1829 1906.87 99.2454C1913.71 111.367 1911.58 111.301 1938.05 100.218L1954.63 93.2821L1951.75 86.3924Z" fill="white"/>
<path d="M2119.69 44.2896C2123.1 34.8734 2126.45 24.9012 2127.15 22.1292L2128.41 17.0907L2078.33 17.2258C2027.09 17.3627 2020.46 18.1665 2005.09 26.0939C1991.17 33.2739 1983.13 41.3665 1976.45 54.9347C1970.3 67.4191 1969.83 69.8164 1969.83 88.5661C1969.83 105.432 1970.55 110.08 1974.19 116.813C1982.75 132.643 2001.27 145.635 2017.97 147.517L2026.61 148.49L2033.98 127.967C2038.03 116.68 2041.35 106.721 2041.35 105.837C2041.35 104.953 2036.75 103.788 2031.13 103.248C2018.25 102.011 2014.16 98.1153 2014.44 87.3776C2014.7 77.5766 2019.89 69.7941 2029.41 64.941C2035.27 61.9493 2042.15 61.4175 2074.9 61.4155L2113.49 61.4115L2119.69 44.2896Z" fill="white"/>
<path d="M1231.99 95.6171C1249.45 89.2954 1249.62 89.1705 1249.62 82.3733C1249.62 73.6643 1248.18 73.6924 1222.93 82.9131L1203.28 90.0851V97.1541C1203.28 103.79 1203.62 104.153 1208.82 103.109C1211.87 102.499 1222.3 99.1265 1231.99 95.6171Z" fill="white"/>
<path d="M2123.05 144.519C2116.31 129.607 2104.13 117.576 2088.55 110.442C2082.54 107.693 2072.86 104.965 2067.04 104.382L2056.46 103.323L2049.64 123.162C2045.88 134.073 2042.44 144.005 2041.98 145.23C2041.45 146.634 2045.54 147.859 2053.01 148.536C2074.44 150.48 2083.66 158.994 2083.66 176.851C2083.66 188.201 2076.94 198.552 2067.47 201.816C2063.07 203.331 2046.33 204.261 2022.2 204.334L1983.9 204.447L1976.87 224.915C1973 236.173 1969.52 246.189 1969.13 247.17C1968.73 248.192 1991.18 248.701 2021.51 248.359C2072.21 247.787 2075.13 247.543 2086.66 242.899C2094.89 239.589 2102.33 234.446 2110.01 226.762C2124.72 212.054 2129.03 200.267 2128.86 175.235C2128.75 159.82 2127.88 155.219 2123.05 144.519Z" fill="white"/>
<path d="M1043.13 161.133L1050.58 139.477L1058.04 117.82L1014.32 117.995L970.6 118.17L948.944 125.481L927.287 132.792V154.517C927.287 166.466 927.63 176.243 928.047 176.243C928.464 176.243 937.757 173.34 948.696 169.792C967.303 163.756 970.989 163.269 1005.86 162.237L1043.13 161.133Z" fill="white"/>
<path d="M1463.17 147.561V132.689C1463.17 124.512 1462.49 117.894 1461.65 117.983C1460.82 118.074 1450.86 121.474 1439.51 125.538L1418.87 132.929L1418.86 147.535C1418.85 155.567 1419.68 162.141 1420.71 162.141C1421.73 162.141 1431.71 158.861 1442.87 154.85L1463.17 147.561Z" fill="white"/>
<path d="M1594.11 147.507V132.663C1594.11 124.5 1593.43 117.874 1592.6 117.943C1591.77 118.011 1581.8 121.379 1570.44 125.431L1549.79 132.796V147.469C1549.79 155.539 1550.47 162.149 1551.3 162.159C1552.14 162.169 1562.11 158.877 1573.46 154.842L1594.11 147.507Z" fill="white"/>
<path d="M750.004 147.865V133.85C750.004 123.896 749.275 119.881 747.486 119.994C746.102 120.08 736.355 123.1 725.829 126.702L706.69 133.256L706.094 147.873C705.768 155.913 706.221 162.058 707.101 161.528C707.984 161 717.998 157.709 729.354 154.215L750.004 147.865Z" fill="white"/>
<path d="M971.608 204.447V190.345C971.608 180.296 970.885 176.301 969.09 176.448C967.706 176.561 957.731 179.428 946.929 182.818L927.287 188.985V218.877V248.768H999.647H1072L1078.51 229.125C1082.09 218.323 1085.43 208.351 1085.94 206.965C1086.67 204.987 1074.49 204.447 1029.24 204.447H971.608Z" fill="white"/>
<path d="M1400.23 60.3135L1407.94 38.6568L1415.66 17H1344.2C1288.88 17 1272.53 17.5681 1271.81 19.5182C1268.31 28.9626 1258.77 58.3472 1258.77 59.6849C1258.77 60.5834 1268.29 61.3208 1279.92 61.3208H1301.07V96.4289V131.539L1322.23 124.456L1343.38 117.372V89.402V61.4317L1371.8 60.8715L1400.23 60.3135Z" fill="#FF002C"/>
<path d="M1343.38 247.821V191.839C1343.38 148.29 1342.82 135.907 1340.86 136.066C1339.48 136.181 1329.96 139.015 1319.71 142.367L1301.07 148.46V204.612C1301.07 235.495 1301.71 260.764 1302.48 260.764C1303.26 260.764 1312.78 257.851 1323.64 254.291L1343.38 247.821Z" fill="#FF002C"/>
<path d="M2037.57 243.261C2035.58 245.235 2035.35 245.004 2036.44 242.133C2037.2 240.147 2038.33 239.028 2038.95 239.649C2039.57 240.267 2038.95 241.893 2037.57 243.261Z" fill="#141301"/>
<path d="M1761.83 101.961C1758.63 104.465 1758.56 104.394 1761.07 101.199C1762.59 99.2593 1764.18 97.6738 1764.59 97.6738C1766.25 97.6738 1765.18 99.3279 1761.83 101.961Z" fill="#141301"/>
<path d="M1739.16 114.798C1738.06 115.483 1737.15 115.082 1737.15 113.909C1737.15 112.737 1738.06 111.776 1739.16 111.776C1740.27 111.776 1741.18 112.175 1741.18 112.664C1741.18 113.154 1740.27 114.113 1739.16 114.798Z" fill="#141301"/>
<path d="M1768.7 122.352C1768.14 123.738 1767.69 122.604 1767.69 119.834C1767.69 117.064 1768.14 115.932 1768.7 117.316C1769.26 118.702 1769.26 120.968 1768.7 122.352Z" fill="#141301"/>
<path d="M1735.69 125.092C1735.16 124.564 1735.33 123.164 1736.06 121.984C1738.05 118.769 1739.21 119.393 1737.84 122.943C1737.19 124.653 1736.22 125.62 1735.69 125.092Z" fill="#141301"/>
<path d="M1746.8 122.645C1744.12 125.544 1741.18 125.066 1741.18 121.73C1741.18 120.686 1743.03 119.834 1745.29 119.834C1748.7 119.834 1748.96 120.31 1746.8 122.645Z" fill="#141301"/>
<path d="M1760.32 124.593C1758.48 125.298 1757.3 124.595 1757.3 122.794C1757.3 121.166 1758.66 119.834 1760.32 119.834C1761.98 119.834 1763.34 120.644 1763.34 121.633C1763.34 122.622 1761.98 123.954 1760.32 124.593Z" fill="#141301"/>
<path d="M1753.68 136.455C1754.01 134.514 1756.54 131.347 1759.31 129.418C1767.11 123.98 1767.62 125.207 1760.78 132.929C1753.67 140.961 1752.86 141.366 1753.68 136.455Z" fill="#141301"/>
<path d="M1739.67 140.087C1735.66 144.408 1732.52 139.807 1735.01 133.257C1736.18 130.177 1738.57 127.921 1740.62 127.957C1744.03 128.017 1744.03 128.152 1740.67 130.697C1736.62 133.775 1735.72 141.026 1739.67 138.795C1741.68 137.659 1741.68 137.917 1739.67 140.087Z" fill="#141301"/>
<path d="M1744.92 144.009C1743.89 144.009 1744.06 142.119 1745.3 139.807C1746.54 137.496 1747.95 136.007 1748.44 136.497C1749.85 137.907 1746.99 144.009 1744.92 144.009Z" fill="#141301"/>
<path d="M1737.77 156.097C1734.41 156.097 1734.31 150.72 1737.65 149.372C1742.02 147.611 1743.48 147.958 1741.97 150.396C1740.97 152.025 1741.71 152.333 1744.37 151.397C1748.11 150.085 1748.11 150.136 1744.32 153.071C1742.17 154.735 1739.22 156.097 1737.77 156.097Z" fill="#141301"/>
<path d="M1692.21 119.804C1690.76 119.784 1691.01 118.992 1692.83 117.819C1696.7 115.317 1697.4 115.317 1695.85 117.819C1695.17 118.927 1693.53 119.82 1692.21 119.804Z" fill="#141301"/>
<path d="M1497.53 152.627C1493.16 156.785 1493.45 154.394 1498.01 148.493C1499.11 147.081 1500.5 146.427 1501.11 147.039C1501.73 147.649 1500.11 150.165 1497.53 152.627Z" fill="#141301"/>
<path d="M1633.94 234.665C1632.76 234.665 1632.96 233.386 1634.41 231.643C1635.79 229.981 1637.23 228.621 1637.61 228.621C1637.99 228.621 1637.79 229.981 1637.15 231.643C1636.51 233.305 1635.07 234.665 1633.94 234.665Z" fill="#141301"/>
<path d="M1141.34 39.5095C1138.14 42.0137 1138.07 41.943 1140.57 38.7479C1143.21 35.3916 1144.86 34.326 1144.86 35.984C1144.86 36.401 1143.27 37.9885 1141.34 39.5095Z" fill="#141301"/>
<path d="M960.076 56.5967C959.455 55.9742 960.092 54.0826 961.494 52.3944C965.116 48.0308 966.095 48.5949 963.456 53.5266C962.219 55.8373 960.698 57.2192 960.076 56.5967Z" fill="#141301"/>
<path d="M980.832 214.065C977.363 217.387 977.319 217.344 979.867 213.1C981.336 210.658 982.97 209.092 983.5 209.622C984.029 210.152 982.829 212.151 980.832 214.065Z" fill="#141301"/>
<path d="M953.476 242.001C953.476 241.471 952.926 239.605 952.253 237.853C951.58 236.1 951.937 234.666 953.045 234.666C955.863 234.666 957.741 240.324 955.402 241.771C954.342 242.426 953.476 242.528 953.476 242.001Z" fill="#141301"/>
<path d="M998.047 241.247C996.056 243.221 995.827 242.99 996.919 240.119C997.676 238.133 998.802 237.015 999.423 237.635C1000.04 238.254 999.425 239.879 998.047 241.247Z" fill="#141301"/>
<path d="M729.857 66.4481C728.749 67.1331 727.843 66.7321 727.843 65.5596C727.843 64.3871 728.749 63.4263 729.857 63.4263C730.965 63.4263 731.872 63.8252 731.872 64.3148C731.872 64.8043 730.965 65.7632 729.857 66.4481Z" fill="#141301"/>
<path d="M886.995 112.784C885.887 113.468 884.98 113.067 884.98 111.895C884.98 110.723 885.887 109.762 886.995 109.762C888.103 109.762 889.009 110.161 889.009 110.65C889.009 111.14 888.103 112.099 886.995 112.784Z" fill="#141301"/>
<path d="M498.685 101.961C495.49 104.465 495.42 104.394 497.924 101.199C499.445 99.2593 501.032 97.6738 501.45 97.6738C503.108 97.6738 502.042 99.3279 498.685 101.961Z" fill="#141301"/>
<path d="M505.559 122.352C505.001 123.738 504.544 122.604 504.544 119.834C504.544 117.064 505.001 115.932 505.559 117.316C506.119 118.702 506.119 120.968 505.559 122.352Z" fill="#141301"/>
<path d="M472.548 125.092C472.02 124.564 472.186 123.164 472.917 121.984C474.903 118.769 476.064 119.393 474.702 122.943C474.045 124.653 473.076 125.62 472.548 125.092Z" fill="#141301"/>
<path d="M483.655 122.645C480.975 125.544 478.036 125.066 478.036 121.73C478.036 120.686 479.885 119.834 482.144 119.834C485.558 119.834 485.814 120.31 483.655 122.645Z" fill="#141301"/>
<path d="M497.175 124.593C495.333 125.298 494.153 124.595 494.153 122.794C494.153 121.166 495.513 119.834 497.175 119.834C498.837 119.834 500.196 120.644 500.196 121.633C500.196 122.622 498.837 123.954 497.175 124.593Z" fill="#141301"/>
<path d="M490.538 136.455C490.865 134.514 493.397 131.347 496.167 129.418C503.964 123.98 504.477 125.207 497.64 132.929C490.528 140.961 489.715 141.366 490.538 136.455Z" fill="#141301"/>
<path d="M476.525 140.087C472.514 144.408 469.377 139.807 471.867 133.257C473.038 130.177 475.429 127.921 477.482 127.957C480.883 128.017 480.885 128.152 477.532 130.697C473.477 133.775 472.574 141.026 476.525 138.795C478.54 137.659 478.54 137.917 476.525 140.087Z" fill="#141301"/>
<path d="M481.779 144.009C480.75 144.009 480.921 142.119 482.158 139.807C483.395 137.496 484.807 136.007 485.299 136.497C486.707 137.907 483.85 144.009 481.779 144.009Z" fill="#141301"/>
<path d="M474.629 156.097C471.267 156.097 471.172 150.72 474.51 149.372C478.874 147.611 480.339 147.958 478.832 150.396C477.824 152.025 478.566 152.333 481.231 151.397C484.97 150.085 484.968 150.136 481.177 153.071C479.025 154.735 476.08 156.097 474.629 156.097Z" fill="#141301"/>
<path d="M344.74 226.607C343.178 226.607 341.756 224.691 341.579 222.35C341.403 220.009 341.466 218.422 341.722 218.825C341.976 219.228 343.398 221.142 344.881 223.082C347.151 226.049 347.129 226.607 344.74 226.607Z" fill="#141301"/>
<path d="M1371.32 28.9441C1371.81 26.303 1372.28 23.4603 1372.36 22.6303C1372.57 20.4747 1378.09 20.7568 1379.47 22.995C1380.11 24.0265 1379.7 25.4487 1378.55 26.1558C1377.41 26.863 1377.09 28.5128 1377.84 29.8203C1378.59 31.1298 1378.46 31.5268 1377.55 30.7068C1376.64 29.8849 1374.67 30.2332 1373.17 31.4803C1370.97 33.3035 1370.61 32.806 1371.32 28.9441Z" fill="#141301"/>
<path d="M1398.7 23.134C1394.79 25.6582 1392.66 25.6582 1392.66 23.134C1392.66 22.0259 1394.7 21.1335 1397.19 21.1496C1400.85 21.1758 1401.14 21.5545 1398.7 23.134Z" fill="#141301"/>
<path d="M1387.38 28.4928C1383.19 28.2793 1381.42 27.3102 1382.07 25.5998C1382.68 24.0022 1383.92 23.7101 1385.34 24.8261C1386.59 25.8133 1388.98 27.1148 1390.64 27.7192C1392.3 28.3215 1390.83 28.6701 1387.38 28.4928Z" fill="#141301"/>
<path d="M1398.99 29.1133C1396.18 29.0589 1396.27 28.6016 1399.59 26.0914C1404.47 22.3946 1404.9 22.4027 1403.46 26.1558C1402.82 27.8179 1400.81 29.1495 1398.99 29.1133Z" fill="#141301"/>
<path d="M1331.81 29.087C1329.03 33.5372 1327.07 32.9832 1328.88 28.257C1329.54 26.5466 1331.02 25.1485 1332.17 25.1485C1333.5 25.1485 1333.36 26.5929 1331.81 29.087Z" fill="#141301"/>
<path d="M1368.47 46.3339C1369.74 42.4719 1373.11 37.4858 1375.95 35.2537C1382.01 30.4872 1382.44 30.4468 1387.32 34.1436C1391.25 37.1211 1390.05 42.3046 1385.97 39.9677C1384.66 39.2183 1384.26 39.3474 1385.08 40.254C1385.9 41.1605 1385.45 43.3301 1384.08 45.0748C1382.17 47.4862 1382.98 47.3491 1387.43 44.5005L1393.29 40.7534L1388.94 46.8616C1384.13 53.6185 1383.37 56.3605 1386.92 54.1687C1388.38 53.2701 1388.7 53.6167 1387.79 55.0894C1386.99 56.3868 1385.39 56.864 1384.23 56.1488C1383.08 55.4356 1381.34 56.1005 1380.37 57.6275C1378.98 59.8234 1378.61 59.6664 1378.58 56.8782C1378.57 54.9382 1377.59 53.3527 1376.42 53.3527C1375.25 53.3527 1374.85 54.2593 1375.53 55.3673C1376.22 56.4753 1375.82 57.3819 1374.64 57.3819C1373.47 57.3819 1372.51 56.443 1372.51 55.2967C1372.51 53.8603 1371.29 53.8624 1368.6 55.3028C1366 56.6929 1364.28 56.7171 1363.45 55.3734C1362.76 54.2614 1363.09 53.3527 1364.18 53.3527C1365.26 53.3527 1367.2 50.1938 1368.47 46.3339Z" fill="#141301"/>
<path d="M1331.85 39.2506C1330.52 39.2506 1330.67 38.0942 1332.26 36.1803C1333.66 34.4921 1335.22 33.5253 1335.73 34.031C1337.13 35.4291 1334.29 39.2506 1331.85 39.2506Z" fill="#141301"/>
<path d="M1359.55 49.4322C1357.2 47.4841 1356.62 41.3579 1358.21 35.2215C1358.97 32.2923 1362.38 41.0918 1362.41 46.0437C1362.43 50.8444 1361.94 51.4226 1359.55 49.4322Z" fill="#141301"/>
<path d="M1399.73 41.2652C1399.03 41.2652 1399.17 40.133 1400.04 38.747C1401.18 36.9338 1401.84 37.2904 1402.38 40.0162C1402.79 42.0992 1402.26 44.3656 1401.21 45.0526C1400.16 45.7396 1398.88 47.6173 1398.36 49.2249C1397.72 51.2214 1396.98 51.4308 1396.03 49.8896C1395.26 48.6487 1396.07 46.201 1397.82 44.4504C1399.57 42.6977 1400.43 41.2652 1399.73 41.2652Z" fill="#141301"/>
<path d="M1336.8 58.6107C1336.28 58.0829 1336.44 56.6828 1337.17 55.5023C1339.16 52.287 1340.32 52.9114 1338.96 56.4611C1338.3 58.1715 1337.33 59.1385 1336.8 58.6107Z" fill="#141301"/>
<path d="M1342.54 57.9197C1340.55 59.894 1340.32 59.6624 1341.41 56.7916C1342.17 54.8053 1343.3 53.6871 1343.92 54.3076C1344.54 54.9261 1343.92 56.5518 1342.54 57.9197Z" fill="#141301"/>
<path d="M1317.27 74.2882C1314.27 73.1358 1315.49 63.2262 1318.92 60.9376C1322.06 58.8445 1322.6 59.048 1320.96 61.7012C1320.17 62.9684 1319.61 66.5423 1319.69 69.6427C1319.8 73.4462 1319.01 74.957 1317.27 74.2882Z" fill="#141301"/>
<path d="M1319.48 82.1067C1320.18 80.1425 1323.96 74.5379 1327.89 69.6526C1335.06 60.73 1339.24 61.0062 1333.34 70.0113C1331.61 72.6605 1330.87 75.5795 1331.71 76.5002C1332.54 77.4209 1332.19 77.5801 1330.92 76.8548C1329.65 76.1296 1328.11 76.8305 1327.51 78.414C1326.9 79.9974 1324.56 82.2801 1322.3 83.4868C1318.79 85.3644 1318.39 85.1669 1319.48 82.1067Z" fill="#141301"/>
<path d="M1322.39 67.9926C1320.4 69.9669 1320.17 69.7353 1321.27 66.8646C1322.02 64.8782 1323.15 63.76 1323.77 64.3805C1324.39 64.999 1323.77 66.6247 1322.39 67.9926Z" fill="#141301"/>
<path d="M1304.82 76.9898C1304.15 76.325 1304.32 74.6326 1305.19 73.2285C1306.46 71.1736 1306.93 71.1738 1307.61 73.2206C1308.59 76.1418 1306.62 78.7929 1304.82 76.9898Z" fill="#141301"/>
<path d="M1311.02 83.5714C1309.41 83.5714 1308.82 82.0343 1309.47 79.5423C1310.05 77.3262 1311.7 75.5131 1313.13 75.5131C1314.73 75.5131 1315.32 77.0502 1314.67 79.5423C1314.09 81.7583 1312.45 83.5714 1311.02 83.5714Z" fill="#141301"/>
<path d="M1305.55 93.9202C1303.62 92.4093 1302.54 90.3685 1303.15 89.3874C1303.75 88.4043 1304.8 87.6006 1305.48 87.6006C1306.15 87.6006 1306.1 88.1968 1305.37 88.9261C1304.64 89.6554 1305.17 91.6941 1306.55 93.4589C1308.76 96.2914 1308.64 96.3458 1305.55 93.9202Z" fill="#141301"/>
<path d="M1330.2 102.71C1331.16 103.3 1332.51 102.861 1333.21 101.735C1334.93 98.9426 1338.26 99.1482 1338.26 102.047C1338.26 105.835 1331.92 111.776 1327.88 111.776C1323.21 111.776 1323.15 110.023 1327.69 106.308C1329.62 104.718 1329.94 104.08 1328.38 104.886C1326.5 105.861 1326.04 105.56 1327.01 103.995C1327.81 102.698 1329.25 102.12 1330.2 102.71Z" fill="#141301"/>
<path d="M1336.13 111.776C1334.96 111.776 1334.55 110.869 1335.24 109.761C1335.92 108.653 1336.88 107.746 1337.37 107.746C1337.86 107.746 1338.26 108.653 1338.26 109.761C1338.26 110.869 1337.3 111.776 1336.13 111.776Z" fill="#141301"/>
<path d="M1309.55 124.622C1310.94 124.02 1312.14 122.016 1312.23 120.17C1312.32 118.323 1312.82 117.85 1313.34 119.117C1313.86 120.384 1316.28 120.94 1318.72 120.354C1321.69 119.639 1322.49 119.955 1321.14 121.315C1320.03 122.431 1316.4 123.877 1313.08 124.53C1309.76 125.183 1308.17 125.225 1309.55 124.622Z" fill="#141301"/>
<path d="M1303.89 152.067C1302.72 152.067 1302.32 151.161 1303.01 150.053C1303.69 148.945 1304.65 148.038 1305.14 148.038C1305.63 148.038 1306.03 148.945 1306.03 150.053C1306.03 151.161 1305.07 152.067 1303.89 152.067Z" fill="#141301"/>
<path d="M1422.43 351.205H1461.19V363.061H1439.19V389.623H1456.52V401.365H1439.19V432.031H1461.42V443.545H1422.43V351.205ZM1507.22 400.909H1534.69V411.511H1507.22V400.909ZM1607.93 444.799C1599.57 444.799 1593.3 442.443 1589.12 437.731C1585.02 433.019 1582.78 425.989 1582.4 416.641L1596.88 413.791C1597.1 419.643 1598.02 424.127 1599.61 427.243C1601.28 430.283 1603.87 431.803 1607.36 431.803C1609.95 431.803 1611.85 431.043 1613.06 429.523C1614.36 427.927 1615 425.799 1615 423.139C1615 419.491 1614.17 416.413 1612.49 413.905C1610.9 411.321 1608.35 408.509 1604.86 405.469L1593.23 395.323C1589.66 392.283 1586.96 389.015 1585.13 385.519C1583.39 382.023 1582.51 377.843 1582.51 372.979C1582.51 365.759 1584.6 360.173 1588.78 356.221C1593.04 352.193 1598.89 350.179 1606.34 350.179C1614.32 350.179 1620.02 352.459 1623.44 357.019C1626.93 361.503 1628.95 367.583 1629.48 375.259L1615 377.767C1614.77 372.751 1614.05 368.989 1612.84 366.481C1611.7 363.897 1609.42 362.605 1606 362.605C1603.56 362.605 1601.66 363.441 1600.3 365.113C1598.93 366.709 1598.24 368.761 1598.24 371.269C1598.24 374.233 1598.81 376.741 1599.95 378.793C1601.17 380.769 1603.11 382.897 1605.77 385.177L1617.28 395.323C1621.61 399.047 1625 403.037 1627.43 407.293C1629.86 411.549 1631.08 416.489 1631.08 422.113C1631.08 426.521 1630.09 430.435 1628.11 433.855C1626.21 437.275 1623.51 439.973 1620.02 441.949C1616.52 443.849 1612.49 444.799 1607.93 444.799ZM1677.72 351.205H1694.48V389.737H1713.29V351.205H1730.16V443.545H1713.29V401.821H1694.48V443.545H1677.72V351.205ZM1805.96 444.799C1796.39 444.799 1789.55 442.253 1785.44 437.161C1781.34 431.993 1779.29 424.469 1779.29 414.589V379.933C1779.29 370.129 1781.34 362.719 1785.44 357.703C1789.55 352.687 1796.39 350.179 1805.96 350.179C1815.46 350.179 1822.26 352.687 1826.37 357.703C1830.47 362.719 1832.52 370.129 1832.52 379.933V414.589C1832.52 424.393 1830.43 431.879 1826.25 437.047C1822.15 442.215 1815.39 444.799 1805.96 444.799ZM1805.96 432.373C1809.69 432.373 1812.19 431.195 1813.49 428.839C1814.78 426.483 1815.42 423.063 1815.42 418.579V376.057C1815.42 371.573 1814.78 368.191 1813.49 365.911C1812.27 363.631 1809.76 362.491 1805.96 362.491C1802.16 362.491 1799.62 363.669 1798.32 366.025C1797.03 368.305 1796.39 371.649 1796.39 376.057V418.579C1796.39 423.063 1797.03 426.483 1798.32 428.839C1799.62 431.195 1802.16 432.373 1805.96 432.373ZM1881.48 351.205H1908.62C1924.35 351.205 1932.21 359.945 1932.21 377.425C1932.21 394.145 1923.97 402.505 1907.48 402.505H1898.24V443.545H1881.48V351.205ZM1904.74 390.649C1909.3 390.649 1912.38 389.699 1913.97 387.799C1915.57 385.823 1916.37 382.327 1916.37 377.311C1916.37 373.663 1916.1 370.889 1915.57 368.989C1915.04 367.013 1913.94 365.531 1912.26 364.543C1910.67 363.555 1908.16 363.061 1904.74 363.061H1898.24V390.649H1904.74Z" fill="white"/>
</svg>
