<svg width="1905" height="516" viewBox="0 0 1905 516" fill="none" xmlns="http://www.w3.org/2000/svg">
<path d="M341.872 16.8506C321.791 9.08634 300.89 3.9193 278.894 1.27982C268.992 0.0922092 238.809 -0.433207 229.566 0.421126C221.146 1.20022 206.517 3.27823 200.094 4.60885L194.82 5.70133L194.662 76.0533L194.504 146.405L192.49 147.051C191.383 147.406 171.071 153.142 147.353 159.797C123.635 166.452 98.2053 173.597 90.8415 175.675C83.4777 177.754 77.1252 179.454 76.7257 179.454C76.1753 179.454 75.9985 166.042 75.9985 124.292V69.1297L72.5381 72.5284C67.1095 77.8596 56.9598 89.4055 51.3228 96.663C26.9399 128.053 9.85453 166.811 3.45309 205.258C-8.97379 279.891 12.4463 353.906 62.7724 410.231C66.2402 414.112 70.6345 418.817 72.5381 420.686L75.9985 424.085L76.0034 318.402L76.0084 212.72L96.0137 206.95C107.017 203.776 133.61 196.068 155.109 189.821L194.199 178.463L194.509 192.575L194.82 206.688L204.747 195.689C208.747 191.258 229.592 168.162 256.017 138.886L286.65 104.948C326.236 61.0894 358.704 24.9786 358.8 24.7019C359.013 24.0894 351.096 20.4171 341.872 16.8506Z" fill="#FF0000"/>
<path d="M156.04 20.3655C156.04 22.1239 158.206 21.79 160.528 19.6735C162.721 17.6751 162.632 17.6222 158.677 18.5748C156.748 19.0399 156.04 19.5205 156.04 20.3655Z" fill="#FF0000"/>
<path d="M414.741 62.5587C415.103 62.5587 415.399 62.2789 415.399 61.9369C415.399 61.5949 415.276 61.3151 415.125 61.3151C414.974 61.3151 414.679 61.5949 414.468 61.9369C414.257 62.2789 414.38 62.5587 414.741 62.5587Z" fill="#FF0000"/>
<path d="M417.452 73.0339C420.247 70.9291 422.755 69.0147 423.025 68.779C423.296 68.5434 423.142 68.0385 422.684 67.6573C421.641 66.7905 416.719 70.5262 411.637 76.0427C408.047 79.9376 402.989 88.785 402.989 91.1676C402.989 92.3503 403.224 92.4821 404.695 92.1227C407.162 91.5208 409.176 89.2625 409.605 86.6193C409.906 84.7564 409.785 84.3212 408.965 84.3212C407.68 84.3212 407.683 83.4165 408.977 81.2222C409.946 79.5776 410.102 79.5284 411.911 80.2908C413.504 80.961 414.107 80.9486 415.523 80.2149C417.171 79.3606 418.896 77.0475 418.316 76.4674C418.159 76.3101 416.746 76.8063 415.177 77.5704C412.418 78.9135 411.115 78.8942 411.96 77.5232C412.185 77.1582 414.656 75.138 417.452 73.0339Z" fill="#FF0000"/>
<path d="M90.2694 73.7508C91.717 73.7508 92.1308 73.4747 92.1308 72.5072C92.1308 71.0193 90.7366 70.8844 89.3827 72.2405C88.0394 73.5873 88.1356 73.7508 90.2694 73.7508Z" fill="#FF0000"/>
<path d="M325.464 77.5002C326.475 78.0424 326.671 77.9423 326.671 76.8815C326.671 75.9382 326.266 75.6162 325.083 75.6162C323.357 75.6162 323.528 76.4618 325.464 77.5002Z" fill="#FF0000"/>
<path d="M498.938 221.235C493.251 169.416 472.936 123.562 437.935 83.5439C435.018 80.2093 432.594 77.4852 432.547 77.489C432.5 77.4933 424.211 87.2168 414.125 99.096C404.041 110.976 370.038 150.998 338.564 188.033C302.628 230.319 281.507 255.649 281.791 256.119C283.302 258.616 405.107 437.958 405.745 438.625C406.387 439.296 407.64 438.515 412.67 434.312C420.686 427.613 437.357 410.815 443.571 403.174C475.215 364.267 493.587 320.735 498.938 271.979C500.354 259.078 500.354 234.136 498.938 221.235Z" fill="#FF0000"/>
<path d="M391.573 82.4558C392.051 82.4558 392.441 82.176 392.441 81.834C392.441 80.7024 389.047 81.1631 388.276 82.3998C387.869 83.0533 386.685 83.7746 385.645 84.0041C384.605 84.2329 383.754 84.8024 383.754 85.27C383.754 85.8719 384.769 85.5853 387.23 84.2882C389.141 83.2803 391.096 82.4558 391.573 82.4558Z" fill="#FF0000"/>
<path d="M379.298 98.0005C380.017 98.0005 390.579 86.8239 390.579 86.0634C390.579 84.9784 388.879 85.6474 388.279 86.9681C387.928 87.7404 385.622 90.5384 383.154 93.186C380.687 95.8341 378.951 98.0005 379.298 98.0005Z" fill="#FF0000"/>
<path d="M387.808 100.488C388.62 100.488 394.148 97.3818 394.855 96.5287C395.286 96.0076 395.547 95.042 395.436 94.3817C395.241 93.2295 395.147 93.2382 393.061 94.613C391.867 95.4001 390.122 96.2265 389.183 96.4497C387.804 96.778 387.477 97.2033 387.477 98.6714C387.477 99.6706 387.626 100.488 387.808 100.488Z" fill="#FF0000"/>
<path d="M387.167 112.302C388.02 112.302 388.718 112.022 388.718 111.68C388.718 111.338 388.02 111.058 387.167 111.058C386.314 111.058 385.616 111.338 385.616 111.68C385.616 112.022 386.314 112.302 387.167 112.302Z" fill="#FF0000"/>
<path d="M375.048 121.582C374.411 120.039 374.522 119.581 376.012 117.624C377.226 116.029 377.442 115.41 376.786 115.41C375.37 115.41 370.759 119.006 369.982 120.716C369.087 122.683 365.955 122.913 365.649 121.033C365.464 119.901 365.224 119.956 362.221 121.819L358.992 123.822L360.365 126.3C361.204 127.813 362.643 129.223 364.06 129.918C366.874 131.3 366.979 132.477 364.545 135.331C360.538 140.029 363.41 140.396 368.809 135.875C370.886 134.136 372.586 132.579 372.586 132.415C372.586 132.251 372.291 131.565 371.931 130.89C371.074 129.287 371.54 127.968 373.865 125.418C375.586 123.529 375.701 123.159 375.048 121.582Z" fill="#FF0000"/>
<path d="M354.994 137.087C356.641 135.535 356.761 134.8 355.733 132.539C354.83 130.552 353.351 130.474 353.351 132.413C353.351 134.03 351.915 135.558 349.783 136.209C347.646 136.861 348.114 137.592 350.961 138.048C353.105 138.392 353.778 138.231 354.994 137.087Z" fill="#FF0000"/>
<path d="M344.975 135.929C346.112 135.929 346.526 135.598 346.526 134.686C346.526 133.3 346.107 133.181 344.509 134.114C342.943 135.028 343.175 135.929 344.975 135.929Z" fill="#FF0000"/>
<path d="M356.953 140.174C358.696 140.422 360.176 139.294 360.176 137.719C360.176 136.08 359.159 136.265 357.201 138.261L355.523 139.971L356.953 140.174Z" fill="#FF0000"/>
<path d="M350.578 148.228C353.023 147.574 353.351 147.279 353.351 145.749C353.351 143.568 352.554 143.551 346.836 145.606C344.447 146.465 342.027 147.324 341.458 147.515C340.888 147.705 339.926 147.584 339.32 147.243C337.533 146.241 336.385 149.062 337.315 152.172C338.113 154.842 338.793 155.224 339.39 153.339C339.712 152.323 340.329 152.096 342.773 152.096C345.281 152.096 345.927 151.844 346.784 150.534C347.424 149.556 348.842 148.694 350.578 148.228Z" fill="#FF0000"/>
<path d="M353.303 153.339C354.772 153.339 358.315 150.443 358.315 149.242C358.315 148.062 357.223 148.177 354.437 149.651C351.884 151.001 351.166 153.339 353.303 153.339Z" fill="#FF0000"/>
<path d="M313.641 153.339C313.982 153.339 314.261 152.78 314.261 152.096C314.261 151.412 313.982 150.852 313.641 150.852C313.299 150.852 313.02 151.412 313.02 152.096C313.02 152.78 313.299 153.339 313.641 153.339Z" fill="#FF0000"/>
<path d="M322.32 157.489C323.053 156.519 323.048 156.271 322.287 155.789C320.716 154.792 319.492 155.159 318.101 157.045C316.797 158.812 316.208 162.666 317.242 162.666C317.735 162.666 320.661 159.683 322.32 157.489Z" fill="#FF0000"/>
<path d="M337.538 157.563C335.58 157.4 333.65 156.839 332.991 156.242C332.362 155.672 331.729 155.233 331.585 155.268C328.626 155.987 327.291 156.791 327.291 157.854C327.291 158.805 327.604 159.009 328.687 158.763C334.474 157.447 334.118 157.43 334.095 159.013C334.082 159.825 333.673 161.189 333.186 162.044C332.077 163.988 332.044 164.532 333.038 164.532C333.469 164.532 334.098 163.902 334.435 163.133C334.83 162.229 336.089 161.403 337.991 160.801C342.234 159.457 342.022 157.936 337.538 157.563Z" fill="#FF0000"/>
<path d="M311.48 161.012C313.01 160.489 314.261 159.948 314.261 159.81C314.261 159.354 311.504 159.642 309.759 160.281C306.88 161.334 308.51 162.026 311.48 161.012Z" fill="#FF0000"/>
<path d="M327.527 167.894C328.352 167.576 328.343 167.285 327.451 165.411C326.895 164.244 326.283 163.292 326.09 163.297C325.897 163.301 323.926 164.85 321.709 166.739C319.492 168.628 316.63 170.636 315.349 171.203C312.396 172.508 312.115 174.48 314.882 174.48C316.122 174.48 316.743 174.791 316.743 175.413C316.743 175.926 316.31 176.345 315.781 176.345C314.211 176.345 311.198 178.149 308.306 180.82C306.186 182.778 305.268 183.243 304.101 182.949C302.04 182.431 301.584 180.885 303.232 180.001C303.966 179.607 305.912 178.025 307.556 176.484C310.069 174.128 310.42 173.532 309.766 172.737C309.143 171.981 309.143 171.738 309.763 171.529C310.949 171.129 310.687 170.259 309.242 169.799C308.319 169.506 307.683 169.763 307.035 170.69C306.534 171.407 305.734 171.993 305.258 171.993C304.551 171.993 304.578 172.321 305.408 173.769L306.425 175.545L301.967 179.839C299.515 182.201 297.508 184.455 297.508 184.848C297.508 185.241 298.695 185.759 300.145 185.998C301.595 186.237 303.709 186.816 304.842 187.283C306.73 188.061 307.062 188.016 308.809 186.747C310.168 185.76 310.794 185.585 310.989 186.139C311.309 187.049 313.02 187.196 313.02 186.313C313.02 185.981 314.105 185.083 315.432 184.319C317.785 182.961 317.819 182.89 316.86 181.422C315.931 180.002 315.957 179.849 317.308 178.752C318.097 178.113 319.672 177.589 320.808 177.589C323.677 177.589 323.903 176.77 321.72 174.28C319.582 171.839 319.457 171.228 320.82 169.861C322.508 168.17 323.568 168.661 323.568 171.133C323.568 173.171 323.699 173.343 324.964 172.974C325.732 172.75 327.267 172.401 328.377 172.198C329.801 171.938 330.393 171.489 330.393 170.668C330.393 169.57 329.782 169.242 328.113 169.449C326.972 169.59 326.484 168.295 327.527 167.894Z" fill="#FF0000"/>
<path d="M302.992 168.884C303.296 168.884 305.327 168.058 307.507 167.047L311.469 165.211L307.917 165.182C304.586 165.155 304.306 165.269 303.403 167.019C302.873 168.045 302.689 168.884 302.992 168.884Z" fill="#FF0000"/>
<path d="M330.497 180.076C332.059 180.076 339.08 173.174 339.08 171.638C339.08 171.023 338.352 170.749 336.713 170.749C334.663 170.749 334.211 171.02 333.338 172.77C332.783 173.882 331.599 175.98 330.706 177.434L329.082 180.076H330.497Z" fill="#FF0000"/>
<path d="M285.447 174.48C285.938 174.48 286.34 173.92 286.34 173.237C286.34 172.553 285.98 171.993 285.541 171.993C285.102 171.993 284.7 172.553 284.649 173.237C284.595 173.947 284.938 174.48 285.447 174.48Z" fill="#FF0000"/>
<path d="M293.475 176.967C294.612 176.967 295.026 176.636 295.026 175.724C295.026 174.812 294.612 174.48 293.475 174.48C292.338 174.48 291.924 174.812 291.924 175.724C291.924 176.636 292.338 176.967 293.475 176.967Z" fill="#FF0000"/>
<path d="M274.085 184.091C275.618 183.628 279.274 180.396 280.207 178.677C281.36 176.556 278.346 177.496 275.468 180.155C272.407 182.982 271.772 184.789 274.085 184.091Z" fill="#FF0000"/>
<path d="M326.05 187.538C326.391 187.538 326.671 186.978 326.671 186.294C326.671 185.61 326.391 185.05 326.05 185.05C325.709 185.05 325.43 185.61 325.43 186.294C325.43 186.978 325.709 187.538 326.05 187.538Z" fill="#FF0000"/>
<path d="M280.755 191.784C280.755 190.969 280.32 189.68 279.789 188.92C279.258 188.159 278.281 187.538 277.618 187.538C276.248 187.538 276.07 188.19 277.145 189.267C277.709 189.833 277.423 190.57 275.904 192.464C274.819 193.818 273.93 195.082 273.93 195.273C273.93 195.892 282.04 195.641 283.264 194.985C283.916 194.635 284.766 193.758 285.151 193.035C285.796 191.829 285.725 191.754 284.293 192.114C283.434 192.33 282.287 192.678 281.744 192.887C281.01 193.169 280.755 192.885 280.755 191.784Z" fill="#FF0000"/>
<path d="M265.845 206.454C267.282 204.547 268.342 202.871 268.201 202.73C268.06 202.589 267.128 202.318 266.129 202.128C264.64 201.845 263.686 202.281 260.835 204.547C257.875 206.9 256.557 208.476 256.557 209.662C256.557 209.805 258.059 209.922 259.895 209.922C263.221 209.922 263.242 209.909 265.845 206.454Z" fill="#FF0000"/>
<path d="M296.267 204.326C296.608 204.326 296.888 203.766 296.888 203.082C296.888 202.398 296.608 201.839 296.267 201.839C295.926 201.839 295.647 202.398 295.647 203.082C295.647 203.766 295.926 204.326 296.267 204.326Z" fill="#FF0000"/>
<path d="M310.491 205.658C310.994 204.717 310.819 204.371 309.553 203.792C306.992 202.623 306.195 202.897 306.195 204.948C306.195 206.601 306.404 206.813 308.035 206.813C309.192 206.813 310.103 206.385 310.491 205.658Z" fill="#FF0000"/>
<path d="M290.268 212.232C291.964 208.65 291.671 207.808 288.356 206.727C286.736 206.198 284.92 205.551 284.323 205.29C283.552 204.953 283.237 205.094 283.237 205.777C283.237 206.306 283.516 206.912 283.858 207.124C284.925 207.785 284.54 208.686 282.927 209.3C281.296 209.921 280.885 210.898 282.085 211.299C282.609 211.474 282.616 211.872 282.108 212.822C281.321 214.295 282.382 218.005 283.59 218.005C285.032 218.005 289.269 214.342 290.268 212.232Z" fill="#FF0000"/>
<path d="M115.895 211.165C116.789 211.165 118.191 209.95 118.191 209.176C118.191 208.902 117.493 208.678 116.64 208.678C115.502 208.678 115.088 209.01 115.088 209.922C115.088 210.606 115.451 211.165 115.895 211.165Z" fill="#FF0000"/>
<path d="M123.152 212.409C124.296 212.409 125.636 210.754 125.636 209.341C125.636 207.825 122.994 209.406 122.33 211.321C122.056 212.112 122.28 212.409 123.152 212.409Z" fill="#FF0000"/>
<path d="M301.398 210.975C302.002 211.132 302.839 211.122 303.259 210.952C303.679 210.781 303.186 210.652 302.162 210.665C301.138 210.677 300.794 210.817 301.398 210.975Z" fill="#FF0000"/>
<path d="M116.256 224.223C116.973 224.223 131.609 214.532 132.104 213.73C133.06 212.179 130.634 213.219 125.636 216.502C122.736 218.407 119.997 220.321 119.55 220.755C118.929 221.357 118.124 221.389 116.138 220.889C112.856 220.063 113.005 220.205 113.819 218.68C114.218 217.932 114.262 217.383 113.921 217.383C113.425 217.383 111.925 219.122 108.698 223.439C108.294 223.98 108.56 224.373 109.589 224.755C110.723 225.176 111.239 225.036 111.866 224.139C112.737 222.894 114.771 222.584 115.399 223.601C115.61 223.943 115.995 224.223 116.256 224.223Z" fill="#FF0000"/>
<path d="M260.9 215.518C261.241 215.518 261.521 214.958 261.521 214.274C261.521 213.59 261.241 213.031 260.9 213.031C260.559 213.031 260.28 213.59 260.28 214.274C260.28 214.958 260.559 215.518 260.9 215.518Z" fill="#FF0000"/>
<path d="M266.174 226.803C267.638 226.174 268.642 224.757 270.879 220.163L273.721 214.323L272.11 213.76C270.644 213.248 270.292 213.479 268.209 216.311L265.92 219.425L267.443 220.625C269.424 222.187 269.372 222.478 266.875 223.826C264.333 225.197 258.017 231.489 258.597 232.07C258.826 232.3 260.206 231.389 261.663 230.046C263.12 228.703 265.15 227.244 266.174 226.803Z" fill="#FF0000"/>
<path d="M238.365 219.49C240.505 218.915 240.601 217.506 238.572 216.456C235.931 215.086 235.461 215.274 235.461 217.694C235.461 219.933 235.842 220.168 238.365 219.49Z" fill="#FF0000"/>
<path d="M297.043 219.098C297.81 218.59 298.528 217.576 298.637 216.845C298.796 215.783 298.518 215.518 297.241 215.518C295.822 215.518 295.647 215.766 295.647 217.77C295.647 219.965 295.682 219.999 297.043 219.098Z" fill="#FF0000"/>
<path d="M251.689 222.904C252.379 220.597 252.339 220.257 251.285 219.484C250.641 219.012 249.903 218.627 249.645 218.627C248.758 218.627 246.009 222.785 246.009 224.126C246.009 225.273 246.363 225.467 248.466 225.467C250.807 225.467 250.959 225.345 251.689 222.904Z" fill="#FF0000"/>
<path d="M276.722 221.114C277.239 221.114 277.653 220.561 277.653 219.87C277.653 219.18 277.239 218.627 276.722 218.627C276.205 218.627 275.792 219.18 275.792 219.87C275.792 220.561 276.205 221.114 276.722 221.114Z" fill="#FF0000"/>
<path d="M91.2243 224.557C92.4057 223.655 93.3718 222.371 93.3718 221.704C93.3718 220.159 92.9257 220.211 90.3203 222.054C87.7 223.909 87.1887 224.692 87.1763 226.866C87.1658 228.823 88.1405 229.157 88.7008 227.387C88.9074 226.734 90.0435 225.46 91.2243 224.557Z" fill="#FF0000"/>
<path d="M217.467 228.575C218.109 228.575 218.807 228.296 219.018 227.954C219.243 227.59 218.599 227.332 217.467 227.332C216.335 227.332 215.691 227.59 215.916 227.954C216.127 228.296 216.825 228.575 217.467 228.575Z" fill="#FF0000"/>
<path d="M99.2663 231.063C100.404 231.063 100.817 230.731 100.817 229.819C100.817 228.907 100.404 228.575 99.2663 228.575C98.129 228.575 97.7151 228.907 97.7151 229.819C97.7151 230.731 98.129 231.063 99.2663 231.063Z" fill="#FF0000"/>
<path d="M241.957 230.958C240.849 231.464 239.993 231.497 239.189 231.066C237.419 230.117 237.034 230.281 236.271 232.306L235.569 234.172H237.997C239.618 234.172 240.424 234.449 240.424 235.009C240.424 235.47 236.934 238.327 232.669 241.359C225.465 246.479 223.957 247.851 225.533 247.851C225.874 247.851 226.154 247.585 226.154 247.261C226.154 246.936 227.122 247.076 228.305 247.572C231.06 248.725 230.801 248.8 232.19 246.452C232.848 245.34 235.978 241.538 239.146 238.003C243.286 233.383 244.717 231.385 244.234 230.9C243.75 230.415 243.109 230.431 241.957 230.958Z" fill="#FF0000"/>
<path d="M225.49 234.172C225.831 234.172 226.409 233.612 226.774 232.928C227.201 232.128 227.217 231.684 226.817 231.684C226.476 231.684 225.898 232.244 225.533 232.928C225.106 233.728 225.09 234.172 225.49 234.172Z" fill="#FF0000"/>
<path d="M264.313 234.172C264.83 234.172 265.243 233.619 265.243 232.928C265.243 232.237 264.83 231.684 264.313 231.684C263.796 231.684 263.382 232.237 263.382 232.928C263.382 233.619 263.796 234.172 264.313 234.172Z" fill="#FF0000"/>
<path d="M260.354 238.745C260.796 238.212 260.868 237.63 260.533 237.305C260.223 237.006 258.713 236.581 257.177 236.36L254.385 235.96L247.78 243.304C244.147 247.344 241.323 250.789 241.505 250.96C241.687 251.131 241.96 250.921 242.112 250.493C242.422 249.622 244.147 249.418 244.147 250.252C244.147 250.546 245.224 250.499 246.54 250.147C248.92 249.51 248.928 249.497 247.985 247.851C247.464 246.94 247.205 245.756 247.41 245.22C247.615 244.683 249.652 242.909 251.935 241.277C255.704 238.581 256.248 238.369 257.849 238.975C259.236 239.5 259.77 239.45 260.354 238.745Z" fill="#FF0000"/>
<path d="M217.106 242.255C219.179 242.255 220.569 241.644 220.569 240.734C220.569 240.312 219.885 239.655 219.048 239.273C217.673 238.645 217.358 238.799 215.749 240.883C212.869 244.614 211.453 246.827 210.992 248.317C210.619 249.52 210.784 249.716 212.169 249.716C214.081 249.716 220.575 246.549 221.847 244.996C222.666 243.996 222.611 243.942 221.19 244.348C220.337 244.591 218.731 244.956 217.622 245.158C215.765 245.497 215.605 245.397 215.605 243.891C215.605 242.575 215.899 242.255 217.106 242.255Z" fill="#FF0000"/>
<path d="M267.725 240.751C267.725 241.459 268.757 240.869 269.443 239.768C270.079 238.746 270.063 238.524 269.348 238.524C268.623 238.524 267.725 239.756 267.725 240.751Z" fill="#FF0000"/>
<path d="M177.176 252.203C178.45 252.203 182.1 248.928 182.1 247.785C182.1 246.201 177.706 248.731 176.484 251.019C175.954 252.012 176.066 252.203 177.176 252.203Z" fill="#FF0000"/>
<path d="M225.533 252.203C225.874 252.203 226.154 251.644 226.154 250.96C226.154 250.276 225.874 249.716 225.533 249.716C225.192 249.716 224.913 250.276 224.913 250.96C224.913 251.644 225.192 252.203 225.533 252.203Z" fill="#FF0000"/>
<path d="M95.5434 256.556C96.8533 256.556 97.0946 256.265 97.0946 254.69C97.0946 252.735 96.0609 252.244 94.7368 253.571C93.4009 254.91 93.8452 256.556 95.5434 256.556Z" fill="#FF0000"/>
<path d="M214.699 259.862C215.677 258.882 215.672 258.764 214.625 257.997C214.01 257.546 213.151 257.178 212.716 257.178C211.909 257.178 210.642 259.052 210.642 260.245C210.642 261.292 213.547 261.017 214.699 259.862Z" fill="#FF0000"/>
<path d="M89.5031 272.1C90.1627 272.1 91.5103 270.765 91.5103 270.111C91.5103 269.146 90.3048 269.629 89.6489 270.857C89.2835 271.541 89.2177 272.1 89.5031 272.1Z" fill="#FF0000"/>
<path d="M157.737 271.729C158.484 272.477 159.142 272.069 159.142 270.857C159.142 270.173 158.893 269.613 158.588 269.613C157.891 269.613 157.24 271.231 157.737 271.729Z" fill="#FF0000"/>
<path d="M169.358 277.697C169.858 277.697 170.566 277.137 170.931 276.453C171.514 275.361 171.403 275.209 170.022 275.209C168.863 275.209 168.449 275.536 168.449 276.453C168.449 277.137 168.858 277.697 169.358 277.697Z" fill="#FF0000"/>
<path d="M286.185 287.978C288.558 286.871 289.442 286.114 289.442 285.187C289.442 283.651 286.681 283.37 286.114 284.849C285.918 285.363 284.437 286.622 282.825 287.647C280.328 289.233 280.118 289.51 281.409 289.504C282.244 289.501 284.393 288.815 286.185 287.978Z" fill="#FF0000"/>
<path d="M186.164 288.471C186.637 287.846 187.033 286.985 187.044 286.557C187.065 285.712 186.881 285.695 184.628 286.325C182.624 286.887 182.337 288.018 183.974 288.895C185.069 289.483 185.455 289.408 186.164 288.471Z" fill="#FF0000"/>
<path d="M265.864 295.853C265.864 296.818 267.07 296.335 267.725 295.107C268.091 294.423 268.157 293.863 267.871 293.863C267.212 293.863 265.864 295.199 265.864 295.853Z" fill="#FF0000"/>
<path d="M276.336 298.448C278.878 297.939 279.369 297.097 277.368 296.679C276.501 296.498 275.094 296.205 274.24 296.027C273.173 295.805 272.689 295.975 272.689 296.573C272.689 298.057 274.26 298.865 276.336 298.448Z" fill="#FF0000"/>
<path d="M257.921 300.157C258.671 299.879 259.392 299.328 259.524 298.933C259.664 298.514 259.096 298.215 258.16 298.215C256.979 298.215 256.557 298.538 256.557 299.439C256.557 300.438 256.807 300.57 257.921 300.157Z" fill="#FF0000"/>
<path d="M152.937 301.946C153.279 301.946 153.558 301.387 153.558 300.703C153.558 300.019 153.279 299.459 152.937 299.459C152.596 299.459 152.317 300.019 152.317 300.703C152.317 301.387 152.596 301.946 152.937 301.946Z" fill="#FF0000"/>
<path d="M262.499 320.6C265.204 320.6 269.222 317.184 267.673 316.202C266.412 315.402 265.502 315.497 264.656 316.518C264.249 317.009 263.099 317.591 262.098 317.811C260.857 318.085 260.28 318.591 260.28 319.405C260.28 320.361 260.724 320.6 262.499 320.6Z" fill="#FF0000"/>
<path d="M285.133 323.673C285.444 323.18 285.619 322.523 285.522 322.214C285.424 321.904 284.781 321.442 284.092 321.187C283.191 320.852 282.631 321.056 282.097 321.913C281.456 322.941 281.574 323.204 282.961 323.837C284.265 324.432 284.674 324.402 285.133 323.673Z" fill="#FF0000"/>
<path d="M223.402 327.439C224.21 327.439 226.154 326.106 226.154 325.552C226.154 325.222 225.455 324.952 224.602 324.952C223.465 324.952 223.051 325.284 223.051 326.196C223.051 326.88 223.209 327.439 223.402 327.439Z" fill="#FF0000"/>
<path d="M251.401 327.963C252.598 326.967 252.398 326.377 250.72 325.955C249.898 325.748 248.851 325.435 248.392 325.258C247.933 325.082 247.232 325.46 246.833 326.099C246.193 327.127 246.369 327.342 248.349 327.95C249.962 328.447 250.815 328.45 251.401 327.963Z" fill="#FF0000"/>
<path d="M319.037 483.903C319.27 483.67 295.188 448.576 229.057 352.777C220.853 340.894 213.982 331.186 213.787 331.204C213.281 331.253 110.037 450.373 110 450.95C109.901 452.523 138.136 467.926 152.007 473.866C166.884 480.238 189.377 486.856 205.684 489.661C222.136 492.491 230.069 493.109 250.042 493.119C270.651 493.13 278.864 492.46 295.742 489.395C303.826 487.927 318.466 484.476 319.037 483.903Z" fill="#FF0000"/>
<path d="M266.952 335.671C266.749 336.283 266.35 336.283 265.01 335.671C264.083 335.247 262.663 334.901 261.856 334.901C260.482 334.901 260.433 335.021 261.09 336.766C261.622 338.178 262.184 338.632 263.402 338.632C264.38 338.632 265.711 337.9 266.795 336.766C267.776 335.74 268.27 334.901 267.893 334.901C267.516 334.901 267.093 335.247 266.952 335.671Z" fill="#FF0000"/>
<path d="M231.738 339.965C231.738 340.872 234.645 340.549 235.473 339.549C235.905 339.028 236.148 338.515 236.015 338.41C235.553 338.046 231.738 339.434 231.738 339.965Z" fill="#FF0000"/>
<path d="M248.491 347.026C248.832 346.814 249.111 346.518 249.111 346.367C249.111 346.216 248.832 346.093 248.491 346.093C248.149 346.093 247.87 346.39 247.87 346.751C247.87 347.113 248.149 347.237 248.491 347.026Z" fill="#FF0000"/>
<path d="M258.148 347.154C257.811 348.04 257.882 348.112 258.495 347.503C258.92 347.08 259.11 346.579 258.919 346.388C258.728 346.196 258.381 346.541 258.148 347.154Z" fill="#FF0000"/>
<path d="M245.359 351.301C246.151 353.39 247.111 353.378 247.911 351.271C248.753 349.051 247.515 347.606 245.84 348.852C244.953 349.512 244.86 349.986 245.359 351.301Z" fill="#FF0000"/>
<path d="M250.973 351.106C250.973 352.053 254.476 351.77 255.316 350.756C255.741 350.243 255.845 349.868 255.547 349.923C255.249 349.978 254.098 350.136 252.989 350.273C251.88 350.411 250.973 350.786 250.973 351.106Z" fill="#FF0000"/>
<path d="M254.646 360.581C256.379 358.632 257.798 356.813 257.798 356.539C257.798 355.425 256.696 356.19 254.484 358.841C253.199 360.381 251.116 362.188 249.854 362.856L247.56 364.07L249.527 364.097C251.152 364.12 252.04 363.51 254.646 360.581Z" fill="#FF0000"/>
<path d="M274.861 360.394C275.378 360.394 275.792 359.841 275.792 359.15C275.792 358.46 275.378 357.907 274.861 357.907C274.344 357.907 273.93 358.46 273.93 359.15C273.93 359.841 274.344 360.394 274.861 360.394Z" fill="#FF0000"/>
<path d="M358.055 402.054C358.198 402.054 358.315 401.634 358.315 401.121C358.315 399.787 357.509 399.97 356.541 401.522C355.805 402.703 355.829 402.81 356.753 402.455C357.326 402.234 357.913 402.054 358.055 402.054Z" fill="#FF0000"/>
<path d="M364.209 401.432C365.062 401.432 365.76 401.152 365.76 400.81C365.76 400.468 365.062 400.188 364.209 400.188C363.356 400.188 362.658 400.468 362.658 400.81C362.658 401.152 363.356 401.432 364.209 401.432Z" fill="#FF0000"/>
<path d="M356.671 409.394C358.606 409.116 358.629 407.359 356.733 404.866C354.981 402.565 353.492 401.886 354.316 403.764C354.578 404.362 354.918 405.916 355.071 407.218C355.305 409.209 355.559 409.554 356.671 409.394Z" fill="#FF0000"/>
<path d="M365.103 418.22C366.372 418.22 370.718 411.848 370.722 409.981C370.723 409.383 370.445 408.893 370.104 408.893C369.763 408.893 369.483 409.422 369.483 410.068C369.483 411.735 367.607 413.744 365.605 414.219C364.077 414.582 363.899 414.455 363.899 413.002C363.899 412.11 363.62 411.38 363.279 411.38C362.937 411.38 362.658 411.538 362.658 411.73C362.658 412.732 364.726 418.22 365.103 418.22Z" fill="#FF0000"/>
<path d="M343.268 416.243C344.456 416.411 344.664 416.156 344.664 414.533C344.664 412.898 344.435 412.624 343.072 412.624C341.701 412.624 341.507 412.862 341.676 414.334C341.816 415.558 342.269 416.1 343.268 416.243Z" fill="#FF0000"/>
<path d="M349.783 416.243C350.783 416.1 351.235 415.558 351.375 414.334C351.545 412.862 351.351 412.624 349.979 412.624C348.616 412.624 348.387 412.898 348.387 414.533C348.387 416.156 348.596 416.411 349.783 416.243Z" fill="#FF0000"/>
<path d="M376.673 416.977C377.922 416.977 378.17 416.669 378.17 415.111C378.17 414.009 377.845 413.246 377.375 413.246C376.938 413.246 376.265 414.085 375.878 415.111C375.218 416.863 375.267 416.977 376.673 416.977Z" fill="#FF0000"/>
<path d="M371.345 421.815C371.345 422.563 373.741 423.836 374.089 423.273C374.265 422.987 373.719 422.44 372.877 422.055C372.034 421.67 371.345 421.562 371.345 421.815Z" fill="#FF0000"/>
<path d="M369.483 426.428C369.483 427.437 371.322 426.885 371.965 425.681C372.475 424.726 372.437 424.438 371.801 424.438C370.889 424.438 369.483 425.645 369.483 426.428Z" fill="#FF0000"/>
<path d="M353.645 428.162C352.783 427.834 351.916 427.141 351.717 426.624C351.103 425.019 348.728 425.581 346.535 427.848C344.237 430.224 344.386 431.266 346.863 430.135C350.61 428.424 351.346 429.982 348.387 433.359C346.122 435.943 345.889 437.259 347.883 436.189C349.655 435.239 355.212 430.024 355.212 429.311C355.212 429.008 354.507 428.491 353.645 428.162Z" fill="#FF0000"/>
<path d="M309.411 450.733C309.076 452.471 310.983 451.974 313.492 449.67C314.766 448.5 315.625 447.36 315.401 447.136C315.178 446.912 314.734 447.196 314.416 447.767C314.097 448.337 312.887 448.999 311.726 449.237C310.457 449.497 309.534 450.094 309.411 450.733Z" fill="#FF0000"/>
<path d="M314.591 460.501C315.709 460.501 316.122 460.166 316.122 459.258C316.122 458.574 316.053 458.047 315.967 458.086C315.882 458.126 315.348 458.282 314.779 458.433C313.003 458.904 312.857 460.501 314.591 460.501Z" fill="#FF0000"/>
<path d="M622.509 206.148L622.909 179.608C623.221 158.821 622.903 153.103 621.443 153.237C620.417 153.333 613.148 155.766 605.289 158.644L591 163.879V190.555V217.234L606.754 211.691L622.509 206.148Z" fill="white"/>
<path d="M677.357 197.889C693.538 174.153 706.776 154.359 706.776 153.9C706.776 153.441 699.643 153.066 690.925 153.066H675.072L649.524 188.523C627.697 218.815 623.907 223.405 623.511 220.031C623.256 217.859 622.597 216.079 622.046 216.074C621.494 216.07 614.287 218.542 606.03 221.57L591.018 227.075L591.009 274.631C591.004 301.4 591.553 321.578 592.265 320.794C592.961 320.029 601.635 307.532 611.541 293.023C621.448 278.514 630.05 266.076 630.66 265.385C631.27 264.693 641.471 277.058 653.331 292.863L674.896 321.6H690.835C699.604 321.6 706.776 321.247 706.776 320.816C706.776 320.384 699.982 310.987 691.678 299.933C683.374 288.878 670.135 271.106 662.258 260.439L647.937 241.042L677.357 197.889Z" fill="white"/>
<path d="M848.348 203.758C839.325 182.161 815.173 161.229 792.447 155.31C781.686 152.506 759.97 152.552 749.381 155.398C720.764 163.09 695.692 187.806 688.502 215.412C685.631 226.433 685.626 246.694 688.489 257.909C695.862 286.792 720.581 312.057 748.605 319.357C759.625 322.228 779.886 322.234 791.102 319.37C821.026 311.73 847.386 285.002 853.355 256.249C855.312 246.825 854.787 221.315 852.595 219.224C851.655 218.328 845.735 219.97 836.089 223.799L821.047 229.771L821.935 234.502C823.263 241.58 819.906 255.498 815.004 263.233C801.813 284.058 780.647 293.059 758.32 287.34C743.222 283.472 728.829 271.424 722.428 257.296C717.646 246.743 717.984 228.273 723.16 217.229C728.359 206.14 738.923 195.082 749.093 190.088C756.272 186.562 759.038 186.046 770.526 186.084C780.799 186.118 785.231 186.818 790.568 189.251C799.703 193.415 810.221 203.327 815.583 212.83C820.56 221.648 819.014 221.599 838.271 213.538L850.326 208.492L848.348 203.758Z" fill="white"/>
<path d="M975.698 255.983L934.664 204.538C912.095 176.242 892.97 153.139 892.164 153.198C891.358 153.256 883.942 155.725 875.686 158.68L860.671 164.057L860.664 195.357C860.657 219.752 861.06 226.519 862.487 226.036C863.495 225.696 870.714 223.481 878.532 221.116C891.792 217.105 892.773 216.542 893.187 212.726C893.572 209.16 900.982 217.915 950.784 280.787L1007.94 352.939L1008.32 253.501C1008.52 198.811 1008.52 153.901 1008.32 153.702C1008.11 153.504 1000.86 155.752 992.206 158.698L976.471 164.056L976.085 210.02L975.698 255.983Z" fill="white"/>
<path d="M1131.78 171.019C1134.46 163.16 1136.94 155.906 1137.3 154.898C1137.81 153.453 1125.71 153.066 1079.91 153.066H1021.86V190.535C1021.86 225.561 1022.03 227.951 1024.43 227.171C1025.84 226.714 1032.93 224.132 1040.18 221.437L1053.37 216.535L1053.79 200.921L1054.2 185.307H1090.55H1126.9L1131.78 171.019Z" fill="white"/>
<path d="M1255.98 185.307C1256.18 185.307 1256.34 178.053 1256.34 169.187V153.066L1228.13 153.188C1196.03 153.327 1188.19 154.679 1171.39 162.977C1149.52 173.784 1134.25 194.194 1130.24 217.972C1127.75 232.72 1129.21 256.797 1133.3 268.581C1139.79 287.281 1154.35 303.248 1173.51 312.681C1188 319.818 1199.19 321.735 1223.63 321.274L1245.09 320.868L1250.68 305.113L1256.29 289.359H1234.53C1222.57 289.359 1209.28 288.695 1204.99 287.882C1187.02 284.474 1171.36 273.307 1165.4 259.649C1160.37 248.112 1160.54 227.302 1165.77 215.907C1173.51 199.028 1186.51 189.635 1206.04 186.812C1222.66 184.409 1222.64 184.403 1222.64 191.326C1222.64 196.467 1223.01 197.197 1225.2 196.332C1229.19 194.758 1255.57 185.309 1255.98 185.307Z" fill="white"/>
<path d="M1365.11 184.575L1370.73 168.82L1376.34 153.066H1324.36C1284.11 153.066 1272.22 153.479 1271.69 154.898C1269.15 161.768 1262.21 183.144 1262.21 184.117C1262.21 184.771 1269.13 185.307 1277.59 185.307H1292.98V210.847V236.388L1308.37 231.235L1323.76 226.082V205.735V185.388L1344.44 184.981L1365.11 184.575Z" fill="white"/>
<path d="M1495.17 352.01C1495.15 351.003 1481.06 305.993 1463.88 251.988L1432.63 153.799L1406.04 153.399L1379.45 153V190.365V227.731L1395.2 222.221L1410.96 216.71L1411.69 209.176C1412.39 201.937 1413.43 204.626 1438.06 277.742L1463.71 353.842H1479.46C1491.12 353.842 1495.21 353.366 1495.17 352.01Z" fill="white"/>
<path d="M1598.78 210.221C1591.57 182.59 1571.82 162.025 1545.78 155.061C1540.74 153.712 1528.52 153.095 1506.58 153.084L1474.71 153.066V190.594C1474.71 219.983 1475.1 227.982 1476.54 227.476C1477.55 227.122 1484.8 224.596 1492.66 221.865L1506.95 216.9V200.887V184.877L1521.18 185.725C1533.44 186.458 1536.73 187.248 1544.99 191.448C1560.71 199.441 1568.52 214.424 1568.48 236.501C1568.45 251.622 1565.54 262.823 1559.46 271.292C1549.75 284.807 1538.95 289.359 1516.59 289.359H1506.11L1501.29 303.648C1498.64 311.506 1496.14 318.762 1495.73 319.769C1494.45 322.911 1534.75 322.24 1546.73 318.919C1573.12 311.6 1593.57 289.62 1599.46 262.247C1602.18 249.589 1601.82 221.862 1598.78 210.221Z" fill="white"/>
<path d="M1767.11 203.48C1758.14 182.013 1734.08 161.236 1711.33 155.31C1700.57 152.506 1678.85 152.552 1668.26 155.398C1639.64 163.09 1614.57 187.806 1607.38 215.412C1604.51 226.433 1604.5 246.694 1607.37 257.909C1614.74 286.792 1639.46 312.057 1667.48 319.357C1678.5 322.228 1698.77 322.234 1709.98 319.37C1739.91 311.73 1766.27 285.002 1772.23 256.249C1774.19 246.825 1773.67 221.315 1771.47 219.224C1770.53 218.328 1764.61 219.97 1754.97 223.799L1739.93 229.771L1740.81 234.502C1742.14 241.58 1738.79 255.498 1733.88 263.233C1720.69 284.058 1699.53 293.059 1677.2 287.34C1662.1 283.472 1647.71 271.424 1641.31 257.296C1636.52 246.743 1636.86 228.273 1642.04 217.229C1647.24 206.14 1657.8 195.082 1667.97 190.088C1675.15 186.562 1677.92 186.046 1689.41 186.084C1699.68 186.118 1704.11 186.818 1709.45 189.251C1718.58 193.415 1729.1 203.327 1734.46 212.83C1739.44 221.648 1737.89 221.599 1757.15 213.538L1769.21 208.492L1767.11 203.48Z" fill="white"/>
<path d="M1889.28 172.852C1891.76 166.002 1894.2 158.748 1894.71 156.731L1895.63 153.066L1859.2 153.164C1821.92 153.264 1817.1 153.849 1805.91 159.615C1795.79 164.839 1789.94 170.726 1785.08 180.596C1780.61 189.678 1780.27 191.422 1780.27 205.061C1780.27 217.33 1780.79 220.711 1783.44 225.609C1789.66 237.125 1803.14 246.576 1815.29 247.945L1821.57 248.653L1826.93 233.724C1829.88 225.512 1832.29 218.268 1832.29 217.625C1832.29 216.982 1828.95 216.135 1824.86 215.742C1815.49 214.842 1812.51 212.008 1812.72 204.197C1812.9 197.067 1816.68 191.405 1823.6 187.875C1827.87 185.699 1832.87 185.312 1856.7 185.31L1884.77 185.307L1889.28 172.852Z" fill="white"/>
<path d="M1243.52 210.19C1256.22 205.592 1256.34 205.501 1256.34 200.556C1256.34 194.221 1255.3 194.241 1236.93 200.949L1222.64 206.166V211.309C1222.64 216.136 1222.88 216.4 1226.67 215.641C1228.89 215.197 1236.47 212.743 1243.52 210.19Z" fill="white"/>
<path d="M1891.72 245.764C1886.82 234.917 1877.96 226.165 1866.63 220.975C1862.26 218.975 1855.22 216.99 1850.98 216.567L1843.28 215.796L1838.32 230.228C1835.59 238.166 1833.08 245.391 1832.75 246.282C1832.37 247.303 1835.34 248.194 1840.77 248.687C1856.37 250.101 1863.07 256.294 1863.07 269.284C1863.07 277.541 1858.19 285.071 1851.29 287.445C1848.09 288.547 1835.91 289.224 1818.36 289.277L1790.5 289.359L1785.38 304.249C1782.57 312.438 1780.04 319.725 1779.76 320.438C1779.46 321.181 1795.79 321.552 1817.86 321.303C1854.74 320.887 1856.87 320.71 1865.26 317.331C1871.24 314.924 1876.65 311.182 1882.24 305.593C1892.94 294.893 1896.08 286.318 1895.95 268.109C1895.87 256.895 1895.24 253.548 1891.72 245.764Z" fill="white"/>
<path d="M1106.13 257.851L1111.55 242.096L1116.98 226.342L1085.17 226.469L1053.37 226.597L1037.62 231.915L1021.86 237.234V253.038C1021.86 261.73 1022.11 268.842 1022.41 268.842C1022.72 268.842 1029.48 266.73 1037.44 264.149C1050.97 259.759 1053.65 259.404 1079.02 258.654L1106.13 257.851Z" fill="white"/>
<path d="M1411.69 247.977V237.159C1411.69 231.21 1411.2 226.396 1410.59 226.461C1409.99 226.527 1402.74 229 1394.48 231.956L1379.46 237.333L1379.46 247.958C1379.45 253.801 1380.06 258.583 1380.8 258.583C1381.55 258.583 1388.8 256.197 1396.92 253.28L1411.69 247.977Z" fill="white"/>
<path d="M1506.95 247.938V237.14C1506.95 231.202 1506.45 226.382 1505.85 226.431C1505.24 226.481 1497.99 228.931 1489.73 231.879L1474.71 237.236V247.91C1474.71 253.781 1475.2 258.589 1475.81 258.596C1476.41 258.604 1483.66 256.209 1491.93 253.274L1506.95 247.938Z" fill="white"/>
<path d="M892.897 248.199V238.003C892.897 230.762 892.366 227.841 891.065 227.923C890.058 227.986 882.968 230.183 875.31 232.803L861.388 237.571L860.954 248.204C860.717 254.053 861.046 258.523 861.687 258.138C862.329 257.754 869.614 255.359 877.875 252.818L892.897 248.199Z" fill="white"/>
<path d="M1323.76 320.978V280.254C1323.76 248.574 1323.35 239.565 1321.93 239.681C1320.92 239.765 1313.99 241.826 1306.54 244.265L1292.98 248.697V289.545C1292.98 312.012 1293.44 330.394 1294.01 330.394C1294.57 330.394 1301.49 328.274 1309.4 325.685L1323.76 320.978Z" fill="white"/>
<path d="M1054.1 289.359V279.101C1054.1 271.79 1053.58 268.884 1052.27 268.991C1051.26 269.074 1044.01 271.159 1036.15 273.625L1021.86 278.111V299.857V321.6H1074.5H1127.14L1131.87 307.312C1134.47 299.454 1136.91 292.199 1137.28 291.191C1137.81 289.752 1128.95 289.359 1096.03 289.359H1054.1Z" fill="white"/>
<path d="M1829.54 317.595C1828.1 319.031 1827.93 318.862 1828.72 316.774C1829.27 315.329 1830.09 314.516 1830.55 314.967C1831 315.417 1830.55 316.6 1829.54 317.595Z" fill="#141301"/>
<path d="M1628.95 214.805C1626.63 216.627 1626.58 216.575 1628.4 214.251C1629.51 212.84 1630.66 211.687 1630.96 211.687C1632.17 211.687 1631.39 212.89 1628.95 214.805Z" fill="#141301"/>
<path d="M1612.47 224.143C1611.66 224.642 1611 224.35 1611 223.497C1611 222.644 1611.66 221.945 1612.47 221.945C1613.27 221.945 1613.93 222.235 1613.93 222.591C1613.93 222.948 1613.27 223.645 1612.47 224.143Z" fill="#141301"/>
<path d="M1633.95 229.639C1633.55 230.647 1633.21 229.822 1633.21 227.807C1633.21 225.792 1633.55 224.969 1633.95 225.975C1634.36 226.984 1634.36 228.632 1633.95 229.639Z" fill="#141301"/>
<path d="M1609.94 231.632C1609.56 231.248 1609.68 230.23 1610.21 229.371C1611.65 227.032 1612.5 227.486 1611.51 230.068C1611.03 231.313 1610.32 232.016 1609.94 231.632Z" fill="#141301"/>
<path d="M1618.02 229.852C1616.07 231.961 1613.93 231.613 1613.93 229.186C1613.93 228.427 1615.28 227.807 1616.92 227.807C1619.4 227.807 1619.59 228.153 1618.02 229.852Z" fill="#141301"/>
<path d="M1627.85 231.269C1626.51 231.782 1625.66 231.27 1625.66 229.96C1625.66 228.776 1626.64 227.807 1627.85 227.807C1629.06 227.807 1630.05 228.396 1630.05 229.116C1630.05 229.835 1629.06 230.804 1627.85 231.269Z" fill="#141301"/>
<path d="M1623.03 239.898C1623.26 238.486 1625.11 236.183 1627.12 234.779C1632.79 230.823 1633.17 231.716 1628.19 237.333C1623.02 243.176 1622.43 243.471 1623.03 239.898Z" fill="#141301"/>
<path d="M1612.83 242.54C1609.91 245.684 1607.63 242.336 1609.44 237.572C1610.3 235.331 1612.04 233.69 1613.53 233.716C1616 233.76 1616 233.858 1613.57 235.709C1610.61 237.949 1609.96 243.223 1612.83 241.601C1614.3 240.774 1614.3 240.962 1612.83 242.54Z" fill="#141301"/>
<path d="M1616.65 245.393C1615.91 245.393 1616.03 244.019 1616.93 242.336C1617.83 240.655 1618.86 239.572 1619.21 239.929C1620.24 240.954 1618.16 245.393 1616.65 245.393Z" fill="#141301"/>
<path d="M1611.45 254.187C1609.01 254.187 1608.94 250.275 1611.37 249.295C1614.54 248.014 1615.61 248.266 1614.51 250.039C1613.78 251.225 1614.32 251.449 1616.26 250.767C1618.98 249.813 1618.97 249.85 1616.22 251.985C1614.65 253.196 1612.51 254.187 1611.45 254.187Z" fill="#141301"/>
<path d="M1578.31 227.785C1577.26 227.771 1577.44 227.195 1578.76 226.342C1581.57 224.522 1582.08 224.522 1580.96 226.342C1580.46 227.148 1579.27 227.797 1578.31 227.785Z" fill="#141301"/>
<path d="M1436.69 251.663C1433.51 254.688 1433.72 252.948 1437.04 248.656C1437.84 247.628 1438.85 247.152 1439.3 247.598C1439.74 248.042 1438.57 249.872 1436.69 251.663Z" fill="#141301"/>
<path d="M1535.92 311.342C1535.06 311.342 1535.21 310.411 1536.26 309.143C1537.26 307.934 1538.31 306.945 1538.59 306.945C1538.87 306.945 1538.72 307.934 1538.25 309.143C1537.79 310.352 1536.74 311.342 1535.92 311.342Z" fill="#141301"/>
<path d="M1177.57 169.375C1175.25 171.196 1175.2 171.145 1177.02 168.821C1178.93 166.379 1180.14 165.604 1180.14 166.81C1180.14 167.113 1178.98 168.268 1177.57 169.375Z" fill="#141301"/>
<path d="M1045.71 181.805C1045.26 181.352 1045.73 179.976 1046.75 178.748C1049.38 175.574 1050.09 175.984 1048.17 179.572C1047.27 181.253 1046.17 182.258 1045.71 181.805Z" fill="#141301"/>
<path d="M1060.81 296.356C1058.29 298.772 1058.26 298.742 1060.11 295.654C1061.18 293.878 1062.37 292.739 1062.75 293.124C1063.14 293.51 1062.27 294.964 1060.81 296.356Z" fill="#141301"/>
<path d="M1040.91 316.678C1040.91 316.293 1040.51 314.936 1040.02 313.661C1039.53 312.386 1039.79 311.342 1040.6 311.342C1042.65 311.342 1044.02 315.459 1042.31 316.511C1041.54 316.987 1040.91 317.062 1040.91 316.678Z" fill="#141301"/>
<path d="M1073.34 316.13C1071.89 317.566 1071.72 317.398 1072.52 315.309C1073.07 313.864 1073.89 313.051 1074.34 313.502C1074.79 313.952 1074.34 315.135 1073.34 316.13Z" fill="#141301"/>
<path d="M878.241 188.971C877.435 189.47 876.775 189.178 876.775 188.325C876.775 187.472 877.435 186.773 878.241 186.773C879.047 186.773 879.706 187.063 879.706 187.419C879.706 187.775 879.047 188.473 878.241 188.971Z" fill="#141301"/>
<path d="M992.551 222.678C991.745 223.176 991.086 222.885 991.086 222.032C991.086 221.179 991.745 220.48 992.551 220.48C993.357 220.48 994.017 220.77 994.017 221.126C994.017 221.482 993.357 222.18 992.551 222.678Z" fill="#141301"/>
<path d="M710.074 214.805C707.75 216.627 707.698 216.575 709.52 214.251C710.627 212.84 711.781 211.687 712.085 211.687C713.291 211.687 712.516 212.89 710.074 214.805Z" fill="#141301"/>
<path d="M715.074 229.639C714.668 230.647 714.336 229.822 714.336 227.807C714.336 225.792 714.668 224.969 715.074 225.975C715.482 226.984 715.482 228.632 715.074 229.639Z" fill="#141301"/>
<path d="M691.06 231.632C690.676 231.248 690.797 230.23 691.329 229.371C692.774 227.032 693.618 227.486 692.627 230.068C692.149 231.313 691.444 232.016 691.06 231.632Z" fill="#141301"/>
<path d="M699.14 229.852C697.191 231.961 695.053 231.613 695.053 229.186C695.053 228.427 696.398 227.807 698.041 227.807C700.525 227.807 700.711 228.153 699.14 229.852Z" fill="#141301"/>
<path d="M708.975 231.269C707.635 231.782 706.777 231.27 706.777 229.96C706.777 228.776 707.766 227.807 708.975 227.807C710.184 227.807 711.173 228.396 711.173 229.116C711.173 229.835 710.184 230.804 708.975 231.269Z" fill="#141301"/>
<path d="M704.148 239.898C704.385 238.486 706.227 236.183 708.242 234.779C713.914 230.823 714.287 231.716 709.313 237.333C704.14 243.176 703.548 243.471 704.148 239.898Z" fill="#141301"/>
<path d="M693.953 242.54C691.036 245.684 688.754 242.336 690.565 237.572C691.417 235.331 693.156 233.69 694.65 233.716C697.123 233.76 697.125 233.858 694.686 235.709C691.736 237.949 691.079 243.223 693.953 241.601C695.419 240.774 695.419 240.962 693.953 242.54Z" fill="#141301"/>
<path d="M697.775 245.393C697.027 245.393 697.151 244.019 698.051 242.336C698.951 240.655 699.978 239.572 700.336 239.929C701.36 240.954 699.282 245.393 697.775 245.393Z" fill="#141301"/>
<path d="M692.574 254.187C690.128 254.187 690.059 250.275 692.488 249.295C695.662 248.014 696.728 248.266 695.631 250.039C694.899 251.225 695.438 251.449 697.377 250.767C700.097 249.813 700.095 249.85 697.337 251.985C695.772 253.196 693.629 254.187 692.574 254.187Z" fill="#141301"/>
<path d="M598.085 305.48C596.95 305.48 595.915 304.086 595.786 302.383C595.659 300.68 595.704 299.525 595.89 299.818C596.075 300.112 597.109 301.504 598.188 302.915C599.84 305.074 599.824 305.48 598.085 305.48Z" fill="#141301"/>
<path d="M1344.88 161.689C1345.23 159.768 1345.57 157.7 1345.63 157.096C1345.79 155.528 1349.8 155.733 1350.81 157.361C1351.27 158.111 1350.97 159.146 1350.14 159.66C1349.31 160.175 1349.07 161.375 1349.62 162.326C1350.16 163.279 1350.07 163.568 1349.41 162.971C1348.75 162.373 1347.32 162.627 1346.22 163.534C1344.62 164.86 1344.36 164.498 1344.88 161.689Z" fill="#141301"/>
<path d="M1364.79 157.462C1361.95 159.299 1360.4 159.299 1360.4 157.462C1360.4 156.656 1361.88 156.007 1363.69 156.019C1366.36 156.038 1366.57 156.313 1364.79 157.462Z" fill="#141301"/>
<path d="M1356.56 161.361C1353.51 161.205 1352.22 160.5 1352.7 159.256C1353.14 158.094 1354.04 157.881 1355.07 158.693C1355.99 159.411 1357.72 160.358 1358.93 160.798C1360.14 161.236 1359.07 161.49 1356.56 161.361Z" fill="#141301"/>
<path d="M1365 161.812C1362.96 161.772 1363.03 161.44 1365.44 159.614C1368.99 156.924 1369.3 156.93 1368.25 159.66C1367.79 160.87 1366.33 161.838 1365 161.812Z" fill="#141301"/>
<path d="M1316.13 161.793C1314.11 165.03 1312.69 164.627 1314.01 161.189C1314.48 159.945 1315.56 158.928 1316.4 158.928C1317.36 158.928 1317.26 159.978 1316.13 161.793Z" fill="#141301"/>
<path d="M1342.8 174.339C1343.73 171.53 1346.18 167.903 1348.24 166.279C1352.65 162.811 1352.96 162.782 1356.51 165.471C1359.37 167.637 1358.5 171.408 1355.53 169.708C1354.58 169.163 1354.29 169.257 1354.89 169.916C1355.49 170.576 1355.16 172.154 1354.15 173.423C1352.77 175.177 1353.36 175.078 1356.6 173.005L1360.86 170.28L1357.7 174.723C1354.2 179.638 1353.64 181.633 1356.23 180.039C1357.28 179.385 1357.52 179.637 1356.86 180.708C1356.27 181.652 1355.11 181.999 1354.27 181.479C1353.43 180.96 1352.17 181.444 1351.46 182.555C1350.45 184.152 1350.18 184.038 1350.16 182.01C1350.15 180.598 1349.44 179.445 1348.59 179.445C1347.73 179.445 1347.44 180.104 1347.94 180.91C1348.44 181.717 1348.15 182.376 1347.29 182.376C1346.44 182.376 1345.74 181.693 1345.74 180.859C1345.74 179.814 1344.86 179.816 1342.9 180.864C1341.01 181.875 1339.75 181.892 1339.15 180.915C1338.65 180.106 1338.89 179.445 1339.68 179.445C1340.47 179.445 1341.88 177.147 1342.8 174.339Z" fill="#141301"/>
<path d="M1316.17 169.186C1315.19 169.186 1315.3 168.345 1316.46 166.953C1317.48 165.725 1318.62 165.021 1318.99 165.389C1320 166.406 1317.94 169.186 1316.17 169.186Z" fill="#141301"/>
<path d="M1336.31 176.593C1334.6 175.176 1334.18 170.719 1335.34 166.255C1335.89 164.124 1338.37 170.526 1338.39 174.128C1338.41 177.62 1338.05 178.041 1336.31 176.593Z" fill="#141301"/>
<path d="M1365.54 170.652C1365.04 170.652 1365.14 169.828 1365.77 168.82C1366.6 167.501 1367.07 167.76 1367.47 169.743C1367.77 171.259 1367.39 172.907 1366.62 173.407C1365.86 173.907 1364.92 175.273 1364.55 176.442C1364.08 177.895 1363.54 178.047 1362.85 176.926C1362.29 176.023 1362.88 174.242 1364.15 172.969C1365.43 171.694 1366.05 170.652 1365.54 170.652Z" fill="#141301"/>
<path d="M1319.77 183.27C1319.38 182.886 1319.5 181.868 1320.03 181.009C1321.48 178.67 1322.32 179.124 1321.33 181.706C1320.86 182.95 1320.15 183.654 1319.77 183.27Z" fill="#141301"/>
<path d="M1323.94 182.767C1322.49 184.203 1322.33 184.035 1323.12 181.947C1323.67 180.502 1324.49 179.688 1324.94 180.14C1325.39 180.59 1324.94 181.772 1323.94 182.767Z" fill="#141301"/>
<path d="M1305.56 194.675C1303.37 193.836 1304.26 186.628 1306.76 184.963C1309.04 183.44 1309.43 183.588 1308.24 185.518C1307.67 186.44 1307.26 189.04 1307.32 191.295C1307.4 194.062 1306.82 195.161 1305.56 194.675Z" fill="#141301"/>
<path d="M1307.16 200.362C1307.67 198.933 1310.43 194.856 1313.28 191.302C1318.5 184.812 1321.54 185.013 1317.25 191.563C1315.99 193.491 1315.45 195.614 1316.06 196.284C1316.67 196.954 1316.41 197.069 1315.49 196.542C1314.56 196.014 1313.45 196.524 1313 197.676C1312.56 198.828 1310.86 200.488 1309.22 201.366C1306.66 202.732 1306.37 202.588 1307.16 200.362Z" fill="#141301"/>
<path d="M1309.29 190.095C1307.84 191.531 1307.67 191.363 1308.46 189.274C1309.02 187.829 1309.83 187.016 1310.29 187.467C1310.74 187.917 1310.29 189.1 1309.29 190.095Z" fill="#141301"/>
<path d="M1296.5 196.64C1296.02 196.156 1296.14 194.925 1296.77 193.904C1297.69 192.409 1298.04 192.409 1298.53 193.898C1299.24 196.023 1297.81 197.952 1296.5 196.64Z" fill="#141301"/>
<path d="M1301.01 201.428C1299.84 201.428 1299.41 200.31 1299.89 198.497C1300.31 196.885 1301.5 195.566 1302.54 195.566C1303.71 195.566 1304.14 196.684 1303.67 198.497C1303.24 200.109 1302.05 201.428 1301.01 201.428Z" fill="#141301"/>
<path d="M1297.03 208.956C1295.63 207.857 1294.84 206.372 1295.28 205.659C1295.72 204.943 1296.49 204.359 1296.98 204.359C1297.47 204.359 1297.43 204.793 1296.9 205.323C1296.37 205.854 1296.76 207.337 1297.76 208.62C1299.36 210.681 1299.28 210.721 1297.03 208.956Z" fill="#141301"/>
<path d="M1314.97 215.35C1315.66 215.78 1316.64 215.46 1317.15 214.641C1318.4 212.61 1320.83 212.759 1320.83 214.868C1320.83 217.623 1316.21 221.945 1313.27 221.945C1309.88 221.945 1309.84 220.67 1313.13 217.968C1314.54 216.811 1314.77 216.347 1313.64 216.933C1312.27 217.642 1311.94 217.424 1312.64 216.285C1313.23 215.341 1314.27 214.921 1314.97 215.35Z" fill="#141301"/>
<path d="M1319.28 221.945C1318.42 221.945 1318.13 221.285 1318.63 220.479C1319.13 219.673 1319.83 219.014 1320.18 219.014C1320.54 219.014 1320.83 219.673 1320.83 220.479C1320.83 221.285 1320.13 221.945 1319.28 221.945Z" fill="#141301"/>
<path d="M1299.94 231.291C1300.95 230.852 1301.83 229.394 1301.89 228.052C1301.95 226.708 1302.32 226.364 1302.69 227.285C1303.07 228.207 1304.83 228.612 1306.61 228.185C1308.77 227.665 1309.35 227.895 1308.37 228.884C1307.56 229.696 1304.93 230.748 1302.51 231.223C1300.09 231.698 1298.94 231.729 1299.94 231.291Z" fill="#141301"/>
<path d="M1295.83 251.255C1294.97 251.255 1294.68 250.596 1295.18 249.79C1295.68 248.984 1296.38 248.324 1296.73 248.324C1297.09 248.324 1297.38 248.984 1297.38 249.79C1297.38 250.596 1296.68 251.255 1295.83 251.255Z" fill="#141301"/>
<path d="M1383.95 400.66H1422.71V412.516H1400.71V439.078H1418.04V450.82H1400.71V481.486H1422.94V493H1383.95V400.66ZM1468.74 450.364H1496.21V460.966H1468.74V450.364ZM1569.46 494.254C1561.1 494.254 1554.83 491.898 1550.65 487.186C1546.54 482.474 1544.3 475.444 1543.92 466.096L1558.4 463.246C1558.63 469.098 1559.54 473.582 1561.13 476.698C1562.81 479.738 1565.39 481.258 1568.89 481.258C1571.47 481.258 1573.37 480.498 1574.59 478.978C1575.88 477.382 1576.52 475.254 1576.52 472.594C1576.52 468.946 1575.69 465.868 1574.02 463.36C1572.42 460.776 1569.87 457.964 1566.38 454.924L1554.75 444.778C1551.18 441.738 1548.48 438.47 1546.66 434.974C1544.91 431.478 1544.03 427.298 1544.03 422.434C1544.03 415.214 1546.12 409.628 1550.3 405.676C1554.56 401.648 1560.41 399.634 1567.86 399.634C1575.84 399.634 1581.54 401.914 1584.96 406.474C1588.46 410.958 1590.47 417.038 1591 424.714L1576.52 427.222C1576.3 422.206 1575.57 418.444 1574.36 415.936C1573.22 413.352 1570.94 412.06 1567.52 412.06C1565.09 412.06 1563.19 412.896 1561.82 414.568C1560.45 416.164 1559.77 418.216 1559.77 420.724C1559.77 423.688 1560.34 426.196 1561.48 428.248C1562.69 430.224 1564.63 432.352 1567.29 434.632L1578.8 444.778C1583.14 448.502 1586.52 452.492 1588.95 456.748C1591.38 461.004 1592.6 465.944 1592.6 471.568C1592.6 475.976 1591.61 479.89 1589.63 483.31C1587.73 486.73 1585.04 489.428 1581.54 491.404C1578.04 493.304 1574.02 494.254 1569.46 494.254ZM1639.24 400.66H1656V439.192H1674.81V400.66H1691.68V493H1674.81V451.276H1656V493H1639.24V400.66ZM1767.48 494.254C1757.91 494.254 1751.07 491.708 1746.96 486.616C1742.86 481.448 1740.81 473.924 1740.81 464.044V429.388C1740.81 419.584 1742.86 412.174 1746.96 407.158C1751.07 402.142 1757.91 399.634 1767.48 399.634C1776.98 399.634 1783.78 402.142 1787.89 407.158C1791.99 412.174 1794.04 419.584 1794.04 429.388V464.044C1794.04 473.848 1791.95 481.334 1787.77 486.502C1783.67 491.67 1776.91 494.254 1767.48 494.254ZM1767.48 481.828C1771.21 481.828 1773.71 480.65 1775.01 478.294C1776.3 475.938 1776.94 472.518 1776.94 468.034V425.512C1776.94 421.028 1776.3 417.646 1775.01 415.366C1773.79 413.086 1771.28 411.946 1767.48 411.946C1763.68 411.946 1761.14 413.124 1759.84 415.48C1758.55 417.76 1757.91 421.104 1757.91 425.512V468.034C1757.91 472.518 1758.55 475.938 1759.84 478.294C1761.14 480.65 1763.68 481.828 1767.48 481.828ZM1843 400.66H1870.14C1885.87 400.66 1893.73 409.4 1893.73 426.88C1893.73 443.6 1885.49 451.96 1869 451.96H1859.76V493H1843V400.66ZM1866.26 440.104C1870.82 440.104 1873.9 439.154 1875.49 437.254C1877.09 435.278 1877.89 431.782 1877.89 426.766C1877.89 423.118 1877.62 420.344 1877.09 418.444C1876.56 416.468 1875.46 414.986 1873.78 413.998C1872.19 413.01 1869.68 412.516 1866.26 412.516H1859.76V440.104H1866.26Z" fill="white"/>
</svg>
